<svg width="234" height="377" viewBox="0 0 234 377" fill="none" xmlns="http://www.w3.org/2000/svg">
<g clip-path="url(#clip0_613_1971)">
<path d="M203.66 0.469971H29.88C22.0879 0.469971 14.615 3.56535 9.1052 9.07517C3.59538 14.585 0.5 22.0579 0.5 29.85L0.5 346.63C0.5 354.422 3.59538 361.895 9.1052 367.405C14.615 372.915 22.0879 376.01 29.88 376.01H203.66C211.452 376.01 218.925 372.915 224.435 367.405C229.945 361.895 233.04 354.422 233.04 346.63V29.85C233.04 22.0579 229.945 14.585 224.435 9.07517C218.925 3.56535 211.452 0.469971 203.66 0.469971V0.469971ZM215.41 346.63C215.407 349.745 214.169 352.733 211.966 354.936C209.763 357.139 206.775 358.377 203.66 358.38H29.88C26.7645 358.377 23.7774 357.139 21.5744 354.936C19.3714 352.733 18.1326 349.745 18.13 346.63V29.85C18.1353 26.7353 19.3749 23.7497 21.5773 21.5473C23.7797 19.3449 26.7653 18.1053 29.88 18.1H203.66C206.775 18.1053 209.76 19.3449 211.963 21.5473C214.165 23.7497 215.405 26.7353 215.41 29.85V346.63Z" fill="#1E2B3C"/>
<path d="M147.08 44.73H85.4399V65.81H147.08V44.73Z" fill="#1E2B3C"/>
<path d="M86.3899 310.62C84.0651 310.618 81.792 311.306 79.8582 312.596C77.9244 313.886 76.4168 315.721 75.5262 317.869C74.6356 320.016 74.4021 322.38 74.8552 324.66C75.3082 326.94 76.4275 329.035 78.0714 330.678C79.7153 332.322 81.8098 333.442 84.09 333.895C86.3702 334.348 88.7336 334.114 90.881 333.224C93.0285 332.333 94.8635 330.825 96.1538 328.892C97.4442 326.958 98.1319 324.685 98.1299 322.36C98.1272 319.247 96.8895 316.262 94.6884 314.061C92.4873 311.86 89.5027 310.623 86.3899 310.62V310.62Z" fill="#1E2B3C"/>
<path d="M116.26 310.62C113.935 310.618 111.662 311.306 109.728 312.596C107.794 313.886 106.287 315.721 105.396 317.869C104.506 320.016 104.272 322.38 104.725 324.66C105.178 326.94 106.298 329.035 107.942 330.678C109.585 332.322 111.68 333.442 113.96 333.895C116.24 334.348 118.604 334.114 120.751 333.224C122.899 332.333 124.734 330.825 126.024 328.892C127.314 326.958 128.002 324.685 128 322.36C128 319.246 126.763 316.26 124.561 314.058C122.36 311.857 119.374 310.62 116.26 310.62V310.62Z" fill="#1E2B3C"/>
<path d="M146.13 310.62C143.805 310.618 141.532 311.306 139.598 312.596C137.665 313.886 136.157 315.721 135.266 317.869C134.376 320.016 134.142 322.38 134.595 324.66C135.048 326.94 136.168 329.035 137.812 330.678C139.455 332.322 141.55 333.442 143.83 333.895C146.11 334.348 148.474 334.114 150.621 333.224C152.769 332.333 154.604 330.825 155.894 328.892C157.184 326.958 157.872 324.685 157.87 322.36C157.867 319.247 156.63 316.262 154.429 314.061C152.228 311.86 149.243 310.623 146.13 310.62Z" fill="#1E2B3C"/>
<path d="M174.37 94.73H58.14C54.4711 94.7353 50.9539 96.1951 48.3595 98.7895C45.7652 101.384 44.3053 104.901 44.3 108.57V136.65C44.3106 140.315 45.7728 143.828 48.3666 146.418C50.9604 149.008 54.4745 150.465 58.14 150.47H174.37C178.042 150.465 181.561 149.004 184.158 146.408C186.754 143.811 188.215 140.292 188.22 136.62V108.57C188.212 104.9 186.75 101.383 184.154 98.7888C181.558 96.1948 178.04 94.7353 174.37 94.73V94.73ZM173.5 135.81H58.9901V109.41H173.5V135.81Z" fill="#1E2B3C"/>
<path d="M174.37 174.02H58.14C54.4684 174.028 50.9498 175.491 48.3554 178.089C45.761 180.688 44.3027 184.208 44.3 187.88V274.71C44.3027 278.382 45.761 281.902 48.3554 284.501C50.9498 287.099 54.4684 288.562 58.14 288.57H174.37C178.043 288.562 181.562 287.099 184.158 284.501C186.754 281.903 188.215 278.383 188.22 274.71V187.88C188.215 184.207 186.754 180.687 184.158 178.089C181.562 175.491 178.043 174.028 174.37 174.02ZM173.5 273.88H58.9901V188.71H173.5V273.88Z" fill="#1E2B3C"/>
</g>
<defs>
<clipPath id="clip0_613_1971">
<rect width="232.54" height="375.54" fill="white" transform="translate(0.5 0.469971)"/>
</clipPath>
</defs>
</svg>
