<svg width="284" height="371" viewBox="0 0 284 371" fill="none" xmlns="http://www.w3.org/2000/svg">
    <g clip-path="url(#clip0_613_1983)">
        <path d="M28.91 0.459961C13 0.459961 0 12.82 0 28.02V342.94C0 358.14 13 370.46 28.91 370.46H254.67C270.61 370.46 283.58 358.1 283.58 342.9V28.02C283.58 12.82 270.58 0.459961 254.67 0.459961H28.91ZM17.84 28.02C17.84 22.66 22.84 18.3 28.91 18.3H254.67C260.78 18.3 265.74 22.66 265.74 28.02V342.94C265.74 348.3 260.74 352.67 254.67 352.67H28.91C22.8 352.67 17.84 348.3 17.84 342.94V28.02Z"
              fill="#1E2B3C"/>
        <path d="M165.3 137.18H118.29V127.22H100.66V154.8H182.92V127.22H165.3V137.18Z" fill="#1E2B3C"/>
        <path d="M231.1 197.12V86.51H52.48V287.04H231.1V197.12ZM70.1 104.12H213.48V179.46H70.11L70.1 104.12ZM213.48 269.46H70.11V197.14H213.48V269.46Z"
              fill="#1E2B3C"/>
        <path d="M182.92 220.22H165.3V230.18H118.29V220.22H100.66V247.81H182.92V220.22Z" fill="#1E2B3C"/>
    </g>
    <defs>
        <clipPath id="clip0_613_1983">
            <rect width="283.58" height="370.04" fill="white" transform="translate(0 0.459961)"/>
        </clipPath>
    </defs>
</svg>
