<svg width="422" height="456" viewBox="0 0 422 456" fill="none" xmlns="http://www.w3.org/2000/svg">
<g clip-path="url(#clip0_613_1997)">
<path d="M295.51 77.13H30.06C22.2438 77.1379 14.7501 80.2464 9.22322 85.7732C3.69637 91.3001 0.587898 98.7938 0.579956 106.61L0.579956 358.46C0.587893 366.277 3.69604 373.772 9.22261 379.3C14.7492 384.829 22.2429 387.939 30.06 387.95H132.17V438.27H97.32V455.9H271.22V438.25H236.46V387.93H343.04C350.854 387.919 358.344 384.811 363.87 379.287C369.396 373.763 372.507 366.274 372.52 358.46V106.61C372.522 104.509 372.298 102.413 371.85 100.36L421.96 50.24L372.18 0.459961L295.51 77.13ZM218.83 390.86V436.79H149.83V390.86H218.83ZM245.66 200.65L203.5 218.92L221.77 176.76L245.66 200.65ZM207.66 164.97L169.58 252.81L257.43 214.81L354.67 117.57V358.46C354.667 361.549 353.439 364.511 351.255 366.695C349.071 368.879 346.109 370.107 343.02 370.11H30.02C26.9389 370.097 23.9885 368.863 21.8145 366.68C19.6405 364.497 18.4199 361.541 18.42 358.46V106.61C18.4226 103.523 19.6495 100.563 21.8315 98.3786C24.0136 96.1947 26.9727 94.9653 30.06 94.96H277.68L207.66 164.97ZM258.58 188.67L233.72 163.82L344.16 53.46L369.01 78.32L258.58 188.67ZM381.48 65.8L356.63 40.94L372.18 25.39L397.03 50.24L381.48 65.8Z" fill="#1E2B3C"/>
</g>
<defs>
<clipPath id="clip0_613_1997">
<rect width="421.38" height="455.42" fill="white" transform="translate(0.579956 0.459961)"/>
</clipPath>
</defs>
</svg>
