<svg width="373" height="345" viewBox="0 0 373 345" fill="none" xmlns="http://www.w3.org/2000/svg">
<g clip-path="url(#clip0_613_2006)">
<path d="M30.33 311.05H68.03V329.11C68.0193 333.279 69.6633 337.283 72.6012 340.241C75.539 343.199 79.5307 344.871 83.7 344.89H142.96C147.129 344.871 151.121 343.199 154.059 340.241C156.997 337.283 158.641 333.279 158.63 329.11V311.05H343.31C347.167 311.051 350.987 310.293 354.551 308.817C358.115 307.341 361.353 305.178 364.081 302.451C366.808 299.723 368.971 296.485 370.447 292.921C371.923 289.357 372.681 285.537 372.68 281.68V29.84C372.681 25.9822 371.923 22.162 370.447 18.5975C368.972 15.033 366.809 11.7941 364.081 9.06577C361.354 6.33745 358.116 4.17318 354.552 2.69658C350.988 1.21997 347.168 0.459961 343.31 0.459961L30.31 0.459961C22.5223 0.465264 15.0555 3.56331 9.55163 9.07284C4.04772 14.5824 0.957309 22.0523 0.959963 29.84V281.68C0.959963 289.469 4.05429 296.94 9.56224 302.448C15.0702 307.956 22.5406 311.05 30.33 311.05V311.05ZM18.59 29.84C18.5926 26.7262 19.83 23.7406 22.0308 21.5379C24.2317 19.3352 27.2162 18.0953 30.33 18.09H343.33C346.446 18.0926 349.435 19.3311 351.639 21.5338C353.844 23.7365 355.085 26.7236 355.09 29.84V281.68C355.091 283.227 354.787 284.76 354.196 286.19C353.604 287.619 352.737 288.918 351.643 290.013C350.548 291.107 349.249 291.974 347.82 292.566C346.39 293.157 344.857 293.461 343.31 293.46H158.6V227.67H178.31V210.04H48.31V227.67H68.03V293.46H30.33C27.2162 293.455 24.2317 292.215 22.0308 290.012C19.83 287.809 18.5926 284.824 18.59 281.71V29.84ZM85.65 228.99H140.96V327.26H85.65V228.99Z" fill="#1E2B3C"/>
<path d="M208.46 93.9699H237.1C239.222 93.9699 241.257 93.1271 242.757 91.6268C244.257 90.1265 245.1 88.0917 245.1 85.9699V57.9199C245.1 55.7982 244.257 53.7634 242.757 52.2631C241.257 50.7628 239.222 49.9199 237.1 49.9199H209.03C206.908 49.9199 204.873 50.7628 203.373 52.2631C201.873 53.7634 201.03 55.7982 201.03 57.9199V86.5499C201.03 87.5252 201.222 88.4909 201.596 89.3917C201.969 90.2926 202.517 91.1111 203.207 91.8002C203.897 92.4893 204.716 93.0357 205.617 93.408C206.519 93.7803 207.485 93.9712 208.46 93.9699V93.9699Z" fill="#1E2B3C"/>
<path d="M283.08 49.9399H312.27C314.235 49.9399 316.12 50.7206 317.51 52.1103C318.899 53.4999 319.68 55.3847 319.68 57.3499V86.5499C319.68 87.5243 319.488 88.4892 319.115 89.3895C318.742 90.2897 318.196 91.1077 317.507 91.7967C316.818 92.4857 316 93.0322 315.099 93.4051C314.199 93.778 313.234 93.9699 312.26 93.9699H283.08C281.115 93.9699 279.23 93.1892 277.84 91.7996C276.451 90.41 275.67 88.5252 275.67 86.5599V57.3499C275.673 55.3855 276.454 53.5023 277.843 52.1132C279.232 50.7241 281.115 49.9426 283.08 49.9399V49.9399Z" fill="#1E2B3C"/>
<path d="M209.03 167.46H237.65C239.616 167.46 241.502 166.679 242.893 165.29C244.284 163.901 245.067 162.016 245.07 160.05V131.36C245.07 129.238 244.227 127.203 242.727 125.703C241.227 124.203 239.192 123.36 237.07 123.36H209.03C206.908 123.36 204.873 124.203 203.373 125.703C201.873 127.203 201.03 129.238 201.03 131.36V159.46C201.03 161.582 201.873 163.616 203.373 165.117C204.873 166.617 206.908 167.46 209.03 167.46Z" fill="#1E2B3C"/>
<path d="M283.08 123.39H312.27C314.235 123.39 316.12 124.171 317.51 125.56C318.899 126.95 319.68 128.835 319.68 130.8V160C319.68 160.974 319.488 161.939 319.115 162.839C318.742 163.74 318.196 164.558 317.507 165.247C316.818 165.936 316 166.482 315.099 166.855C314.199 167.228 313.234 167.42 312.26 167.42H283.08C281.115 167.42 279.23 166.639 277.84 165.25C276.451 163.86 275.67 161.975 275.67 160.01V130.81C275.67 128.844 276.45 126.958 277.84 125.567C279.229 124.175 281.114 123.393 283.08 123.39V123.39Z" fill="#1E2B3C"/>
<path d="M208.47 196.84H237.66C238.633 196.84 239.597 197.031 240.496 197.404C241.395 197.776 242.212 198.322 242.9 199.01C243.588 199.698 244.133 200.515 244.506 201.414C244.878 202.313 245.07 203.277 245.07 204.25V233.46C245.07 235.428 244.288 237.315 242.897 238.707C241.505 240.098 239.618 240.88 237.65 240.88H208.46C206.495 240.88 204.61 240.099 203.22 238.71C201.831 237.32 201.05 235.435 201.05 233.47V204.26C201.05 202.292 201.832 200.405 203.223 199.013C204.615 197.622 206.502 196.84 208.47 196.84V196.84Z" fill="#1E2B3C"/>
<path d="M283.08 196.84H312.27C314.235 196.84 316.12 197.621 317.51 199.01C318.899 200.4 319.68 202.285 319.68 204.25V233.46C319.68 234.434 319.488 235.399 319.115 236.299C318.742 237.2 318.196 238.018 317.507 238.707C316.818 239.396 316 239.942 315.099 240.315C314.199 240.688 313.234 240.88 312.26 240.88H283.08C281.115 240.88 279.23 240.099 277.84 238.71C276.451 237.32 275.67 235.435 275.67 233.47V204.26C275.67 202.294 276.45 200.408 277.84 199.017C279.229 197.625 281.114 196.842 283.08 196.84V196.84Z" fill="#1E2B3C"/>
<path d="M61.71 174.76H164.3C168.213 174.755 171.964 173.198 174.731 170.431C177.498 167.664 179.055 163.913 179.06 160V57.4599C179.055 53.547 177.498 49.7958 174.731 47.0289C171.964 44.262 168.213 42.7052 164.3 42.7H61.71C57.7987 42.7079 54.0501 44.2658 51.2854 47.0324C48.5206 49.799 46.9652 53.5487 46.96 57.4599V160C46.9652 163.911 48.5206 167.661 51.2854 170.427C54.0501 173.194 57.7987 174.752 61.71 174.76ZM64.58 60.27H161.43V157.14H64.58V60.27Z" fill="#1E2B3C"/>
</g>
<defs>
<clipPath id="clip0_613_2006">
<rect width="371.72" height="344.43" fill="white" transform="translate(0.959961 0.459961)"/>
</clipPath>
</defs>
</svg>
