<svg width="430" height="365" viewBox="0 0 430 365" fill="none" xmlns="http://www.w3.org/2000/svg">
<g clip-path="url(#clip0_613_2019)">
<path d="M57.97 322.93H211.68C213.951 322.93 216.192 322.421 218.24 321.44C219.815 322.19 221.505 322.667 223.24 322.85C223.761 322.907 224.286 322.934 224.81 322.93H378.52C382.598 322.927 386.509 321.306 389.392 318.422C392.276 315.539 393.897 311.628 393.9 307.55V15.83C393.892 11.7543 392.269 7.84801 389.386 4.967C386.503 2.086 382.596 0.465288 378.52 0.460002H283.89C278.851 0.454667 273.825 0.963977 268.89 1.98C258.19 4.20237 248.107 8.74425 239.352 15.2856C230.598 21.827 223.384 30.2086 218.22 39.84C211.866 27.953 202.406 18.0125 190.849 11.0776C179.291 4.14267 166.069 0.473146 152.59 0.460002H57.97C53.8943 0.465288 49.9869 2.086 47.104 4.967C44.2212 7.84801 42.5979 11.7543 42.59 15.83V307.55C42.5926 311.628 44.2139 315.539 47.0976 318.422C49.9813 321.306 53.8917 322.927 57.97 322.93V322.93ZM60.22 18.09H152.59C167.659 18.1085 182.106 24.103 192.761 34.7585C203.417 45.4141 209.411 59.8608 209.43 74.93V305.31H60.22V18.09ZM376.22 18.09V305.31H227.06V74.93C227.076 59.8617 233.068 45.415 243.722 34.7591C254.376 24.1033 268.822 18.1085 283.89 18.09H376.22Z" fill="#1E2B3C"/>
<path d="M71.1899 48.9099V66.5399H152.68C163.432 66.5278 173.966 69.5766 183.05 75.3299L192.48 60.4599C180.58 52.908 166.774 48.9018 152.68 48.9099H71.1899Z" fill="#1E2B3C"/>
<path d="M283.99 66.5399H365.47V48.9099H283.99C269.889 48.898 256.076 52.9044 244.17 60.4599L253.61 75.3399C262.696 69.5818 273.233 66.5295 283.99 66.5399V66.5399Z" fill="#1E2B3C"/>
<path d="M71.1899 92.86V110.46H152.68C163.434 110.447 173.969 113.5 183.05 119.26L192.49 104.37C180.582 96.8303 166.774 92.8379 152.68 92.86H71.1899Z" fill="#1E2B3C"/>
<path d="M244.17 104.4L253.6 119.29C262.69 113.532 273.23 110.48 283.99 110.49H365.47V92.8599H283.99C269.89 92.8477 256.078 96.8504 244.17 104.4V104.4Z" fill="#1E2B3C"/>
<path d="M71.1899 136.82V154.46H152.68C163.432 154.449 173.965 157.498 183.05 163.25L192.48 148.35C180.574 140.812 166.771 136.813 152.68 136.82H71.1899Z" fill="#1E2B3C"/>
<path d="M283.99 154.46H365.47V136.82H283.99C269.891 136.801 256.078 140.801 244.17 148.35L253.61 163.24C262.696 157.485 273.235 154.44 283.99 154.46Z" fill="#1E2B3C"/>
<path d="M411.93 336.31C411.925 339.196 410.775 341.962 408.734 344.001C406.692 346.041 403.926 347.187 401.04 347.19H262.04C243.41 347.19 227.04 342.07 227.04 339.01H209.43C209.43 342.15 193.5 347.16 174.63 347.19H29.1899C26.306 347.185 23.5417 346.037 21.5024 343.998C19.4632 341.958 18.3152 339.194 18.3099 336.31V47.3101H0.679932V336.31C0.690519 343.867 3.69796 351.112 9.04262 356.454C14.3873 361.797 21.6328 364.802 29.1899 364.81H174.68C183.34 364.81 205.77 363.89 218.31 355C230.88 363.89 253.39 364.81 262.07 364.81H401.07C408.629 364.805 415.877 361.801 421.224 356.458C426.571 351.115 429.579 343.869 429.59 336.31V47.3101H411.93V336.31Z" fill="#1E2B3C"/>
</g>
<defs>
<clipPath id="clip0_613_2019">
<rect width="428.88" height="364.35" fill="white" transform="translate(0.679932 0.459961)"/>
</clipPath>
</defs>
</svg>
