<svg width="234" height="501" viewBox="0 0 234 501" fill="none" xmlns="http://www.w3.org/2000/svg">
<g clip-path="url(#clip0_613_2031)">
<path d="M208.68 50.92H204.02V24.92C204.027 21.7102 203.4 18.5306 202.176 15.5633C200.953 12.596 199.156 9.89913 196.888 7.62715C194.621 5.35518 191.928 3.55268 188.963 2.32284C185.998 1.09299 182.82 0.459956 179.61 0.459963H54.0401C50.8337 0.458649 47.6584 1.08906 44.6957 2.31519C41.733 3.54132 39.0409 5.33914 36.7731 7.60595C34.5054 9.87276 32.7065 12.5641 31.4791 15.5264C30.2518 18.4886 29.6201 21.6636 29.6201 24.87V50.92H24.9701C21.7632 50.9213 18.588 51.5542 15.6257 52.7827C12.6634 54.0111 9.97212 55.811 7.70544 58.0795C5.43876 60.348 3.6411 63.0408 2.4151 66.0041C1.18909 68.9673 0.558747 72.1431 0.560061 75.35V367.26C0.56006 370.531 1.85879 373.668 4.17083 375.982C6.48286 378.296 9.61902 379.597 12.8901 379.6C14.5088 379.599 16.1119 379.916 17.6078 380.535C19.1037 381.153 20.463 382.061 21.6081 383.205C22.7532 384.349 23.6615 385.708 24.2813 387.203C24.9011 388.698 25.2201 390.301 25.2201 391.92V413.36C25.2201 414.98 25.5393 416.584 26.1596 418.081C26.7798 419.577 27.689 420.937 28.835 422.082C29.981 423.227 31.3414 424.135 32.8385 424.754C34.3356 425.373 35.94 425.691 37.5601 425.69H71.5601V484.69C71.5521 488.854 73.1945 492.852 76.1277 495.807C79.061 498.763 83.046 500.436 87.2101 500.46H146.44C150.609 500.444 154.602 498.775 157.542 495.818C160.481 492.861 162.128 488.859 162.12 484.69V425.69H196.12C199.389 425.682 202.521 424.381 204.833 422.07C207.146 419.76 208.449 416.629 208.46 413.36V391.92C208.459 390.301 208.777 388.697 209.396 387.201C210.015 385.705 210.924 384.346 212.069 383.202C213.214 382.058 214.574 381.15 216.071 380.532C217.567 379.914 219.171 379.597 220.79 379.6C224.061 379.597 227.197 378.296 229.509 375.982C231.821 373.668 233.12 370.531 233.12 367.26V75.35C233.12 72.1409 232.488 68.9633 231.259 65.9987C230.031 63.0341 228.231 60.3405 225.961 58.0718C223.692 55.8031 220.997 54.0039 218.032 52.7767C215.067 51.5496 211.889 50.9187 208.68 50.92V50.92ZM190.81 408.07H162.12V384.53H176.19V366.9H57.4701V384.53H71.5601V408.07H42.8401V391.92C42.8262 384.902 40.3521 378.11 35.8483 372.727C31.3445 367.345 25.096 363.712 18.1901 362.46V75.35C18.1901 73.5499 18.9037 71.8234 20.1747 70.5487C21.4456 69.274 23.1701 68.5553 24.9701 68.55H47.2501V24.87C47.2553 23.0717 47.9727 21.3487 49.2453 20.0781C50.5178 18.8074 52.2418 18.0926 54.0401 18.09H179.61C181.409 18.0926 183.134 18.8071 184.408 20.0775C185.683 21.3478 186.402 23.0708 186.41 24.87V68.55H208.68C210.482 68.5526 212.209 69.2702 213.482 70.5452C214.755 71.8201 215.47 73.5482 215.47 75.35V362.46C208.557 363.71 202.303 367.347 197.796 372.736C193.29 378.125 190.817 384.925 190.81 391.95V408.07ZM89.1601 384.53H144.5V482.8H89.1601V384.53Z" fill="#1E2B3C"/>
<path d="M94.7201 225.98H65.5301C62.244 225.98 59.5801 228.644 59.5801 231.93V261.12C59.5801 264.406 62.244 267.07 65.5301 267.07H94.7201C98.0062 267.07 100.67 264.406 100.67 261.12V231.93C100.67 228.644 98.0062 225.98 94.7201 225.98Z" fill="#1E2B3C"/>
<path d="M168.13 224.51H138.92C134.828 224.51 131.51 227.828 131.51 231.92V261.13C131.51 265.222 134.828 268.54 138.92 268.54H168.13C172.222 268.54 175.54 265.222 175.54 261.13V231.92C175.54 227.828 172.222 224.51 168.13 224.51Z" fill="#1E2B3C"/>
<path d="M65.5601 297.91H94.7601C96.728 297.91 98.6153 298.692 100.007 300.083C101.398 301.475 102.18 303.362 102.18 305.33V334.53C102.18 335.503 101.988 336.467 101.616 337.366C101.244 338.265 100.698 339.081 100.01 339.77C99.3217 340.458 98.5048 341.003 97.6058 341.376C96.7068 341.748 95.7432 341.94 94.7701 341.94H65.5601C64.5857 341.94 63.6209 341.748 62.7206 341.375C61.8204 341.002 61.0024 340.456 60.3134 339.767C59.6244 339.078 59.0778 338.26 58.7049 337.359C58.3321 336.459 58.1401 335.494 58.1401 334.52V305.32C58.1401 304.346 58.3321 303.382 58.7051 302.482C59.0782 301.582 59.6249 300.765 60.314 300.077C61.0031 299.388 61.8212 298.843 62.7214 298.471C63.6216 298.099 64.5862 297.909 65.5601 297.91V297.91Z" fill="#1E2B3C"/>
<path d="M168.13 297.91H138.92C134.828 297.91 131.51 301.227 131.51 305.32V334.53C131.51 338.622 134.828 341.94 138.92 341.94H168.13C172.222 341.94 175.54 338.622 175.54 334.53V305.32C175.54 301.227 172.222 297.91 168.13 297.91Z" fill="#1E2B3C"/>
<path d="M168.13 74.73H65.56C61.6462 74.7247 57.8903 76.273 55.1172 79.0348C52.3442 81.7967 50.7806 85.5462 50.77 89.46V192.06C50.77 194.002 51.1526 195.925 51.896 197.718C52.6394 199.512 53.729 201.142 55.1025 202.515C56.476 203.887 58.1065 204.976 59.9009 205.718C61.6952 206.46 63.6182 206.841 65.56 206.84H168.16C172.073 206.835 175.824 205.278 178.591 202.511C181.358 199.744 182.915 195.993 182.92 192.08V89.46C182.909 85.5462 181.346 81.7967 178.573 79.0348C175.8 76.273 172.044 74.7247 168.13 74.73ZM165.26 189.22H68.4V92.35H165.26V189.22Z" fill="#1E2B3C"/>
</g>
<defs>
<clipPath id="clip0_613_2031">
<rect width="232.54" height="499.97" fill="white" transform="translate(0.560059 0.459961)"/>
</clipPath>
</defs>
</svg>
