<svg width="267" height="451" viewBox="0 0 267 451" fill="none" xmlns="http://www.w3.org/2000/svg">
<g clip-path="url(#clip0_613_2042)">
<path d="M1.55017 256.16L28.8902 354.46C29.3635 356.273 29.8635 358.063 30.3902 359.83L31.1802 362.67H31.2602C48.1902 415.16 93.8902 451 145.45 451C212.21 451 266.52 391.55 266.52 318.47V226.15C266.52 207.42 252.34 192.15 234.92 192.15C229.291 192.155 223.779 193.753 219.02 196.76C215.38 182.34 203.08 171.69 188.51 171.69C182.967 171.693 177.535 173.248 172.83 176.18C169.47 161.29 156.97 150.18 142.11 150.18C136.911 150.188 131.806 151.567 127.31 154.18V95.8C127.31 77.07 113.13 61.8 95.7102 61.8C78.2902 61.8 64.1002 77.07 64.1002 95.8V234.26C61.391 225.508 55.3351 218.18 47.2502 213.87C43.5191 211.915 39.4256 210.749 35.2243 210.444C31.0231 210.14 26.8042 210.703 22.8302 212.1C5.82017 218.04 -3.71983 237.83 1.55017 256.16ZM28.3602 227.96C30.1812 227.325 32.1132 227.072 34.0363 227.214C35.9595 227.357 37.8328 227.893 39.5402 228.79C41.6726 229.961 43.5455 231.551 45.046 233.466C46.5465 235.381 47.6433 237.58 48.2702 239.93L64.4302 296.13L80.9002 293.81V95.81C80.9002 86.34 87.5402 78.64 95.7102 78.64C103.88 78.64 110.51 86.34 110.51 95.81V231.08H127.31V184.22C127.31 174.75 133.95 167.05 142.11 167.05C150.27 167.05 156.92 174.75 156.92 184.22V240.08H173.71V205.69C173.71 196.22 180.35 188.52 188.51 188.52C196.67 188.52 203.32 196.22 203.32 205.69V261.54H220.1V226.15C220.1 216.68 226.74 208.98 234.9 208.98C243.06 208.98 249.7 216.68 249.7 226.15V318.46C249.7 382.28 202.93 434.2 145.43 434.2C100.43 434.2 60.6002 402.01 46.5002 355.2L45.1002 350.2L44.8002 349.03L17.7102 251.59C14.8402 241.61 19.6202 231.01 28.3602 227.96V227.96Z" fill="#1E2B3C"/>
<path d="M33.5902 89.97H8.49023V106.76H33.5902V89.97Z" fill="#1E2B3C"/>
<path d="M184.57 89.97H159.47V106.76H184.57V89.97Z" fill="#1E2B3C"/>
<path d="M152.33 23.5033L134.586 43.0513L147.018 54.336L164.762 34.788L152.33 23.5033Z" fill="#1E2B3C"/>
<path d="M104.11 0.459961H87.3101V28.11H104.11V0.459961Z" fill="#1E2B3C"/>
<path d="M39.0931 23.4941L26.6609 34.7788L44.4046 54.3268L56.8368 43.0421L39.0931 23.4941Z" fill="#1E2B3C"/>
</g>
<defs>
<clipPath id="clip0_613_2042">
<rect width="266.42" height="450.5" fill="white" transform="translate(0.100098 0.459961)"/>
</clipPath>
</defs>
</svg>
