<svg width="443" height="380" viewBox="0 0 443 380" fill="none" xmlns="http://www.w3.org/2000/svg">
<g clip-path="url(#clip0_613_2051)">
<path d="M417.09 111.46H372.26V29.84C372.261 25.9822 371.503 22.162 370.027 18.5975C368.552 15.033 366.389 11.7941 363.661 9.06577C360.934 6.33745 357.696 4.17318 354.132 2.69658C350.568 1.21997 346.748 0.459961 342.89 0.459961L29.89 0.459961C22.0997 0.462613 14.6293 3.55917 9.12169 9.0687C3.61403 14.5782 0.520019 22.0496 0.52002 29.84L0.52002 281.68C0.52267 289.471 3.61891 296.943 9.12815 302.452C14.6374 307.961 22.1088 311.057 29.9 311.06H132V361.46H97.16V379.09H132V379.18H236.3V379.09H271.07V361.46H236.3V311.06H289.3V353.46C289.299 356.841 289.963 360.19 291.256 363.315C292.549 366.439 294.445 369.279 296.835 371.671C299.225 374.063 302.063 375.961 305.187 377.256C308.31 378.551 311.658 379.219 315.04 379.22H417.09C420.472 379.219 423.82 378.551 426.943 377.256C430.067 375.961 432.905 374.063 435.295 371.671C437.685 369.279 439.581 366.439 440.874 363.315C442.167 360.19 442.831 356.841 442.83 353.46V137.17C442.825 130.348 440.11 123.807 435.283 118.985C430.456 114.164 423.912 111.457 417.09 111.46V111.46ZM149.64 361.46V314.1H218.64V361.46H149.64ZM427.34 353.46C427.337 356.179 426.257 358.785 424.336 360.708C422.414 362.632 419.809 363.715 417.09 363.72H315.01C312.291 363.715 309.686 362.632 307.764 360.708C305.843 358.785 304.763 356.179 304.76 353.46V137.17C304.763 134.451 305.843 131.845 307.764 129.921C309.686 127.998 312.291 126.915 315.01 126.91H417.09C419.809 126.915 422.414 127.998 424.336 129.921C426.257 131.845 427.337 134.451 427.34 137.17V353.46ZM29.9 293.46C26.7853 293.455 23.7998 292.215 21.5974 290.013C19.3949 287.81 18.1553 284.825 18.15 281.71V29.84C18.1553 26.7253 19.3949 23.7397 21.5974 21.5373C23.7998 19.3349 26.7853 18.0952 29.9 18.09H342.9C346.016 18.0926 349.003 19.3314 351.206 21.5344C353.409 23.7374 354.647 26.7245 354.65 29.84V111.46H315.01C311.629 111.459 308.282 112.124 305.158 113.417C302.035 114.71 299.197 116.606 296.806 118.996C294.416 121.387 292.52 124.225 291.227 127.348C289.934 130.472 289.269 133.819 289.27 137.2V293.46H29.9Z" fill="#1E2B3C"/>
<path d="M385.42 141.32H346.66V153.29H385.42V141.32Z" fill="#1E2B3C"/>
</g>
<defs>
<clipPath id="clip0_613_2051">
<rect width="442.31" height="378.75" fill="white" transform="translate(0.52002 0.459961)"/>
</clipPath>
</defs>
</svg>
