<svg width="320" height="287" viewBox="0 0 320 287" fill="none" xmlns="http://www.w3.org/2000/svg">
    <g clip-path="url(#clip0_613_1660)">
        <path d="M319.86 214.67C319.845 203.162 316.097 191.969 309.178 182.773C302.259 173.577 292.543 166.873 281.49 163.67C281.12 141.242 274.545 119.355 262.494 100.437C250.444 81.518 233.388 66.3067 213.22 56.49C213.29 55.37 213.34 54.24 213.34 53.1C213.148 39.1419 207.469 25.8204 197.531 16.0175C187.593 6.21469 174.194 0.71875 160.235 0.71875C146.276 0.71875 132.877 6.21469 122.939 16.0175C113.001 25.8204 107.322 39.1419 107.13 53.1C107.13 54.24 107.18 55.37 107.25 56.49C87.1122 66.2957 70.0788 81.4802 58.0337 100.364C45.9886 119.248 39.4012 141.095 39 163.49C31.5862 165.537 24.7056 169.17 18.8343 174.138C12.963 179.106 8.24121 185.29 4.9957 192.263C1.75018 199.236 0.0584318 206.83 0.0375043 214.521C0.0165768 222.212 1.66697 229.816 4.87449 236.807C8.08201 243.797 12.7701 250.007 18.6142 255.007C24.4584 260.007 31.3191 263.677 38.7217 265.764C46.1243 267.851 53.8919 268.305 61.487 267.094C69.0822 265.882 76.3236 263.036 82.71 258.75C104.427 276.868 131.803 286.811 160.085 286.851C188.368 286.891 215.772 277.027 237.54 258.97C245.541 264.26 254.825 267.283 264.406 267.717C273.988 268.152 283.508 265.981 291.954 261.437C300.401 256.893 307.458 250.144 312.375 241.91C317.292 233.675 319.886 224.261 319.88 214.67H319.86ZM266.76 252.91C259.197 252.91 251.804 250.667 245.515 246.465C239.226 242.264 234.325 236.291 231.431 229.304C228.537 222.316 227.779 214.628 229.255 207.21C230.73 199.792 234.372 192.978 239.72 187.63C245.068 182.282 251.882 178.64 259.3 177.165C266.718 175.689 274.406 176.447 281.394 179.341C288.381 182.235 294.354 187.136 298.555 193.425C302.757 199.714 305 207.107 305 214.67C304.989 224.809 300.957 234.529 293.788 241.698C286.619 248.867 276.899 252.899 266.76 252.91V252.91ZM122 53.1C121.998 45.5344 124.24 38.1382 128.441 31.8467C132.643 25.5552 138.616 20.6511 145.605 17.7545C152.595 14.8579 160.286 14.099 167.706 15.5737C175.127 17.0485 181.943 20.6907 187.293 26.0396C192.644 31.3886 196.288 38.2041 197.764 45.6241C199.241 53.0442 198.484 60.7355 195.589 67.7253C192.695 74.7152 187.792 80.6896 181.502 84.893C175.211 89.0964 167.816 91.34 160.25 91.34C150.11 91.3294 140.389 87.2975 133.218 80.1287C126.048 72.9599 122.013 63.2395 122 53.1V53.1ZM53.11 252.91C45.5468 252.91 38.1535 250.667 31.865 246.465C25.5765 242.264 20.6751 236.291 17.7808 229.304C14.8865 222.316 14.1293 214.628 15.6048 207.21C17.0803 199.792 20.7223 192.978 26.0702 187.63C31.4182 182.282 38.2319 178.64 45.6497 177.165C53.0676 175.689 60.7564 176.447 67.7438 179.341C74.7313 182.235 80.7035 187.136 84.9054 193.425C89.1073 199.714 91.35 207.107 91.35 214.67C91.3368 224.808 87.3037 234.527 80.1351 241.695C72.9666 248.864 63.2478 252.897 53.11 252.91V252.91ZM95.57 246.52C101.313 238.877 104.885 229.825 105.908 220.32C106.93 210.815 105.366 201.21 101.38 192.52C97.3936 183.831 91.1338 176.38 83.2621 170.955C75.3904 165.53 66.1992 162.332 56.66 161.7C57.3527 143.586 62.7782 125.969 72.3962 110.603C82.0142 95.2372 95.4894 82.6588 111.48 74.12C115.585 83.6448 122.39 91.7586 131.054 97.4594C139.719 103.16 149.863 106.198 160.235 106.198C170.607 106.198 180.751 103.16 189.416 97.4594C198.08 91.7586 204.885 83.6448 208.99 74.12C224.975 82.6554 238.446 95.2275 248.064 110.586C257.682 125.944 263.11 143.552 263.81 161.66C254.179 162.185 244.874 165.326 236.895 170.744C228.917 176.163 222.566 183.654 218.526 192.412C214.486 201.17 212.911 210.863 213.969 220.45C215.027 230.037 218.678 239.154 224.53 246.82C206.175 261.393 183.414 269.3 159.977 269.245C136.541 269.191 113.817 261.178 95.53 246.52H95.57Z"
              fill="#1E2B3C"/>
    </g>
    <defs>
        <clipPath id="clip0_613_1660">
            <rect width="319.86" height="286.85" fill="white"/>
        </clipPath>
    </defs>
</svg>
