<svg width="285" height="370" viewBox="0 0 285 370" fill="none" xmlns="http://www.w3.org/2000/svg">
    <g clip-path="url(#clip0_613_1667)">
        <path d="M254.86 369.83C258.718 369.831 262.538 369.073 266.102 367.597C269.667 366.122 272.906 363.959 275.634 361.231C278.363 358.504 280.527 355.266 282.003 351.702C283.48 348.138 284.24 344.318 284.24 340.46V29.38C284.24 21.5879 281.145 14.115 275.635 8.6052C270.125 3.09538 262.652 0 254.86 0L30.24 0C22.4479 0 14.975 3.09538 9.46519 8.6052C3.95537 14.115 0.859985 21.5879 0.859985 29.38L0.859985 340.46C0.859985 344.318 1.61999 348.138 3.0966 351.702C4.57321 355.266 6.73748 358.504 9.46579 361.231C12.1941 363.959 15.433 366.122 18.9975 367.597C22.562 369.073 26.3822 369.831 30.24 369.83H254.86ZM18.49 340.46V29.38C18.4926 26.2645 19.7314 23.2774 21.9344 21.0744C24.1374 18.8714 27.1245 17.6326 30.24 17.63H254.86C257.976 17.6326 260.965 18.8711 263.169 21.0738C265.374 23.2765 266.615 26.2636 266.62 29.38V340.46C266.615 343.576 265.374 346.564 263.169 348.766C260.965 350.969 257.976 352.207 254.86 352.21H30.24C27.1245 352.207 24.1374 350.969 21.9344 348.766C19.7314 346.563 18.4926 343.575 18.49 340.46V340.46Z"
              fill="#1E2B3C"/>
        <path d="M91.97 261.81C99.7894 261.824 107.365 259.088 113.37 254.08L147.79 269.78C148.063 277.98 151.341 285.794 156.999 291.736C162.658 297.677 170.303 301.331 178.48 302.004C186.657 302.676 194.796 300.32 201.35 295.383C207.903 290.445 212.413 283.272 214.022 275.226C215.631 267.181 214.227 258.825 210.077 251.747C205.927 244.669 199.32 239.363 191.513 236.839C183.706 234.314 175.244 234.747 167.735 238.055C160.227 241.363 154.196 247.316 150.79 254.78L122.56 241.93C125.944 234.303 126.361 225.688 123.73 217.77L152.23 204.77C156.283 211.802 162.755 217.12 170.439 219.733C178.124 222.347 186.496 222.077 193.996 218.975C201.496 215.872 207.612 210.149 211.205 202.87C214.797 195.592 215.621 187.256 213.523 179.416C211.424 171.575 206.546 164.765 199.798 160.255C193.05 155.745 184.893 153.842 176.846 154.901C168.799 155.96 161.411 159.908 156.06 166.011C150.709 172.113 147.759 179.954 147.76 188.07C147.76 188.87 147.76 189.65 147.85 190.43L115.94 205C112.087 201.049 107.317 198.112 102.055 196.451C96.7919 194.791 91.2002 194.457 85.7775 195.481C80.3548 196.504 75.2694 198.853 70.9745 202.318C66.6795 205.784 63.3082 210.257 61.161 215.341C59.0137 220.424 58.1572 225.96 58.6676 231.455C59.1781 236.95 61.0396 242.233 64.0865 246.834C67.1334 251.435 71.271 255.211 76.1308 257.826C80.9905 260.441 86.4215 261.813 91.94 261.82L91.97 261.81ZM181.23 169.48C184.911 169.48 188.51 170.572 191.57 172.617C194.631 174.662 197.016 177.569 198.424 180.971C199.833 184.372 200.201 188.114 199.482 191.724C198.763 195.335 196.989 198.651 194.386 201.253C191.782 203.855 188.465 205.627 184.854 206.344C181.244 207.061 177.502 206.691 174.101 205.281C170.701 203.87 167.795 201.484 165.751 198.422C163.708 195.36 162.618 191.761 162.62 188.08C162.628 183.148 164.591 178.42 168.08 174.933C171.569 171.446 176.298 169.485 181.23 169.48V169.48ZM181.23 250C184.911 250 188.509 251.091 191.569 253.136C194.63 255.181 197.015 258.088 198.423 261.488C199.832 264.889 200.2 268.631 199.482 272.241C198.764 275.851 196.992 279.167 194.389 281.769C191.787 284.372 188.471 286.144 184.861 286.862C181.251 287.58 177.509 287.212 174.108 285.803C170.708 284.395 167.801 282.01 165.756 278.949C163.711 275.889 162.62 272.291 162.62 268.61C162.625 263.676 164.588 258.945 168.077 255.457C171.565 251.968 176.296 250.005 181.23 250ZM91.97 209.74C95.6515 209.738 99.251 210.828 102.313 212.872C105.375 214.916 107.762 217.823 109.171 221.224C110.581 224.625 110.951 228.367 110.233 231.978C109.515 235.589 107.742 238.906 105.139 241.509C102.536 244.113 99.2191 245.885 95.6082 246.603C91.9972 247.321 88.2546 246.951 84.8536 245.541C81.4527 244.132 78.5463 241.745 76.5022 238.683C74.458 235.621 73.368 232.022 73.37 228.34C73.3779 223.409 75.3401 218.683 78.8266 215.197C82.313 211.71 87.0394 209.748 91.97 209.74V209.74Z"
              fill="#1E2B3C"/>
    </g>
    <defs>
        <clipPath id="clip0_613_1667">
            <rect width="283.37" height="369.83" fill="white" transform="translate(0.859985)"/>
        </clipPath>
    </defs>
</svg>
