<svg width="376" height="376" viewBox="0 0 376 376" fill="none" xmlns="http://www.w3.org/2000/svg">
    <g clip-path="url(#clip0_613_1675)">
        <path d="M142.79 346.26C142.801 354.077 145.911 361.571 151.44 367.097C156.968 372.624 164.463 375.732 172.28 375.74H346.05C353.867 375.732 361.362 372.624 366.89 367.097C372.419 361.571 375.529 354.077 375.54 346.26V29.48C375.529 21.6629 372.419 14.1692 366.89 8.64265C361.362 3.11609 353.867 0.00793701 346.05 0H172.28C164.463 0.00793701 156.968 3.11609 151.44 8.64265C145.911 14.1692 142.801 21.6629 142.79 29.48V121.34H0.22998V289.92H142.79V346.26ZM18.07 155.5L141.69 249.34L270.88 151.27V272.08H18.07V155.5ZM357.7 346.26C357.695 349.347 356.465 352.306 354.281 354.488C352.097 356.67 349.137 357.897 346.05 357.9H172.28C169.192 357.9 166.23 356.674 164.046 354.491C161.861 352.309 160.633 349.348 160.63 346.26V289.92H288.71V121.34H160.63V29.48C160.633 26.392 161.861 23.4313 164.046 21.2487C166.23 19.066 169.192 17.84 172.28 17.84H346.05C349.137 17.8426 352.097 19.0695 354.281 21.2516C356.465 23.4337 357.695 26.3928 357.7 29.48V346.26ZM258.48 136.78L141.69 225.44L24.9 136.78H258.48Z"
              fill="#1E2B3C"/>
        <path d="M288.51 45.63H229.81V63.26H288.51V45.63Z" fill="#1E2B3C"/>
    </g>
    <defs>
        <clipPath id="clip0_613_1675">
            <rect width="375.31" height="375.74" fill="white" transform="translate(0.22998)"/>
        </clipPath>
    </defs>
</svg>
