<svg width="284" height="370" viewBox="0 0 284 370" fill="none" xmlns="http://www.w3.org/2000/svg">
<g clip-path="url(#clip0_613_1691)">
<path d="M29.8101 369.83H254.43C258.288 369.831 262.108 369.073 265.673 367.597C269.237 366.122 272.476 363.959 275.204 361.231C277.933 358.504 280.097 355.266 281.573 351.702C283.05 348.138 283.81 344.318 283.81 340.46V29.38C283.81 21.5879 280.715 14.115 275.205 8.6052C269.695 3.09538 262.222 0 254.43 0L29.8101 0C22.018 0 14.5451 3.09538 9.03526 8.6052C3.52544 14.115 0.430054 21.5879 0.430054 29.38L0.430054 340.46C0.430053 344.318 1.19006 348.138 2.66667 351.702C4.14327 355.266 6.30755 358.504 9.03586 361.231C11.7642 363.959 15.0031 366.122 18.5676 367.597C22.1321 369.073 25.9523 369.831 29.8101 369.83V369.83ZM18.0601 29.38C18.0627 26.2645 19.3015 23.2774 21.5045 21.0744C23.7075 18.8714 26.6946 17.6326 29.8101 17.63H254.43C257.546 17.6326 260.535 18.8711 262.739 21.0738C264.944 23.2765 266.185 26.2636 266.19 29.38V340.46C266.185 343.576 264.944 346.564 262.739 348.766C260.535 350.969 257.546 352.207 254.43 352.21H29.8101C26.6946 352.207 23.7075 350.969 21.5045 348.766C19.3015 346.563 18.0627 343.575 18.0601 340.46V29.38Z" fill="#1E2B3C"/>
<path d="M142.11 94.7H58.4601V112.33H142.11V94.7Z" fill="#1E2B3C"/>
<path d="M142.11 251.36H58.4601V268.99H142.11V251.36Z" fill="#1E2B3C"/>
<path d="M208.21 146.92H58.4601V164.55H208.21V146.92Z" fill="#1E2B3C"/>
<path d="M208.21 199.14H58.4601V216.77H208.21V199.14Z" fill="#1E2B3C"/>
</g>
<defs>
<clipPath id="clip0_613_1691">
<rect width="283.37" height="369.83" fill="white" transform="translate(0.430054)"/>
</clipPath>
</defs>
</svg>
