<svg width="326" height="370" viewBox="0 0 326 370" fill="none" xmlns="http://www.w3.org/2000/svg">
    <g clip-path="url(#clip0_613_1682)">
        <path d="M29.92 369.83H254.54C258.398 369.831 262.218 369.073 265.783 367.597C269.347 366.122 272.586 363.959 275.314 361.231C278.043 358.504 280.207 355.266 281.683 351.702C283.16 348.138 283.92 344.318 283.92 340.46V99.4H321.86C322.81 99.4 323.72 99.0228 324.391 98.3514C325.063 97.6801 325.44 96.7695 325.44 95.82V29.35C325.44 21.9409 322.636 14.8063 317.593 9.3788C312.549 3.95132 305.639 0.632929 298.25 0.09V0H29.92C22.128 0 14.6551 3.09538 9.14524 8.6052C3.63542 14.115 0.540039 21.5879 0.540039 29.38L0.540039 340.46C0.540039 344.318 1.30005 348.138 2.77665 351.702C4.25326 355.266 6.41753 358.504 9.14585 361.231C11.8742 363.959 15.1131 366.122 18.6776 367.597C22.242 369.073 26.0623 369.831 29.92 369.83V369.83ZM18.17 29.38C18.1727 26.2645 19.4115 23.2774 21.6145 21.0744C23.8174 18.8714 26.8046 17.6326 29.92 17.63H254.54C257.656 17.6326 260.645 18.8711 262.849 21.0738C265.054 23.2765 266.295 26.2636 266.3 29.38V340.46C266.295 343.576 265.054 346.564 262.849 348.766C260.645 350.969 257.656 352.207 254.54 352.21H29.92C26.8046 352.207 23.8174 350.969 21.6145 348.766C19.4115 346.563 18.1727 343.575 18.17 340.46V29.38ZM307.81 29.38V81.77H284.36V29.35C284.449 26.2996 285.724 23.404 287.913 21.2779C290.102 19.1517 293.033 17.9625 296.085 17.9625C299.137 17.9625 302.068 19.1517 304.257 21.2779C306.447 23.404 307.721 26.2996 307.81 29.35V29.38Z"
              fill="#1E2B3C"/>
        <path d="M142.22 94.7H58.5701V112.33H142.22V94.7Z" fill="#1E2B3C"/>
        <path d="M142.22 251.36H58.5701V268.99H142.22V251.36Z" fill="#1E2B3C"/>
        <path d="M208.33 146.92H58.5701V164.55H208.33V146.92Z" fill="#1E2B3C"/>
        <path d="M208.33 199.14H58.5701V216.77H208.33V199.14Z" fill="#1E2B3C"/>
    </g>
    <defs>
        <clipPath id="clip0_613_1682">
            <rect width="324.89" height="369.83" fill="white" transform="translate(0.540039)"/>
        </clipPath>
    </defs>
</svg>
