<svg width="334" height="333" viewBox="0 0 334 333" fill="none" xmlns="http://www.w3.org/2000/svg">
<g clip-path="url(#clip0_613_1710)">
<path d="M333.64 320.23L231.03 217.61C253.452 191.935 265.023 158.554 263.301 124.51C261.579 90.4662 246.699 58.4229 221.8 35.1419C196.901 11.8609 163.932 -0.83676 129.849 -0.271519C95.7668 0.293723 63.2367 14.0776 39.1237 38.1715C15.0108 62.2653 1.20111 94.7845 0.608853 128.867C0.0165947 162.949 12.6881 195.928 35.9494 220.845C59.2106 245.762 91.2422 260.668 125.285 262.417C159.327 264.166 192.718 252.622 218.41 230.22L321.03 332.84L333.64 320.23ZM132.1 17.63C154.582 17.63 176.56 24.2969 195.253 36.7875C213.946 49.2782 228.515 67.0316 237.118 87.8027C245.722 108.574 247.972 131.43 243.585 153.48C239.198 175.53 228.371 195.784 212.473 211.68C196.575 227.577 176.32 238.402 154.27 242.787C132.219 247.172 109.364 244.919 88.5935 236.315C67.8232 227.71 50.0711 213.139 37.5821 194.444C25.0931 175.75 18.4281 153.772 18.4301 131.29C18.4671 101.155 30.4553 72.2653 51.7648 50.9576C73.0743 29.65 101.965 17.6644 132.1 17.63Z" fill="#1E2B3C"/>
</g>
<defs>
<clipPath id="clip0_613_1710">
<rect width="332.84" height="332.84" fill="white" transform="translate(0.800049)"/>
</clipPath>
</defs>
</svg>
