<svg width="455" height="364" viewBox="0 0 455 364" fill="none" xmlns="http://www.w3.org/2000/svg">
    <g clip-path="url(#clip0_613_1699)">
        <path d="M378.83 103.82L346.18 126.68H318.73C318.67 126.68 276.25 109.26 227.3 109.26C178.35 109.26 136.48 126.65 136.42 126.68H110.01L77.3701 103.82L44.1701 126.68H0.640137V363.3H454.48V126.68H411.48L378.83 103.82ZM436.83 345.67H318.73V144.31H351.73L356.29 141.12L378.83 125.34L401.37 141.12L405.93 144.31H436.85L436.83 345.67ZM18.2701 144.31H49.6401L54.1601 141.2L77.2701 125.28L99.8901 141.12L104.45 144.31H136.45V345.67H18.2701V144.31ZM301.1 139.15V345.67H154.1V139.09C168.77 134.33 196.62 126.89 227.35 126.89C258.08 126.89 286.23 134.39 301.1 139.15Z"
              fill="#1E2B3C"/>
        <path d="M236.12 0H218.49V109.26H236.12V0Z" fill="#1E2B3C"/>
        <path d="M77.3702 184.47C68.7102 184.47 61.7802 191.18 61.2502 200.16V266.76H93.4702V200.07C93.3254 195.892 91.5673 191.933 88.5652 189.024C85.563 186.115 81.5505 184.483 77.3702 184.47Z"
              fill="#1E2B3C"/>
        <path d="M196.83 185.94C193.023 185.951 189.369 187.44 186.638 190.092C183.906 192.745 182.312 196.355 182.19 200.16V265.29H211.47V200.16C211.346 196.355 209.751 192.747 207.02 190.095C204.29 187.443 200.637 185.954 196.83 185.94V185.94Z"
              fill="#1E2B3C"/>
        <path d="M274.64 200.16C274.5 196.371 272.896 192.784 270.166 190.152C267.436 187.521 263.792 186.051 260 186.051C256.208 186.051 252.564 187.521 249.834 190.152C247.104 192.784 245.5 196.371 245.36 200.16V265.29H274.64V200.16Z"
              fill="#1E2B3C"/>
        <path d="M383.19 184.47C380.629 184.464 378.105 185.074 375.83 186.25C372.62 186.946 369.733 188.691 367.626 191.21C365.518 193.728 364.309 196.878 364.19 200.16V265.29H367.09V266.76H399.31V200.07C399.158 195.891 397.395 191.934 394.39 189.026C391.385 186.118 387.372 184.485 383.19 184.47V184.47Z"
              fill="#1E2B3C"/>
    </g>
    <defs>
        <clipPath id="clip0_613_1699">
            <rect width="453.84" height="363.3" fill="white" transform="translate(0.640137)"/>
        </clipPath>
    </defs>
</svg>
