<svg width="367" height="305" viewBox="0 0 367 305" fill="none" xmlns="http://www.w3.org/2000/svg">
    <g clip-path="url(#clip0_613_1714)">
        <path d="M194.52 118.17H176.89V168.84H126.2V186.47H176.89V237.15H194.52V186.47H245.2V168.84H194.52V118.17Z"
              fill="#1E2B3C"/>
        <path d="M337.57 51.12H276.01V38.19C275.997 28.062 271.966 18.3529 264.803 11.1931C257.639 4.03343 247.928 0.00793697 237.8 0L121.3 0C111.176 0.0105929 101.469 4.03789 94.3111 11.1979C87.1529 18.3579 83.1282 28.0655 83.1202 38.19V51.12H29.8502C22.0599 51.1227 14.5895 54.2192 9.08189 59.7287C3.57424 65.2383 0.480224 72.7097 0.480225 80.5L0.480225 274.81C0.480224 282.6 3.57424 290.072 9.08189 295.581C14.5895 301.091 22.0599 304.187 29.8502 304.19H337.57C341.428 304.19 345.248 303.43 348.812 301.953C352.376 300.477 355.614 298.313 358.341 295.584C361.069 292.856 363.232 289.617 364.707 286.052C366.183 282.488 366.942 278.668 366.94 274.81V80.5C366.942 76.6422 366.183 72.822 364.707 69.2575C363.232 65.693 361.069 62.4541 358.341 59.7258C355.614 56.9975 352.376 54.8332 348.812 53.3566C345.248 51.88 341.428 51.12 337.57 51.12V51.12ZM349.33 274.81C349.325 277.927 348.084 280.915 345.88 283.12C343.676 285.324 340.688 286.565 337.57 286.57H29.8502C26.7347 286.565 23.7487 285.323 21.5476 283.118C19.3465 280.914 18.1102 277.925 18.1102 274.81V80.5C18.1129 77.3862 19.3503 74.4006 21.5511 72.1979C23.7519 69.9953 26.7365 68.7553 29.8502 68.75H337.57C340.686 68.7553 343.672 69.9946 345.876 72.1967C348.08 74.3988 349.322 77.3844 349.33 80.5V274.81ZM100.74 38.19C100.748 32.7396 102.917 27.5147 106.771 23.6607C110.625 19.8066 115.85 17.6379 121.3 17.63H237.8C243.254 17.6326 248.484 19.799 252.342 23.6536C256.201 27.5082 258.372 32.7361 258.38 38.19V51.12H100.74V38.19Z"
              fill="#1E2B3C"/>
    </g>
    <defs>
        <clipPath id="clip0_613_1714">
            <rect width="366.46" height="304.19" fill="white" transform="translate(0.480225)"/>
        </clipPath>
    </defs>
</svg>
