<svg width="264" height="263" viewBox="0 0 264 263" fill="none" xmlns="http://www.w3.org/2000/svg">
<g clip-path="url(#clip0_613_1720)">
<path d="M132.23 3.80871e-07C106.261 4.56189e-07 80.8752 7.70086 59.2828 22.1287C37.6904 36.5566 20.8614 57.0635 10.9239 81.056C0.986403 105.048 -1.61319 131.449 3.45386 156.919C8.52091 182.389 21.027 205.784 39.3907 224.147C57.7543 242.509 81.1506 255.013 106.621 260.078C132.091 265.143 158.492 262.542 182.483 252.603C206.475 242.663 226.981 225.833 241.407 204.239C255.833 182.646 263.532 157.259 263.53 131.29C263.53 114.048 260.134 96.9747 253.535 81.0452C246.937 65.1157 237.265 50.642 225.073 38.4504C212.88 26.2589 198.406 16.5883 182.476 9.99099C166.546 3.39363 149.472 -0.0013129 132.23 3.80871e-07V3.80871e-07ZM132.23 245C109.752 244.992 87.7804 238.32 69.0936 225.826C50.4068 213.333 35.8437 195.58 27.2452 174.811C18.6467 154.042 16.3991 131.19 20.7863 109.144C25.1736 87.0982 35.9988 66.8478 51.8934 50.9532C67.788 35.0586 88.0384 24.2334 110.085 19.8461C132.131 15.4588 154.983 17.7065 175.751 26.305C196.52 34.9034 214.273 49.4666 226.767 68.1534C239.26 86.8402 245.932 108.812 245.94 131.29C245.919 161.441 233.932 190.352 212.612 211.672C191.292 232.992 162.381 244.979 132.23 245V245Z" fill="#1E2B3C"/>
<path d="M114.72 152.14L87.6202 125.06L75.1602 137.53L114.72 177.07L198.47 93.31L186.01 80.85L114.72 152.14Z" fill="#1E2B3C"/>
</g>
<defs>
<clipPath id="clip0_613_1720">
<rect width="262.59" height="262.59" fill="white" transform="translate(0.940186)"/>
</clipPath>
</defs>
</svg>
