<svg width="433" height="347" viewBox="0 0 433 347" fill="none" xmlns="http://www.w3.org/2000/svg">
    <g clip-path="url(#clip0_613_1725)">
        <path d="M93.0202 301.66C94.5903 303.223 96.4529 304.461 98.5017 305.303C100.55 306.146 102.745 306.576 104.96 306.57H105.05L140.28 306.4C144.78 306.371 149.085 304.559 152.251 301.361C155.417 298.163 157.186 293.84 157.17 289.34L156.53 161.93C156.512 157.433 154.712 153.127 151.526 149.954C148.34 146.781 144.027 145 139.53 145V145L104.3 145.18C99.802 145.209 95.4986 147.02 92.3328 150.216C89.167 153.411 87.3969 157.732 87.4102 162.23L88.0402 289.64C88.0322 291.874 88.4683 294.087 89.3233 296.15C90.1782 298.214 91.4349 300.087 93.0202 301.66V301.66ZM138.92 162.66L139.54 288.76L105.61 288.93L104.99 162.83L138.92 162.66Z"
              fill="#1E2B3C"/>
        <path d="M185.12 301.21C186.69 302.773 188.553 304.011 190.602 304.853C192.65 305.696 194.845 306.126 197.06 306.12H197.15L232.38 305.94C236.879 305.911 241.182 304.1 244.348 300.904C247.514 297.709 249.284 293.388 249.27 288.89L248.27 87.75C248.273 85.5184 247.833 83.3084 246.974 81.2484C246.116 79.1884 244.857 77.3194 243.27 75.75C240.012 72.6913 235.738 70.946 231.27 70.85L195.99 71C191.501 71.0291 187.205 72.8329 184.041 76.0179C180.876 79.2029 179.1 83.5103 179.1 88L180.1 289.14C180.093 291.385 180.533 293.608 181.395 295.68C182.257 297.753 183.524 299.633 185.12 301.21V301.21ZM230.66 88.5L231.66 288.32L197.74 288.49L196.74 88.65L230.66 88.5Z"
              fill="#1E2B3C"/>
        <path d="M293.76 305.64H293.85L329.09 305.47C333.589 305.441 337.892 303.63 341.058 300.434C344.224 297.239 345.994 292.918 345.98 288.42L344.72 32C344.691 27.5104 342.887 23.2146 339.702 20.0502C336.517 16.8859 332.21 15.1099 327.72 15.11H327.63L292.4 15.28C287.909 15.3143 283.614 17.1247 280.453 20.3155C277.292 23.5064 275.522 27.8185 275.53 32.31L276.78 288.75C276.809 293.236 278.61 297.529 281.791 300.693C284.972 303.857 289.274 305.635 293.76 305.64V305.64ZM327.1 32.71L328.35 287.85L294.42 288.01L293.17 32.88L327.1 32.71Z"
              fill="#1E2B3C"/>
        <path d="M19.7703 329.24L18.1603 0L0.530273 0.08L2.23027 346.95L432.7 344.85L432.62 327.22L19.7703 329.24Z"
              fill="#1E2B3C"/>
    </g>
    <defs>
        <clipPath id="clip0_613_1725">
            <rect width="432.17" height="346.95" fill="white" transform="translate(0.530273)"/>
        </clipPath>
    </defs>
</svg>
