<svg width="394" height="374" viewBox="0 0 394 374" fill="none" xmlns="http://www.w3.org/2000/svg">
<g clip-path="url(#clip0_613_1735)">
<path d="M372 273.36H358.22V182.89H205.71V100.55H225C230.779 100.537 236.318 98.2344 240.404 94.1468C244.49 90.0592 246.789 84.5194 246.8 78.74V22.55C246.792 16.7698 244.493 11.2284 240.407 7.14028C236.32 3.05212 230.78 0.750571 225 0.73999L168.82 0.73999C163.036 0.745281 157.491 3.04449 153.4 7.13323C149.31 11.222 147.008 16.7663 147 22.55V78.74C147.008 84.5246 149.309 90.07 153.4 94.1603C157.49 98.2506 163.035 100.552 168.82 100.56H188.09V182.9H35.58V273.37H21.82C16.0371 273.378 10.4933 275.678 6.40322 279.766C2.31318 283.854 0.010581 289.397 0 295.18L0 351.35C0.00793679 357.135 2.30937 362.68 6.3997 366.77C10.49 370.861 16.0354 373.162 21.82 373.17H78C83.7811 373.157 89.3214 370.853 93.4074 366.763C97.4934 362.673 99.7921 357.131 99.8 351.35V295.18C99.7921 289.399 97.4934 283.856 93.4074 279.767C89.3214 275.677 83.7811 273.373 78 273.36H53.21V200.51H188.09V273.36H168.82C163.035 273.368 157.49 275.669 153.4 279.76C149.309 283.85 147.008 289.395 147 295.18V351.35C147.008 357.135 149.309 362.68 153.4 366.77C157.49 370.861 163.035 373.162 168.82 373.17H225C230.785 373.162 236.33 370.861 240.42 366.77C244.511 362.68 246.812 357.135 246.82 351.35V295.18C246.812 289.395 244.511 283.85 240.42 279.76C236.33 275.669 230.785 273.368 225 273.36H205.71V200.51H340.59V273.36H315.81C310.027 273.371 304.484 275.673 300.396 279.763C296.308 283.853 294.008 289.397 294 295.18V351.35C294.008 357.135 296.309 362.68 300.4 366.77C304.49 370.861 310.035 373.162 315.82 373.17H372C377.785 373.162 383.33 370.861 387.42 366.77C391.511 362.68 393.812 357.135 393.82 351.35V295.18C393.812 289.395 391.511 283.85 387.42 279.76C383.33 275.669 377.785 273.368 372 273.36V273.36ZM164.62 78.74V22.55C164.625 21.4395 165.07 20.3764 165.857 19.5931C166.644 18.8097 167.71 18.37 168.82 18.37H225C226.11 18.37 227.174 18.8101 227.959 19.5937C228.745 20.3773 229.187 21.4405 229.19 22.55V78.74C229.185 79.8487 228.741 80.9103 227.956 81.6934C227.171 82.4764 226.109 82.9174 225 82.92H168.82C167.71 82.92 166.644 82.4802 165.857 81.6969C165.07 80.9136 164.625 79.8504 164.62 78.74V78.74ZM82.17 295.18V351.35C82.1674 352.457 81.7278 353.518 80.947 354.303C80.1661 355.087 79.107 355.532 78 355.54H21.82C20.7096 355.537 19.6453 355.095 18.8601 354.31C18.0749 353.525 17.6326 352.46 17.63 351.35V295.18C17.6326 294.07 18.0749 293.005 18.8601 292.22C19.6453 291.435 20.7096 290.993 21.82 290.99H78C79.107 290.998 80.1661 291.443 80.947 292.227C81.7278 293.012 82.1674 294.073 82.17 295.18V295.18ZM229.17 295.18V351.35C229.167 352.457 228.728 353.518 227.947 354.303C227.166 355.087 226.107 355.532 225 355.54H168.82C167.708 355.54 166.641 355.099 165.854 354.313C165.066 353.528 164.623 352.462 164.62 351.35V295.18C164.623 294.068 165.066 293.002 165.854 292.217C166.641 291.431 167.708 290.99 168.82 290.99H225C226.107 290.998 227.166 291.443 227.947 292.227C228.728 293.012 229.167 294.073 229.17 295.18V295.18ZM376.17 351.35C376.167 352.457 375.728 353.518 374.947 354.303C374.166 355.087 373.107 355.532 372 355.54H315.81C314.7 355.537 313.635 355.095 312.85 354.31C312.065 353.525 311.623 352.46 311.62 351.35V295.18C311.623 294.07 312.065 293.005 312.85 292.22C313.635 291.435 314.7 290.993 315.81 290.99H372C373.11 290.993 374.175 291.435 374.96 292.22C375.745 293.005 376.187 294.07 376.19 295.18L376.17 351.35Z" fill="#1E2B3C"/>
</g>
<defs>
<clipPath id="clip0_613_1735">
<rect width="393.79" height="372.43" fill="white" transform="translate(0 0.73999)"/>
</clipPath>
</defs>
</svg>
