<svg width="304" height="521" viewBox="0 0 304 521" fill="none" xmlns="http://www.w3.org/2000/svg">
<g clip-path="url(#clip0_613_1746)">
<path d="M11.12 418.19L93.18 353.74C93.28 355 93.34 355.74 93.34 355.74L93.98 363.96H108.09V412.02H195.95V363.87H210.06L210.7 355.65C210.7 355.65 210.75 354.97 210.85 353.65L292.91 418.14L296.61 405.46C328.29 296.77 243.04 235.36 221.16 221.68C221.52 217.14 221.86 212.68 222.16 208.42C231.45 88.05 185.84 29.74 157.82 5.73999L152.02 0.73999L146.21 5.73999C118.21 29.74 72.57 88.07 81.84 208.49C82.17 212.78 82.52 217.22 82.84 221.76C60.98 235.42 -24.25 296.83 7.45003 405.51L11.12 418.19ZM152.02 24.56C177.45 49.21 212.45 102.74 204.45 207.1C200.71 255.56 195.45 322.87 193.61 346.03H160.94V271.65H143.1V346.03H110.45C108.63 322.87 103.34 255.56 99.6 207.1C91.59 102.74 126.59 49.21 152.02 24.56ZM282.72 387.5L212.53 332.34C214.28 310.03 217.03 274.97 219.6 241.89C244.65 259.26 299.27 307.29 282.72 387.5ZM178.11 394.09H125.93V363.87H178.11V394.09ZM91.5 332.34L21.31 387.5C4.76004 307.29 59.38 259.26 84.45 241.9C87 274.97 89.75 310.03 91.5 332.34Z" fill="#1E2B3C"/>
<path d="M139.58 424.35L121.89 422.03C121.89 422.03 118.89 444.49 116.98 459.71C112.27 496.24 137.07 513.16 147.98 518.71L152.05 520.79L156.12 518.71C167 513.13 191.79 496.21 187.12 459.71C185.17 444.49 182.21 422.03 182.21 422.03L164.45 424.36C164.45 424.36 167.45 446.79 169.36 461.98C171.99 482.43 162.19 494.06 152.01 500.54C141.82 494.07 132.01 482.44 134.65 461.98C136.63 446.79 139.58 424.36 139.58 424.35Z" fill="#1E2B3C"/>
<path d="M152.02 184.64C157.3 184.638 162.462 183.07 166.851 180.135C171.241 177.2 174.661 173.03 176.681 168.151C178.7 163.272 179.227 157.904 178.196 152.725C177.164 147.546 174.621 142.79 170.886 139.057C167.152 135.324 162.394 132.782 157.215 131.752C152.036 130.723 146.668 131.252 141.79 133.273C136.912 135.295 132.743 138.717 129.809 143.107C126.876 147.498 125.31 152.66 125.31 157.94C125.31 161.447 126.001 164.92 127.343 168.16C128.686 171.4 130.653 174.344 133.134 176.823C135.614 179.303 138.559 181.269 141.799 182.61C145.04 183.952 148.513 184.641 152.02 184.64V184.64Z" fill="#1E2B3C"/>
</g>
<defs>
<clipPath id="clip0_613_1746">
<rect width="303.13" height="520.08" fill="white" transform="translate(0.450012 0.73999)"/>
</clipPath>
</defs>
</svg>
