<svg width="372" height="373" viewBox="0 0 372 373" fill="none" xmlns="http://www.w3.org/2000/svg">
<g clip-path="url(#clip0_613_1755)">
<path d="M371.86 166.92C370.86 155.33 361 145.39 349.46 144.31C349.26 144.31 329.65 142.13 324.31 129.23C318.97 116.33 331.31 100.94 331.42 100.81C335.015 96.2738 336.96 90.65 336.936 84.8622C336.913 79.0744 334.922 73.4667 331.29 68.96L304.29 41.89L303.67 41.32C294.74 33.95 280.75 33.93 271.82 41.32C271.68 41.45 256.3 53.78 243.42 48.4C230.54 43.02 228.35 23.52 228.34 23.4C227.689 17.6378 225.111 12.2646 221.023 8.15151C216.935 4.03844 211.578 1.42677 205.82 0.73999L205.39 0.73999H167.51H166.75C155.16 1.73999 145.23 11.61 144.15 23.14C144.15 23.34 141.98 42.95 129.06 48.3C116.14 53.65 100.78 41.3 100.65 41.19C96.1123 37.5945 90.4868 35.6488 84.6973 35.6725C78.9078 35.6961 73.2984 37.6876 68.7901 41.32L41.7301 68.32L41.1601 68.93C37.5759 73.4682 35.6263 79.0821 35.6263 84.865C35.6263 90.6478 37.5759 96.2618 41.1601 100.8C41.2801 100.96 53.5301 116.36 48.2201 129.19C42.9101 142.02 23.3301 144.25 23.2201 144.27C17.4503 144.927 12.0726 147.517 7.96193 151.618C3.85124 155.72 1.24951 161.092 0.580078 166.86L0.580078 167.28V205.16V205.92C1.19869 211.668 3.75245 217.036 7.82251 221.143C11.8926 225.249 17.2373 227.85 22.9801 228.52C23.1801 228.52 42.8001 230.69 48.1401 243.61C53.4801 256.53 41.1401 271.89 41.0301 272.03C37.4337 276.565 35.4873 282.19 35.511 287.978C35.5346 293.766 37.5268 299.374 41.1601 303.88L68.1601 330.94L68.7801 331.51C77.7201 338.89 91.7201 338.9 100.62 331.51C100.78 331.38 116.16 319.1 129.03 324.43C141.9 329.76 144.09 349.32 144.11 349.49C144.79 355.232 147.385 360.577 151.477 364.663C155.568 368.749 160.917 371.337 166.66 372.01H167.08H204.95H205.72C211.475 371.39 216.847 368.83 220.954 364.752C225.061 360.674 227.659 355.32 228.32 349.57C228.32 349.37 230.55 329.77 243.41 324.45C256.27 319.13 271.68 331.45 271.81 331.55C276.343 335.149 281.966 337.099 287.754 337.079C293.543 337.059 299.152 335.07 303.66 331.44L330.74 304.44L331.3 303.82C338.69 294.89 338.7 280.89 331.35 271.98C331.22 271.82 318.93 256.46 324.26 243.57C329.59 230.68 349.17 228.51 349.33 228.49C360.85 227.39 370.74 217.49 371.85 205.95L371.9 205.52L371.85 167.63L371.86 166.92ZM347.69 210.98C346.46 211.09 317.43 214.14 308.02 236.85C298.61 259.56 317.02 282.24 317.76 283.2C318.704 284.532 319.227 286.117 319.263 287.749C319.299 289.382 318.845 290.988 317.96 292.36L292.15 318.13C290.8 319.019 289.214 319.481 287.599 319.456C285.983 319.431 284.412 318.92 283.09 317.99C282.09 317.2 259.45 298.76 236.69 308.18C213.93 317.6 210.93 346.74 210.82 347.94C210.549 349.534 209.8 351.009 208.674 352.169C207.547 353.33 206.096 354.121 204.51 354.44H168.05C166.451 354.096 164.992 353.281 163.858 352.102C162.725 350.923 161.97 349.431 161.69 347.82C161.58 346.59 158.53 317.57 135.81 308.17C131.484 306.378 126.843 305.466 122.16 305.49C104.79 305.49 90.2401 317.28 89.4801 317.9C88.1466 318.846 86.5603 319.371 84.9258 319.406C83.2912 319.442 81.6835 318.987 80.3101 318.1L54.5801 292.31C53.6869 290.964 53.2222 289.379 53.2472 287.763C53.2722 286.148 53.7857 284.578 54.7201 283.26C55.5001 282.26 73.9601 259.6 64.5301 236.86C55.1001 214.12 25.9801 211.09 24.7401 210.98C23.1458 210.708 21.6713 209.96 20.5109 208.834C19.3505 207.707 18.5588 206.255 18.2401 204.67V168.21C18.5857 166.611 19.4017 165.152 20.5832 164.02C21.7646 162.889 23.2576 162.136 24.8701 161.86C26.0701 161.74 55.0801 158.74 64.4901 135.98C73.9001 113.22 55.4901 90.59 54.7401 89.63C53.804 88.2909 53.2887 86.703 53.2602 85.0694C53.2317 83.4358 53.6913 81.8309 54.5801 80.46L80.3601 54.74C81.7073 53.8446 83.2944 53.3787 84.9118 53.4037C86.5293 53.4286 88.1011 53.9434 89.4201 54.88C90.4201 55.67 113.09 74.09 135.81 64.68C158.53 55.27 161.58 26.12 161.69 24.88C161.965 23.2894 162.715 21.8192 163.841 20.6627C164.968 19.5061 166.417 18.7174 168 18.4H204.45C206.048 18.7456 207.507 19.5602 208.64 20.7394C209.773 21.9187 210.529 23.4091 210.81 25.02C210.93 26.25 213.98 55.27 236.69 64.67C259.4 74.07 282.09 55.67 283.03 54.93C284.368 53.9888 285.957 53.4688 287.593 53.4367C289.228 53.4047 290.836 53.862 292.21 54.75L317.97 80.55C318.852 81.891 319.311 83.4665 319.286 85.0715C319.261 86.6766 318.754 88.237 317.83 89.55C317.04 90.55 298.59 113.2 308.02 135.96C317.45 158.72 346.58 161.74 347.77 161.85C349.363 162.121 350.837 162.868 351.997 163.992C353.157 165.117 353.95 166.566 354.27 168.15V204.61C353.926 206.204 353.118 207.659 351.947 208.793C350.775 209.927 349.294 210.688 347.69 210.98V210.98Z" fill="#1E2B3C"/>
<path d="M215.29 116.33C203.765 111.558 191.24 109.702 178.826 110.926C166.412 112.15 154.492 116.417 144.12 123.348C133.749 130.279 125.246 139.661 119.367 150.662C113.487 161.664 110.411 173.946 110.411 186.42C110.411 198.894 113.487 211.176 119.367 222.178C125.246 233.179 133.749 242.561 144.12 249.492C154.492 256.423 166.412 260.69 178.826 261.914C191.24 263.138 203.765 261.282 215.29 256.51V256.51C229.151 250.768 240.999 241.045 249.334 228.57C257.669 216.095 262.118 201.428 262.118 186.425C262.118 171.421 257.669 156.755 249.334 144.28C240.999 131.805 229.151 122.082 215.29 116.34V116.33ZM132.45 208.74C128.041 198.103 126.885 186.397 129.128 175.102C131.371 163.808 136.912 153.432 145.051 145.287C153.19 137.141 163.561 131.592 174.854 129.339C186.146 127.087 197.853 128.234 208.494 132.634C219.135 137.034 228.232 144.49 234.636 154.06C241.04 163.63 244.463 174.883 244.473 186.398C244.482 197.913 241.077 209.172 234.688 218.752C228.3 228.332 219.214 235.803 208.58 240.22C201.521 243.21 193.939 244.766 186.273 244.799C178.607 244.832 171.012 243.34 163.928 240.411C156.844 237.482 150.413 233.173 145.009 227.736C139.605 222.299 135.336 215.842 132.45 208.74V208.74Z" fill="#1E2B3C"/>
</g>
<defs>
<clipPath id="clip0_613_1755">
<rect width="371.36" height="371.35" fill="white" transform="translate(0.580078 0.73999)"/>
</clipPath>
</defs>
</svg>
