<svg width="373" height="380" viewBox="0 0 373 380" fill="none" xmlns="http://www.w3.org/2000/svg">
<g clip-path="url(#clip0_613_1761)">
<path d="M343.29 0.73999H30.2901C22.5049 0.747939 15.0412 3.84546 9.53819 9.35225C4.03514 14.859 0.942709 22.3249 0.940063 30.11L0.940063 281.96C0.940063 289.749 4.03439 297.22 9.54234 302.728C15.0503 308.236 22.5207 311.33 30.3101 311.33H134.65V361.74H99.8501V379.37H273.75V361.74H238.94V311.33H343.29C347.147 311.331 350.967 310.573 354.531 309.097C358.095 307.622 361.333 305.458 364.061 302.731C366.788 300.003 368.952 296.765 370.427 293.201C371.903 289.637 372.661 285.817 372.66 281.96V30.11C372.66 22.3206 369.566 14.8502 364.058 9.34226C358.55 3.83432 351.079 0.73999 343.29 0.73999V0.73999ZM221.29 314.36V360.3H152.29V314.36H221.29ZM355.01 281.96C355.015 285.075 353.784 288.066 351.587 290.274C349.389 292.483 346.406 293.729 343.29 293.74H30.2901C27.1763 293.737 24.1907 292.5 21.988 290.299C19.7853 288.098 18.5454 285.114 18.5401 282V30.11C18.548 26.9936 19.7916 24.0075 21.998 21.8067C24.2044 19.6059 27.1937 18.37 30.3101 18.37H343.31C346.425 18.3726 349.411 19.6097 351.616 21.8103C353.82 24.0108 355.062 26.9953 355.07 30.11L355.01 281.96Z" fill="#1E2B3C"/>
<path d="M195.62 91.4399H177.99V142.12H127.3V159.74H177.99V210.42H195.62V159.74H246.3V142.12H195.62V91.4399Z" fill="#1E2B3C"/>
</g>
<defs>
<clipPath id="clip0_613_1761">
<rect width="371.72" height="378.65" fill="white" transform="translate(0.940063 0.73999)"/>
</clipPath>
</defs>
</svg>
