<svg width="368" height="328" viewBox="0 0 368 328" fill="none" xmlns="http://www.w3.org/2000/svg">
    <g clip-path="url(#clip0_613_1782)">
        <path d="M281.46 16.39H86.54V16.5H281.46V16.39Z" fill="#1E2B3C"/>
        <path d="M30.1402 327.2H337.85C345.664 327.192 353.156 324.087 358.683 318.564C364.211 313.042 367.324 305.554 367.34 297.74V45.87C367.33 38.053 364.219 30.5592 358.69 25.0327C353.162 19.5061 345.667 16.398 337.85 16.39H299.09V16.5H337.86C345.65 16.5 353.122 19.594 358.631 25.1017C364.141 30.6093 367.237 38.0797 367.24 45.87V297.74C367.235 305.53 364.137 312.998 358.628 318.505C353.12 324.013 345.65 327.107 337.86 327.11H30.1502C22.3589 327.11 14.8865 324.016 9.37536 318.509C3.86424 313.002 0.765458 305.531 0.760156 297.74V45.87C0.761469 42.0118 1.52271 38.1916 3.0004 34.6275C4.4781 31.0635 6.64332 27.8254 9.37243 25.0981C12.1015 22.3709 15.3411 20.2079 18.9062 18.7326C22.4712 17.2573 26.2919 16.4987 30.1502 16.5H68.9102V16.39H30.1402C22.3248 16.4006 14.8326 19.5099 9.30634 25.0362C3.78006 30.5625 0.670739 38.0547 0.660156 45.87L0.660156 297.74C0.676027 305.552 3.78768 313.039 9.31339 318.561C14.8391 324.083 22.3283 327.189 30.1402 327.2V327.2Z"
              fill="#1E2B3C"/>
        <path d="M349.51 113.21V297.74C349.505 300.83 348.274 303.791 346.089 305.975C343.903 308.159 340.94 309.387 337.85 309.39H30.1401C27.0529 309.385 24.0938 308.155 21.9117 305.971C19.7297 303.787 18.5028 300.827 18.5001 297.74V113.21H18.3901V297.74C18.3954 300.855 19.6368 303.841 21.8416 306.043C24.0465 308.244 27.0347 309.48 30.1501 309.48H337.86C339.407 309.487 340.939 309.188 342.37 308.601C343.8 308.014 345.101 307.15 346.197 306.06C347.294 304.969 348.164 303.673 348.758 302.245C349.352 300.817 349.659 299.286 349.66 297.74V113.21H349.51Z"
              fill="#1E2B3C"/>
        <path d="M281.46 34.13H86.54V34.23H281.46V34.13Z" fill="#1E2B3C"/>
        <path d="M349.51 45.87V95.38H349.61V45.87C349.605 42.7563 348.365 39.7717 346.162 37.5709C343.959 35.3701 340.974 34.1326 337.86 34.13H299.09V34.23H337.85C340.939 34.23 343.902 35.4557 346.088 37.6381C348.274 39.8204 349.505 42.781 349.51 45.87V45.87Z"
              fill="#1E2B3C"/>
        <path d="M30.1401 34.23H68.9101V34.13H30.1501C27.0347 34.13 24.0465 35.3663 21.8416 37.5674C19.6368 39.7685 18.3954 42.7545 18.3901 45.87V95.38H18.5001V45.87C18.5028 42.7837 19.73 39.8246 21.9123 37.6422C24.0947 35.4599 27.0538 34.2327 30.1401 34.23Z"
              fill="#1E2B3C"/>
        <path d="M30.1503 16.5C26.292 16.4987 22.4713 17.2573 18.9063 18.7326C15.3412 20.2079 12.1016 22.3709 9.37253 25.0981C6.64341 27.8254 4.4782 31.0635 3.0005 34.6275C1.5228 38.1916 0.761567 42.0118 0.760254 45.87V297.74C0.765556 305.531 3.86433 313.002 9.37545 318.509C14.8866 324.016 22.359 327.11 30.1503 327.11H337.86C345.65 327.107 353.12 324.012 358.629 318.505C364.138 312.998 367.235 305.53 367.24 297.74V45.87C367.238 38.0797 364.141 30.6093 358.632 25.1017C353.122 19.594 345.651 16.5 337.86 16.5H299.09V0.73999H281.46V16.5H86.5403V0.73999H68.9103V16.5H30.1503ZM86.5403 45.9V34.13H281.46V45.9H299.09V34.13H337.86C339.406 34.1247 340.938 34.4244 342.368 35.0118C343.798 35.5991 345.099 36.4628 346.195 37.5532C347.291 38.6436 348.161 39.9394 348.756 41.3665C349.35 42.7936 349.658 44.324 349.66 45.87V95.38H18.3903V45.87C18.3956 42.7545 19.6369 39.7684 21.8417 37.5673C24.0466 35.3662 27.0348 34.13 30.1503 34.13H68.9103V45.9H86.5403ZM337.86 309.46H30.1503C27.0382 309.46 24.0531 308.227 21.8488 306.03C19.6445 303.833 18.4008 300.852 18.3903 297.74V113.21H349.66V297.74C349.656 299.285 349.348 300.814 348.752 302.239C348.157 303.664 347.286 304.958 346.19 306.047C345.094 307.135 343.795 307.997 342.365 308.583C340.936 309.168 339.405 309.467 337.86 309.46Z"
              fill="#1E2B3C"/>
        <path d="M154.12 211.37C152.745 210.813 151.313 210.407 149.85 210.16C151.312 210.404 152.741 210.814 154.11 211.38C156.769 212.395 158.95 214.373 160.22 216.92C158.949 214.375 156.774 212.396 154.12 211.37V211.37Z"
              fill="#1E2B3C"/>
        <path d="M145.79 256.58C141.066 256.624 136.362 255.95 131.84 254.58C136.362 255.95 141.066 256.624 145.79 256.58C162.29 256.58 172.95 249.42 178.39 240.08C172.95 249.41 162.29 256.58 145.79 256.58Z"
              fill="#1E2B3C"/>
        <path d="M130.45 186.08V187.49L130.51 186.08C130.7 181.08 132.35 176.69 135.16 173.85C136.713 172.289 138.626 171.135 140.73 170.49C138.625 171.133 136.711 172.288 135.16 173.85C132.3 176.74 130.66 181.04 130.45 186.08Z"
              fill="#1E2B3C"/>
        <path d="M145.66 153.09C156.44 153.09 167.46 157.54 173.76 165.47C167.46 157.53 156.44 153.09 145.66 153.09C126.15 153.09 112.66 165.98 111.34 185.92L111.24 187.49L111.35 185.92C112.66 165.98 126.13 153.09 145.66 153.09Z"
              fill="#1E2B3C"/>
        <path d="M165.12 201V201.28V201C167.698 200.288 170.087 199.018 172.12 197.28C170.085 199.014 167.696 200.283 165.12 201V201Z"
              fill="#1E2B3C"/>
        <path d="M179.05 180.67C179.052 182.8 178.794 184.923 178.28 186.99C178.799 184.923 179.057 182.8 179.05 180.67V180.67Z"
              fill="#1E2B3C"/>
        <path d="M182.75 223.88C182.75 213.13 176.56 204.62 166.83 201.73C176.56 204.64 182.75 213.15 182.75 223.88Z"
              fill="#1E2B3C"/>
        <path d="M113.96 241.07C112.314 238.36 111.059 235.431 110.23 232.37C111.054 235.432 112.31 238.362 113.96 241.07V241.07Z"
              fill="#1E2B3C"/>
        <path d="M145.5 239.94C135.34 239.94 129 233.28 128.1 221.68L128 220.32L128.1 221.68C129 233.28 135.34 239.94 145.5 239.94Z"
              fill="#1E2B3C"/>
        <path d="M145.5 242.88C143.496 242.895 141.498 242.643 139.56 242.13C131.56 239.97 126.45 233.27 125.3 223.26H111.8C112.19 231.84 115.07 239.08 120.17 244.26C126.17 250.38 135.04 253.61 145.79 253.61C169.16 253.61 179.79 238.19 179.79 223.86C179.79 213.94 173.79 206.19 164.47 204.13L162.16 203.63V198.74L164.32 198.14C171.59 196.14 176.09 189.43 176.09 180.65C176.09 165.23 160.61 156.02 145.63 156.02C128.03 156.02 116.19 166.9 114.38 184.53H127.59C127.865 179.769 129.78 175.249 133.01 171.74C134.691 170.085 136.691 168.789 138.887 167.929C141.084 167.07 143.432 166.665 145.79 166.74C154.24 166.74 162.79 172.29 162.79 182.9C162.856 184.843 162.504 186.778 161.759 188.574C161.014 190.369 159.892 191.984 158.47 193.31C153.8 197.61 146.36 198.31 141.61 198.31V206.52C146.46 206.57 151.13 206.86 155.25 208.59C161.39 211.16 164.64 216.59 164.64 224.24C164.66 235.07 156.59 242.88 145.5 242.88Z"
              fill="#1E2B3C"/>
        <path d="M147.23 239.86C146.655 239.917 146.078 239.944 145.5 239.94C135.34 239.94 129 233.28 128.1 221.68L128 220.32H108.8V221.81C108.819 225.376 109.293 228.924 110.21 232.37C111.039 235.431 112.294 238.36 113.94 241.07C115.11 242.974 116.489 244.741 118.05 246.34C121.889 250.182 126.62 253.013 131.82 254.58C136.342 255.95 141.046 256.624 145.77 256.58C162.27 256.58 172.93 249.41 178.37 240.08C181.226 235.159 182.73 229.57 182.73 223.88V223.88C182.73 213.15 176.54 204.64 166.81 201.73C166.25 201.557 165.68 201.407 165.1 201.28V201C167.676 200.283 170.065 199.014 172.1 197.28C175.161 194.57 177.3 190.973 178.22 186.99C178.734 184.923 178.992 182.8 178.99 180.67C179.023 175.143 177.147 169.774 173.68 165.47C167.38 157.54 156.36 153.09 145.58 153.09C126.07 153.09 112.58 165.98 111.27 185.92L111.16 187.49H130.34V186.08C130.54 181.08 132.19 176.69 135 173.85C136.551 172.288 138.465 171.133 140.57 170.49C142.225 169.979 143.948 169.723 145.68 169.73C152.68 169.73 159.74 174.27 159.74 182.95C159.802 184.485 159.533 186.015 158.952 187.437C158.37 188.858 157.49 190.138 156.37 191.19C151.96 195.26 144.29 195.56 140.1 195.41L138.63 195.34H138.66V209.53H140.12C143.369 209.454 146.618 209.664 149.83 210.16C151.293 210.407 152.725 210.813 154.1 211.37C156.754 212.396 158.929 214.375 160.2 216.92C161.252 219.238 161.758 221.766 161.68 224.31C161.66 232.8 155.71 239.11 147.23 239.86ZM155.23 208.66C151.11 206.93 146.44 206.66 141.59 206.59V198.38C146.34 198.38 153.78 197.66 158.45 193.38C159.872 192.054 160.994 190.439 161.739 188.644C162.484 186.848 162.836 184.913 162.77 182.97C162.77 172.36 154.21 166.81 145.77 166.81C143.412 166.735 141.064 167.14 138.867 167.999C136.671 168.859 134.671 170.155 132.99 171.81C129.768 175.315 127.856 179.827 127.58 184.58H114.39C116.2 166.95 128.04 156.07 145.64 156.07C160.64 156.07 176.1 165.28 176.1 180.7C176.1 189.48 171.6 196.18 164.33 198.19L162.17 198.79V203.68L164.48 204.18C173.79 206.24 179.8 213.99 179.8 223.91C179.8 238.24 169.16 253.66 145.8 253.66C135.05 253.66 126.19 250.43 120.18 244.31C115.08 239.11 112.18 231.87 111.81 223.31H125.31C126.46 233.31 131.61 240.02 139.57 242.18C141.508 242.693 143.506 242.945 145.51 242.93C156.6 242.93 164.66 235.12 164.66 224.36C164.66 216.64 161.4 211.23 155.26 208.66H155.23Z"
              fill="#1E2B3C"/>
        <path d="M220.82 190.05H195.82V174.86H197.28C213.03 174.78 222.53 168.36 224.76 156.29L224.98 155.09L224.76 156.29C222.53 168.36 213.03 174.77 197.28 174.86H195.82V190.06H220.82V190.05Z"
              fill="#1E2B3C"/>
        <path d="M227.4 158.03C224.59 170.33 214.49 177.29 198.75 177.77V187.11H223.75V251.64H238.05V158.03H227.4Z"
              fill="#1E2B3C"/>
        <path d="M197.27 174.86H195.81V190.05H220.81V254.57H241V155.09H225L224.78 156.29C222.52 168.36 213.02 174.74 197.27 174.86ZM238.07 251.64H223.77V187.11H198.77V177.74C214.51 177.26 224.61 170.3 227.42 158H238.09L238.07 251.64Z"
              fill="#1E2B3C"/>
    </g>
    <defs>
        <clipPath id="clip0_613_1782">
            <rect width="366.68" height="326.46" fill="white" transform="translate(0.660156 0.73999)"/>
        </clipPath>
    </defs>
</svg>
