<svg width="210" height="324" viewBox="0 0 210 324" fill="none" xmlns="http://www.w3.org/2000/svg">
<g clip-path="url(#clip0_613_1767)">
<path d="M131.34 0.73999H78.1401C74.2441 0.73999 70.5076 2.28768 67.7527 5.04259C64.9978 7.7975 63.4501 11.534 63.4501 15.43V57.53H29.8201C22.0048 57.5406 14.5125 60.6499 8.98627 66.1762C3.45999 71.7025 0.350671 79.1947 0.340088 87.01L0.340088 269.36C0.350156 277.124 3.41993 284.572 8.88398 290.089C14.348 295.605 21.7661 298.746 29.5301 298.83C29.92 305.449 32.8244 311.67 37.6491 316.219C42.4738 320.767 48.8542 323.301 55.4851 323.301C62.116 323.301 68.4964 320.767 73.3211 316.219C78.1458 311.67 81.0501 305.449 81.4401 298.83H128.03C128.42 305.449 131.324 311.67 136.149 316.219C140.974 320.767 147.354 323.301 153.985 323.301C160.616 323.301 166.996 320.767 171.821 316.219C176.646 311.67 179.55 305.449 179.94 298.83C187.706 298.748 195.126 295.609 200.593 290.092C206.059 284.575 209.13 277.126 209.14 269.36V87.01C209.13 79.1929 206.019 71.6992 200.49 66.1726C194.962 60.6461 187.467 57.5379 179.65 57.53H146.02V15.43C146.021 13.5013 145.643 11.5913 144.906 9.80913C144.168 8.02691 143.087 6.40742 141.724 5.0432C140.361 3.67897 138.742 2.59676 136.96 1.85839C135.178 1.12003 133.269 0.73999 131.34 0.73999V0.73999ZM78.1401 15.43H131.34V57.53H78.1401V15.43ZM191.34 269.36C191.337 272.448 190.109 275.409 187.924 277.591C185.74 279.774 182.778 281 179.69 281H29.8201C26.7338 280.997 23.7746 279.77 21.5923 277.588C19.4099 275.405 18.1827 272.446 18.1801 269.36V87.01C18.1827 83.9237 19.4099 80.9645 21.5923 78.7822C23.7746 76.5998 26.7338 75.3726 29.8201 75.37H179.65C181.183 75.3647 182.701 75.6618 184.118 76.2443C185.536 76.8268 186.824 77.6832 187.91 78.7645C188.996 79.8458 189.858 81.1306 190.447 82.5455C191.035 83.9604 191.339 85.4776 191.34 87.01V269.36Z" fill="#1E2B3C"/>
<path d="M113.37 115.89H98.6802V229.72H113.37V115.89Z" fill="#1E2B3C"/>
<path d="M62.8301 115.89H48.1401V229.72H62.8301V115.89Z" fill="#1E2B3C"/>
<path d="M161.33 115.89H146.64V229.72H161.33V115.89Z" fill="#1E2B3C"/>
</g>
<defs>
<clipPath id="clip0_613_1767">
<rect width="208.8" height="322.69" fill="white" transform="translate(0.340088 0.73999)"/>
</clipPath>
</defs>
</svg>
