<svg width="349" height="349" viewBox="0 0 349 349" fill="none" xmlns="http://www.w3.org/2000/svg">
    <g clip-path="url(#clip0_613_1775)">
        <path d="M174.22 348.89C270.22 348.89 348.29 270.8 348.29 174.82C348.29 78.84 270.2 0.73999 174.22 0.73999C78.2401 0.73999 0.140137 78.83 0.140137 174.82C0.140137 270.81 78.2301 348.89 174.22 348.89ZM166.79 18.56V39.66H181.65V18.55C262.01 22.33 326.7 87.02 330.48 167.38H309.37V182.25H330.48C326.7 262.61 262.01 327.3 181.65 331.08V309.96H166.79V331.08C86.4201 327.3 21.7201 262.61 17.9501 182.25H39.0601V167.38H17.9501C21.7301 87.02 86.4201 22.33 166.79 18.55V18.56Z"
              fill="#1E2B3C"/>
        <path d="M95.7001 264.15C96.352 264.147 97.0007 264.06 97.6301 263.89L221.45 230.74C221.772 230.661 222.087 230.553 222.39 230.42C223.439 229.983 224.374 229.312 225.123 228.457C225.872 227.602 226.415 226.587 226.71 225.49C226.709 225.467 226.709 225.443 226.71 225.42L259.88 101.65C260.214 100.389 260.212 99.0628 259.872 97.8034C259.533 96.544 258.869 95.3957 257.947 94.4734C257.024 93.5511 255.876 92.8872 254.617 92.5479C253.357 92.2086 252.031 92.2059 250.77 92.54L126.98 125.74C126.349 125.907 125.743 126.159 125.18 126.49C123.475 127.476 122.231 129.098 121.72 131C121.724 131.023 121.724 131.047 121.72 131.07L88.5201 254.79C88.2259 255.891 88.1887 257.046 88.4115 258.164C88.6343 259.282 89.111 260.334 89.8048 261.238C90.4987 262.143 91.3912 262.876 92.4134 263.381C93.4355 263.886 94.56 264.149 95.7001 264.15V264.15ZM215.7 209.15L143.25 136.74L242.25 110.22L215.7 209.15ZM132.7 147.21L205.19 219.74L106.19 246.26L132.7 147.21Z"
              fill="#1E2B3C"/>
    </g>
    <defs>
        <clipPath id="clip0_613_1775">
            <rect width="348.15" height="348.15" fill="white" transform="translate(0.140137 0.73999)"/>
        </clipPath>
    </defs>
</svg>
