<svg width="234" height="322" viewBox="0 0 234 322" fill="none" xmlns="http://www.w3.org/2000/svg">
<g clip-path="url(#clip0_613_1808)">
<path d="M204.44 108.81C212.23 108.813 219.699 111.907 225.208 117.415C230.717 122.922 233.815 130.39 233.82 138.18V292.08C233.82 299.872 230.725 307.345 225.215 312.855C219.705 318.365 212.232 321.46 204.44 321.46H29.78C25.921 321.461 22.0994 320.702 18.5337 319.226C14.968 317.751 11.728 315.587 8.99878 312.858C6.26953 310.13 4.10452 306.891 2.62741 303.326C1.15031 299.76 0.390039 295.939 0.390039 292.08V138.18C0.395341 130.389 3.49412 122.918 9.00524 117.411C14.5164 111.904 21.9888 108.81 29.78 108.81H46.5V108.74H29.77C21.9616 108.751 14.4755 111.854 8.95031 117.372C3.42518 122.89 0.311193 130.372 0.290039 138.18L0.290039 292.08C0.300622 299.895 3.40994 307.388 8.93622 312.914C14.4625 318.44 21.9547 321.549 29.77 321.56H204.44C212.255 321.549 219.748 318.44 225.274 312.914C230.8 307.388 233.909 299.895 233.92 292.08V138.18C233.899 130.372 230.785 122.89 225.26 117.372C219.735 111.854 212.248 108.751 204.44 108.74H64.29V108.85L204.44 108.81Z" fill="#1E2B3C"/>
<path d="M18.02 138.18V292.08C18.0253 295.196 19.2663 298.183 21.4709 300.386C23.6755 302.589 26.6636 303.827 29.78 303.83H204.44C207.555 303.827 210.543 302.588 212.746 300.386C214.949 298.183 216.187 295.195 216.19 292.08V138.18C216.185 135.066 214.945 132.082 212.742 129.881C210.539 127.68 207.554 126.443 204.44 126.44H29.78C26.6653 126.443 23.6787 127.68 21.4744 129.88C19.2701 132.081 18.028 135.065 18.02 138.18V138.18ZM216.08 138.18V292.08C216.081 293.61 215.781 295.125 215.197 296.539C214.613 297.953 213.756 299.238 212.675 300.321C211.594 301.403 210.31 302.263 208.898 302.849C207.485 303.436 205.97 303.739 204.44 303.74H29.77C26.6837 303.737 23.7246 302.51 21.5422 300.328C19.3599 298.145 18.1327 295.186 18.13 292.1V138.18C18.1327 135.094 19.3599 132.134 21.5422 129.952C23.7246 127.77 26.6837 126.543 29.77 126.54H204.44C207.526 126.543 210.485 127.77 212.668 129.952C214.85 132.134 216.077 135.094 216.08 138.18V138.18Z" fill="#1E2B3C"/>
<path d="M97.1101 198.64C97.1119 201.821 97.8721 204.955 99.3278 207.783C100.783 210.611 102.893 213.05 105.48 214.9L106.09 215.34V247.52H128.09V215.34L128.71 214.9C131.505 212.91 133.742 210.234 135.204 207.129C136.666 204.025 137.305 200.596 137.059 197.174C136.813 193.751 135.69 190.449 133.799 187.586C131.908 184.723 129.312 182.394 126.261 180.824C123.21 179.254 119.806 178.495 116.377 178.621C112.947 178.747 109.608 179.753 106.68 181.542C103.752 183.332 101.334 185.845 99.6581 188.839C97.982 191.833 97.1046 195.208 97.1101 198.64V198.64Z" fill="#1E2B3C"/>
<path d="M103.15 216.84V250.46H131.07V216.84C134.893 213.92 137.704 209.876 139.108 205.275C140.512 200.674 140.439 195.749 138.898 191.193C137.357 186.636 134.426 182.677 130.518 179.873C126.609 177.069 121.92 175.561 117.11 175.561C112.3 175.561 107.611 177.069 103.703 179.873C99.7942 182.677 96.8633 186.636 95.3223 191.193C93.7813 195.749 93.7077 200.674 95.1119 205.275C96.5161 209.876 99.3273 213.92 103.15 216.84ZM137.15 198.64C137.148 201.82 136.388 204.955 134.932 207.783C133.477 210.611 131.368 213.05 128.78 214.9L128.16 215.34V247.52H106.16V215.34L105.55 214.9C102.76 212.906 100.53 210.228 99.0738 207.124C97.6174 204.02 96.9835 200.593 97.2332 197.173C97.4828 193.753 98.6076 190.455 100.499 187.595C102.391 184.735 104.987 182.409 108.036 180.842C111.086 179.274 114.487 178.517 117.914 178.642C121.341 178.768 124.678 179.773 127.604 181.56C130.53 183.347 132.948 185.857 134.625 188.848C136.302 191.839 137.182 195.211 137.18 198.64H137.15Z" fill="#1E2B3C"/>
<path d="M117.11 18.58C131.101 18.5959 144.514 24.1607 154.407 34.0535C164.299 43.9464 169.864 57.3594 169.88 71.35H187.72C187.72 52.6231 180.281 34.6631 167.039 21.4212C153.797 8.17924 135.837 0.73999 117.11 0.73999C98.3832 0.73999 80.4233 8.17924 67.1813 21.4212C53.9394 34.6631 46.5001 52.6231 46.5001 71.35V108.81H29.7801C21.9889 108.81 14.5165 111.904 9.00534 117.411C3.49422 122.918 0.395439 130.389 0.390137 138.18V292.08C0.390136 295.939 1.1504 299.76 2.62751 303.326C4.10462 306.891 6.26963 310.13 8.99887 312.858C11.7281 315.587 14.9681 317.751 18.5338 319.226C22.0995 320.702 25.9211 321.461 29.7801 321.46H204.44C212.232 321.46 219.705 318.365 225.215 312.855C230.725 307.345 233.82 299.872 233.82 292.08V138.18C233.815 130.39 230.717 122.922 225.208 117.415C219.7 111.907 212.23 108.813 204.44 108.81H64.2901V71.35C64.3087 57.3515 69.8812 43.9325 79.7843 34.0388C89.6874 24.1451 103.112 18.5853 117.11 18.58V18.58ZM216.19 138.18V292.08C216.187 295.195 214.949 298.183 212.746 300.386C210.543 302.589 207.556 303.827 204.44 303.83H29.7801C26.6637 303.827 23.6756 302.589 21.471 300.386C19.2664 298.183 18.0254 295.196 18.0201 292.08V138.18C18.0281 135.065 19.2703 132.081 21.4745 129.88C23.6788 127.68 26.6655 126.443 29.7801 126.44H204.44C207.554 126.443 210.539 127.68 212.742 129.881C214.945 132.082 216.185 135.066 216.19 138.18V138.18Z" fill="#1E2B3C"/>
</g>
<defs>
<clipPath id="clip0_613_1808">
<rect width="233.63" height="320.82" fill="white" transform="translate(0.290039 0.73999)"/>
</clipPath>
</defs>
</svg>
