<svg width="378" height="384" viewBox="0 0 378 384" fill="none" xmlns="http://www.w3.org/2000/svg">
<g clip-path="url(#clip0_613_1816)">
<path d="M323.49 150.74C310.57 150.739 298.069 155.332 288.223 163.698C278.377 172.064 271.826 183.659 269.74 196.41H220.22C218.871 188.202 215.662 180.411 210.841 173.632C206.019 166.854 199.712 161.267 192.4 157.3L221.54 73.24C222.61 73.34 223.69 73.4 224.78 73.4C229.551 73.3961 234.275 72.4525 238.681 70.6231C243.087 68.7937 247.09 66.1143 250.461 62.738C253.831 59.3616 256.504 55.3544 258.326 50.9452C260.148 46.5359 261.084 41.8109 261.08 37.04C261.076 32.2691 260.133 27.5456 258.303 23.1394C256.474 18.7331 253.795 14.7304 250.418 11.3596C247.042 7.98883 243.035 5.31609 238.625 3.49398C234.216 1.67187 229.491 0.736063 224.72 0.740003C216.9 0.748732 209.291 3.28208 203.027 7.9631C196.762 12.6441 192.176 19.2226 189.951 26.7198C187.726 34.217 187.981 42.2321 190.679 49.5727C193.376 56.9132 198.371 63.1868 204.92 67.46L175.76 151.56C168.632 150.324 161.329 150.522 154.279 152.143C147.229 153.764 140.573 156.775 134.7 161L71.7402 98.07C76.3041 90.4651 77.9292 81.4536 76.3094 72.7334C74.6896 64.0133 69.9366 56.1866 62.946 50.728C55.9554 45.2694 47.2099 42.5558 38.3572 43.0985C29.5045 43.6411 21.1559 47.4026 14.8844 53.6741C8.61281 59.9457 4.85135 68.2943 4.3087 77.147C3.76604 85.9997 6.47965 94.7452 11.9382 101.736C17.3968 108.726 25.2235 113.479 33.9436 115.099C42.6638 116.719 51.6753 115.094 59.2802 110.53L122.21 173.46C115.551 182.719 111.969 193.835 111.969 205.24C111.969 216.645 115.551 227.761 122.21 237.02L87.2102 272.02C76.0863 264.019 62.359 260.498 48.7575 262.156C35.1561 263.815 22.6768 270.531 13.801 280.97C4.92515 291.408 0.302843 304.805 0.853128 318.496C1.40341 332.187 7.08598 345.17 16.771 354.863C26.456 364.555 39.434 370.248 53.1246 370.81C66.8153 371.371 80.2158 366.759 90.6617 357.892C101.108 349.025 107.834 336.551 109.503 322.951C111.172 309.35 107.662 295.62 99.6702 284.49L134.67 249.49C141.111 254.114 148.483 257.279 156.272 258.764C164.061 260.249 172.079 260.019 179.77 258.09L206.05 318.69C199.013 324.079 194.189 331.856 192.488 340.556C190.787 349.255 192.326 358.276 196.815 365.919C201.304 373.563 208.434 379.3 216.86 382.052C225.286 384.803 234.428 384.378 242.562 380.856C250.697 377.335 257.263 370.96 261.023 362.933C264.783 354.906 265.479 345.782 262.978 337.278C260.477 328.774 254.952 321.478 247.445 316.765C239.938 312.052 230.966 310.247 222.22 311.69L195.92 251.05C202.332 246.925 207.807 241.501 211.991 235.127C216.175 228.754 218.975 221.573 220.21 214.05H269.73C271.417 224.307 276.004 233.867 282.949 241.602C289.894 249.336 298.906 254.922 308.923 257.699C318.94 260.477 329.543 260.33 339.479 257.277C349.415 254.223 358.27 248.391 364.998 240.467C371.727 232.544 376.047 222.86 377.45 212.561C378.853 202.261 377.279 191.775 372.915 182.341C368.55 172.906 361.578 164.918 352.82 159.318C344.062 153.719 333.885 150.742 323.49 150.74V150.74ZM216.59 20.25C218.798 19.1778 221.196 18.5509 223.647 18.4054C226.097 18.2598 228.552 18.5982 230.872 19.4015C233.191 20.2047 235.33 21.4569 237.166 23.0867C239.001 24.7165 240.498 26.6918 241.57 28.9C242.642 31.1082 243.269 33.5059 243.415 35.9563C243.56 38.4068 243.222 40.8619 242.419 43.1815C241.616 45.5011 240.363 47.6398 238.734 49.4754C237.104 51.3111 235.128 52.8078 232.92 53.88C230.712 54.9516 228.314 55.5777 225.864 55.7227C223.414 55.8677 220.959 55.5287 218.64 54.725C216.321 53.9213 214.183 52.6687 212.348 51.0387C210.513 49.4087 209.017 47.4332 207.945 45.225C206.874 43.0168 206.247 40.6192 206.102 38.169C205.957 35.7189 206.297 33.2641 207.1 30.945C207.904 28.6258 209.157 26.4877 210.787 24.6527C212.417 22.8176 214.392 21.3216 216.6 20.25H216.59ZM246.86 347.48C246.862 351.179 245.767 354.795 243.714 357.872C241.66 360.948 238.74 363.347 235.323 364.764C231.907 366.181 228.146 366.552 224.518 365.832C220.89 365.111 217.557 363.331 214.941 360.716C212.325 358.102 210.543 354.77 209.82 351.142C209.098 347.514 209.468 343.754 210.883 340.336C212.298 336.919 214.695 333.997 217.77 331.942C220.845 329.887 224.461 328.79 228.16 328.79C233.116 328.795 237.868 330.766 241.374 334.269C244.879 337.773 246.852 342.524 246.86 347.48V347.48ZM323.49 242.1C314.962 242.1 306.698 239.142 300.106 233.731C293.515 228.321 289.003 220.792 287.34 212.427C285.677 204.063 286.966 195.381 290.987 187.86C295.008 180.34 301.512 174.446 309.392 171.184C317.271 167.921 326.038 167.492 334.198 169.969C342.358 172.446 349.408 177.676 354.144 184.767C358.881 191.859 361.012 200.374 360.174 208.861C359.336 217.347 355.582 225.281 349.55 231.31C346.135 234.741 342.073 237.461 337.6 239.313C333.127 241.165 328.331 242.112 323.49 242.1ZM203.31 205.24C203.31 212.53 201.148 219.657 197.098 225.718C193.048 231.78 187.291 236.504 180.556 239.294C173.821 242.084 166.409 242.814 159.259 241.392C152.109 239.97 145.541 236.459 140.386 231.304C135.231 226.149 131.721 219.581 130.298 212.431C128.876 205.281 129.606 197.87 132.396 191.134C135.186 184.399 139.91 178.642 145.972 174.592C152.033 170.542 159.16 168.38 166.45 168.38C176.223 168.391 185.592 172.277 192.502 179.188C199.413 186.098 203.3 195.467 203.31 205.24V205.24ZM21.9202 79.37C21.9222 75.6719 23.0206 72.0574 25.0766 68.9836C27.1326 65.9097 30.0538 63.5144 33.471 62.1006C36.8881 60.6868 40.6477 60.3179 44.2745 61.0405C47.9013 61.7632 51.2324 63.545 53.8466 66.1606C56.4609 68.7763 58.2409 72.1083 58.9616 75.7355C59.6824 79.3627 59.3115 83.1221 57.8958 86.5385C56.4801 89.9549 54.0833 92.8748 51.0083 94.9292C47.9334 96.9835 44.3183 98.08 40.6202 98.08C35.6606 98.0747 30.9057 96.1015 27.3996 92.5935C23.8936 89.0856 21.9229 84.3297 21.9202 79.37ZM92.2702 316.29C92.2702 323.58 90.1084 330.707 86.0582 336.768C82.008 342.83 76.2512 347.554 69.5159 350.344C62.7806 353.134 55.3693 353.864 48.2192 352.442C41.069 351.019 34.5012 347.509 29.3463 342.354C24.1913 337.199 20.6807 330.631 19.2585 323.481C17.8362 316.331 18.5662 308.92 21.356 302.184C24.1459 295.449 28.8703 289.692 34.9319 285.642C40.9935 281.592 48.12 279.43 55.4102 279.43C65.1828 279.441 74.5522 283.327 81.4625 290.238C88.3728 297.148 92.2596 306.517 92.2702 316.29V316.29Z" fill="#1E2B3C"/>
</g>
<defs>
<clipPath id="clip0_613_1816">
<rect width="377.06" height="383.07" fill="white" transform="translate(0.920166 0.73999)"/>
</clipPath>
</defs>
</svg>
