<svg width="425" height="353" viewBox="0 0 425 353" fill="none" xmlns="http://www.w3.org/2000/svg">
<g clip-path="url(#clip0_613_1825)">
<path d="M386.09 17.8201C386.09 13.3114 384.299 8.98737 381.111 5.79925C377.923 2.61113 373.599 0.820068 369.09 0.820068L58 0.820068C53.4913 0.820068 49.1673 2.61113 45.9792 5.79925C42.7911 8.98737 41 13.3114 41 17.8201V334.37H0V352.21H424.16V334.37H386.09V17.8201ZM58.6 334.04V18.4401H368.46V334.04H235.86V334.37H188.3V334.04H58.6Z" fill="#1E2B3C"/>
<path d="M138.3 65.65H105.8C103.803 65.65 101.888 66.4434 100.475 67.8555C99.0633 69.2677 98.27 71.1829 98.27 73.18V105.68C98.27 107.677 99.0633 109.592 100.475 111.005C101.888 112.417 103.803 113.21 105.8 113.21H138.3C140.295 113.207 142.208 112.413 143.618 111.001C145.028 109.589 145.82 107.675 145.82 105.68V73.18C145.82 71.1847 145.028 69.2709 143.618 67.859C142.208 66.4472 140.295 65.6527 138.3 65.65Z" fill="#1E2B3C"/>
<path d="M195.83 114.91H228.32C230.769 114.91 233.118 113.938 234.85 112.207C236.583 110.477 237.557 108.129 237.56 105.68V73.1801C237.557 70.7312 236.583 68.3835 234.85 66.6529C233.118 64.9222 230.769 63.9501 228.32 63.9501H195.83C193.383 63.9527 191.037 64.926 189.306 66.6564C187.576 68.3868 186.603 70.7329 186.6 73.1801V105.68C186.603 108.127 187.576 110.473 189.306 112.204C191.037 113.934 193.383 114.907 195.83 114.91V114.91Z" fill="#1E2B3C"/>
<path d="M235.86 334.37V277.63C235.86 276.641 235.665 275.661 235.286 274.748C234.906 273.834 234.351 273.004 233.65 272.306C232.95 271.607 232.119 271.054 231.204 270.677C230.289 270.3 229.309 270.108 228.32 270.11H195.83C194.842 270.109 193.863 270.302 192.949 270.68C192.036 271.057 191.205 271.611 190.506 272.309C189.807 273.008 189.252 273.837 188.873 274.75C188.495 275.663 188.3 276.642 188.3 277.63V334.37H235.86Z" fill="#1E2B3C"/>
<path d="M285.86 114.91H318.36C320.807 114.907 323.153 113.934 324.884 112.204C326.614 110.473 327.587 108.127 327.59 105.68V73.1801C327.587 70.7329 326.614 68.3868 324.884 66.6564C323.153 64.926 320.807 63.9527 318.36 63.9501H285.86C283.413 63.9527 281.067 64.926 279.336 66.6564C277.606 68.3868 276.633 70.7329 276.63 73.1801V105.68C276.633 108.127 277.606 110.473 279.336 112.204C281.067 113.934 283.413 114.907 285.86 114.91V114.91Z" fill="#1E2B3C"/>
<path d="M138.3 167.61H105.8C103.803 167.61 101.888 168.403 100.475 169.816C99.0633 171.228 98.27 173.143 98.27 175.14V207.63C98.27 209.628 99.063 211.544 100.475 212.958C101.887 214.372 103.802 215.167 105.8 215.17H138.3C140.296 215.165 142.209 214.368 143.619 212.955C145.028 211.541 145.82 209.626 145.82 207.63V175.14C145.82 173.145 145.028 171.231 143.618 169.819C142.208 168.407 140.295 167.613 138.3 167.61V167.61Z" fill="#1E2B3C"/>
<path d="M195.83 216.87H228.32C229.533 216.87 230.735 216.631 231.856 216.167C232.977 215.702 233.996 215.022 234.854 214.164C235.712 213.306 236.392 212.287 236.857 211.166C237.321 210.045 237.56 208.843 237.56 207.63V175.14C237.557 172.691 236.583 170.344 234.85 168.613C233.118 166.882 230.769 165.91 228.32 165.91H195.83C193.383 165.913 191.037 166.886 189.306 168.616C187.576 170.347 186.603 172.693 186.6 175.14V207.63C186.6 210.079 187.572 212.428 189.303 214.16C191.033 215.893 193.381 216.867 195.83 216.87Z" fill="#1E2B3C"/>
<path d="M318.36 165.91H285.86C280.762 165.91 276.63 170.042 276.63 175.14V207.64C276.63 212.738 280.762 216.87 285.86 216.87H318.36C323.458 216.87 327.59 212.738 327.59 207.64V175.14C327.59 170.042 323.458 165.91 318.36 165.91Z" fill="#1E2B3C"/>
</g>
<defs>
<clipPath id="clip0_613_1825">
<rect width="424.16" height="351.39" fill="white" transform="translate(0 0.820068)"/>
</clipPath>
</defs>
</svg>
