<svg width="73" height="87" viewBox="0 0 73 87" fill="none" xmlns="http://www.w3.org/2000/svg">
<g clip-path="url(#clip0_613_1836)">
<path d="M56.64 24.8201H58.97C59.633 24.8201 60.2689 24.5567 60.7378 24.0879C61.2066 23.619 61.47 22.9831 61.47 22.3201C61.47 21.6571 61.2066 21.0212 60.7378 20.5523C60.2689 20.0835 59.633 19.8201 58.97 19.8201H55.64L59.64 13.0201L59.71 12.9001C60.3272 11.6844 60.6555 10.3427 60.6694 8.97945C60.6832 7.61616 60.3823 6.26807 59.79 5.04009C58.997 3.36954 57.6206 2.04651 55.92 1.32009C55.1146 0.98764 54.2514 0.817715 53.38 0.820093H19.57C18.6988 0.818762 17.8357 0.988647 17.03 1.32009C15.3284 2.04494 13.9515 3.36844 13.16 5.04009C12.567 6.2682 12.2665 7.61697 12.2821 8.98066C12.2978 10.3443 12.629 11.6859 13.25 12.9001L17.31 19.8201H13.97C13.307 19.8201 12.6711 20.0835 12.2022 20.5523C11.7334 21.0212 11.47 21.6571 11.47 22.3201C11.47 22.9831 11.7334 23.619 12.2022 24.0879C12.6711 24.5567 13.307 24.8201 13.97 24.8201H16.31C6.38 35.2501 0.160004 48.9401 0.160004 60.9701C0.160004 86.3201 21.16 86.3201 36.47 86.3201C51.78 86.3201 72.78 86.3201 72.78 60.9701C72.78 48.9401 66.57 35.2501 56.64 24.8201ZM17.64 7.25009C17.8039 6.84693 18.0789 6.49855 18.4329 6.24543C18.7869 5.9923 19.2055 5.84481 19.64 5.82009H53.38C53.8135 5.84829 54.2306 5.99713 54.584 6.24982C54.9374 6.50251 55.2131 6.84898 55.38 7.25009C55.6244 7.76403 55.7513 8.32599 55.7513 8.89509C55.7513 9.4642 55.6244 10.0262 55.38 10.5401L49.82 19.8201H23.16L17.61 10.5401C17.3656 10.0262 17.2387 9.4642 17.2387 8.89509C17.2387 8.32599 17.3656 7.76403 17.61 7.25009H17.64ZM36.47 81.3201C17.56 81.3201 5.16 79.9001 5.16 60.9701C5.16 49.0201 12.16 35.1201 22.93 25.3201H50.01C60.83 35.1201 67.78 49.0201 67.78 60.9701C67.78 79.9001 55.38 81.3201 36.47 81.3201Z" fill="#1E2B3C"/>
<path d="M36.53 42.19H32C31.8569 42.1851 31.7173 42.2352 31.61 42.33L23.43 50.47V42.68C23.4198 42.5448 23.3581 42.4185 23.2577 42.3274C23.1572 42.2362 23.0256 42.1871 22.89 42.19H19.48C19.4101 42.1871 19.3403 42.1989 19.2752 42.2246C19.2101 42.2503 19.1512 42.2894 19.1022 42.3394C19.0532 42.3894 19.0152 42.4491 18.9907 42.5146C18.9662 42.5802 18.9557 42.6502 18.96 42.72V64.24C18.9557 64.3099 18.9662 64.3798 18.9907 64.4454C19.0152 64.511 19.0532 64.5707 19.1022 64.6206C19.1512 64.6706 19.2101 64.7097 19.2752 64.7354C19.3403 64.7612 19.4101 64.7729 19.48 64.77H22.89C22.9612 64.7743 23.0324 64.7636 23.0992 64.7386C23.166 64.7136 23.2268 64.6748 23.2777 64.6249C23.3286 64.575 23.3684 64.5149 23.3946 64.4486C23.4209 64.3823 23.4329 64.3113 23.43 64.24V56.56C23.4472 56.5257 23.4709 56.4951 23.5 56.47L25.39 54.55L31.85 64.35C31.9056 64.4636 31.9887 64.5615 32.0918 64.6348C32.1948 64.7082 32.3145 64.7546 32.44 64.77H36.37C36.4617 64.7766 36.5535 64.7588 36.636 64.7184C36.7186 64.678 36.789 64.6165 36.84 64.54C36.8947 64.4495 36.9236 64.3458 36.9236 64.24C36.9236 64.1343 36.8947 64.0305 36.84 63.94L28.52 51.42L36.96 43.09C37.019 42.9992 37.0504 42.8933 37.0504 42.785C37.0504 42.6768 37.019 42.5708 36.96 42.48C36.9184 42.3995 36.8572 42.3307 36.7821 42.28C36.707 42.2293 36.6203 42.1984 36.53 42.19V42.19Z" fill="#1E2B3C"/>
<path d="M52.09 55.37C53.0596 54.7689 53.8693 53.942 54.45 52.96C55.2495 51.5954 55.5788 50.006 55.3873 48.436C55.1958 46.8661 54.4941 45.4024 53.39 44.27C52.7632 43.6065 52.0064 43.0794 51.1668 42.7215C50.3271 42.3636 49.4227 42.1827 48.51 42.19H39.4C39.3301 42.1871 39.2603 42.1989 39.1952 42.2246C39.1302 42.2503 39.0712 42.2894 39.0222 42.3394C38.9732 42.3894 38.9352 42.4491 38.9107 42.5146C38.8862 42.5802 38.8758 42.6502 38.88 42.72V64.24C38.8758 64.3099 38.8862 64.3798 38.9107 64.4454C38.9352 64.511 38.9732 64.5707 39.0222 64.6206C39.0712 64.6706 39.1302 64.7097 39.1952 64.7354C39.2603 64.7612 39.3301 64.7729 39.4 64.77H42.81C42.8812 64.7743 42.9525 64.7636 43.0192 64.7386C43.086 64.7136 43.1468 64.6748 43.1977 64.6249C43.2486 64.575 43.2884 64.5149 43.3147 64.4486C43.3409 64.3823 43.3529 64.3113 43.35 64.24V56.4H47.81L51.37 64.45L51.45 64.57C51.555 64.6881 51.7023 64.7599 51.86 64.77H55.44C55.5318 64.7777 55.624 64.7604 55.7068 64.7199C55.7895 64.6794 55.8598 64.6172 55.91 64.54C55.9529 64.4619 55.9754 64.3742 55.9754 64.285C55.9754 64.1959 55.9529 64.1082 55.91 64.03L52.09 55.37ZM43.35 46.37H48.16C48.5348 46.3604 48.9073 46.4312 49.2523 46.5779C49.5973 46.7245 49.9069 46.9435 50.16 47.22C50.4373 47.4879 50.6566 47.8099 50.8045 48.1659C50.9524 48.5219 51.0258 48.9045 51.02 49.29C51.0199 50.0385 50.7254 50.7569 50.2 51.29C49.9696 51.5594 49.6867 51.779 49.3687 51.9354C49.0506 52.0919 48.704 52.1819 48.35 52.2H43.35V46.37Z" fill="#1E2B3C"/>
</g>
<defs>
<clipPath id="clip0_613_1836">
<rect width="72.62" height="85.5" fill="white" transform="translate(0.160004 0.820068)"/>
</clipPath>
</defs>
</svg>
