<svg width="301" height="359" viewBox="0 0 301 359" fill="none" xmlns="http://www.w3.org/2000/svg">
    <g clip-path="url(#clip0_613_1843)">
        <path d="M235.05 85.3801C235.052 68.6553 230.094 52.3055 220.804 38.3984C211.514 24.4912 198.308 13.6514 182.857 7.24971C167.406 0.848034 150.403 -0.827963 133.999 2.43367C117.596 5.69531 102.528 13.7481 90.7006 25.5736C78.8737 37.3991 70.8191 52.4663 67.5556 68.8696C64.292 85.2729 65.966 102.276 72.3658 117.728C78.7657 133.179 89.6039 146.386 103.51 155.678C117.416 164.97 133.765 169.93 150.49 169.93C172.915 169.93 194.422 161.022 210.279 145.167C226.137 129.311 235.047 107.805 235.05 85.3801V85.3801ZM150.49 18.4501C163.728 18.4501 176.668 22.3755 187.674 29.7298C198.681 37.0842 207.26 47.5372 212.325 59.7671C217.391 71.997 218.716 85.4543 216.134 98.4375C213.551 111.421 207.177 123.346 197.817 132.707C188.456 142.067 176.531 148.442 163.547 151.024C150.564 153.607 137.107 152.281 124.877 147.215C112.647 142.15 102.194 133.571 94.8398 122.564C87.4854 111.558 83.56 98.6176 83.56 85.3801C83.5786 67.6348 90.636 50.6217 103.184 38.0739C115.732 25.5261 132.745 18.4686 150.49 18.4501V18.4501Z"
              fill="#1E2B3C"/>
        <path d="M0.780029 358.63H300.2C300.2 318.925 284.427 280.845 256.351 252.769C228.275 224.693 190.196 208.92 150.49 208.92C110.784 208.92 72.7051 224.693 44.6291 252.769C16.553 280.845 0.780029 318.925 0.780029 358.63H0.780029ZM150.49 226.54C217.35 226.54 272.76 276.47 281.4 341H19.58C28.22 276.47 83.63 226.54 150.49 226.54Z"
              fill="#1E2B3C"/>
    </g>
    <defs>
        <clipPath id="clip0_613_1843">
            <rect width="299.42" height="357.81" fill="white" transform="translate(0.780029 0.820068)"/>
        </clipPath>
    </defs>
</svg>
