<svg width="321" height="377" viewBox="0 0 321 377" fill="none" xmlns="http://www.w3.org/2000/svg">
<g clip-path="url(#clip0_613_1849)">
<path d="M29.5801 376.36H203.36C211.151 376.357 218.623 373.261 224.132 367.752C229.641 362.243 232.737 354.771 232.74 346.98V152.63L320.45 64.9201L272.74 17.2101L232.74 57.2101V30.2101C232.74 22.4171 229.645 14.9431 224.135 9.43174C218.626 3.92033 211.153 0.82272 203.36 0.820068L29.5801 0.820068C21.7888 0.822719 14.3174 3.91895 8.8082 9.4282C3.29896 14.9374 0.202724 22.4088 0.200073 30.2001L0.200073 346.98C0.202724 354.771 3.29896 362.243 8.8082 367.752C14.3174 373.261 21.7888 376.357 29.5801 376.36V376.36ZM17.8301 30.2001C17.8327 27.0846 19.0715 24.0975 21.2745 21.8945C23.4775 19.6915 26.4646 18.4527 29.5801 18.4501H203.36C206.476 18.4527 209.463 19.6915 211.666 21.8945C213.869 24.0975 215.107 27.0846 215.11 30.2001V74.8201L110.45 179.5L109.45 180.5L72.9901 264.66L157.2 228.19L215.14 170.26V346.98C215.137 350.096 213.899 353.083 211.696 355.286C209.493 357.489 206.506 358.727 203.39 358.73H29.5801C26.4646 358.727 23.4775 357.489 21.2745 355.286C19.0715 353.083 17.8327 350.096 17.8301 346.98V30.2001ZM282.04 82.5501L255.11 55.6201L272.74 37.9801L299.68 64.9201L282.04 82.5501ZM271.65 92.9401L159.2 205.42L132.2 178.49L244.72 66.0101L271.65 92.9401ZM121.83 188.94L148.78 215.82L101.2 236.41L121.83 188.94Z" fill="#1E2B3C"/>
<path d="M145.82 46.3501H87.1201V63.9801H145.82V46.3501Z" fill="#1E2B3C"/>
</g>
<defs>
<clipPath id="clip0_613_1849">
<rect width="320.25" height="375.54" fill="white" transform="translate(0.200073 0.820068)"/>
</clipPath>
</defs>
</svg>
