<svg width="292" height="310" viewBox="0 0 292 310" fill="none" xmlns="http://www.w3.org/2000/svg">
    <g clip-path="url(#clip0_613_1857)">
        <path d="M0.499955 223.25L115.58 187.25V190.92C115.58 210.62 115.58 230.327 115.58 250.04L104.75 258.15C100.41 261.41 96.07 264.67 91.75 267.89C90.1521 269.023 88.8593 270.533 87.9869 272.287C87.1145 274.04 86.6896 275.982 86.75 277.94C86.75 281.52 86.75 285.11 86.75 288.71V308.82L97.69 306.11L108.78 303.02C121.14 299.487 133.513 295.96 145.9 292.44C155.673 295.2 165.433 297.98 175.18 300.78L205.09 309.29V291.29C205.09 286.91 205.09 282.53 205.14 278.14C205.209 276.137 204.784 274.147 203.901 272.347C203.019 270.547 201.706 268.992 200.08 267.82C195.693 264.573 191.32 261.303 186.96 258.01C183.42 255.343 179.887 252.697 176.36 250.07C176.36 232.11 176.36 214.157 176.36 196.21V187.27L291.45 223.27V202.43C291.45 196.43 291.45 190.53 291.45 184.59C291.525 182.439 291.015 180.307 289.974 178.423C288.933 176.539 287.401 174.972 285.54 173.89L176.36 105.6C176.36 86.9333 176.36 68.2667 176.36 49.6V33.08C176.36 31.99 176.36 30.89 176.3 29.84C175.52 14.06 162.13 1.05002 146.45 0.820017C142.428 0.722275 138.43 1.45711 134.706 2.97838C130.982 4.49964 127.613 6.77448 124.81 9.66002C121.91 12.5085 119.6 15.9012 118.013 19.6437C116.425 23.3861 115.592 27.405 115.56 31.47C115.56 56.1367 115.56 80.8367 115.56 105.57L6.33995 173.87C4.49629 174.96 2.97781 176.523 1.9421 178.397C0.906387 180.272 0.391184 182.389 0.449955 184.53C0.509955 190.74 0.509955 196.94 0.499955 203.14V223.25ZM127.45 119C129.268 117.932 130.768 116.397 131.793 114.554C132.818 112.712 133.331 110.628 133.28 108.52C133.233 82.84 133.233 57.1734 133.28 31.52C133.302 29.7858 133.666 28.0731 134.353 26.4804C135.039 24.8878 136.034 23.4466 137.28 22.24C139.695 19.8913 142.912 18.5474 146.28 18.48C152.61 18.56 158.44 24.3 158.77 30.78C158.77 31.53 158.77 32.3 158.77 33.53V49.58C158.77 69.18 158.77 88.7767 158.77 108.37C158.709 110.509 159.221 112.625 160.253 114.499C161.286 116.374 162.8 117.938 164.64 119.03L273.92 187.33C273.92 191.33 273.92 195.33 273.92 199.27L159.32 163.45L158.82 175.67C158.82 176.29 158.76 176.84 158.76 177.38V196.2C158.76 215 158.76 233.807 158.76 252.62C158.722 254.574 159.157 256.508 160.027 258.258C160.898 260.008 162.179 261.522 163.76 262.67C167.967 265.797 172.167 268.94 176.36 272.1C180.08 274.88 183.79 277.68 187.52 280.46C187.52 282.3 187.52 284.14 187.52 285.98L180.1 283.82C169.927 280.9 159.74 277.997 149.54 275.11C148.389 274.799 147.202 274.644 146.01 274.65C144.657 274.651 143.311 274.839 142.01 275.21C129.477 278.757 116.953 282.327 104.44 285.92C104.44 284.08 104.44 282.24 104.44 280.4L115.35 272.22C119.63 269.013 123.913 265.81 128.2 262.61C129.776 261.494 131.056 260.009 131.927 258.286C132.799 256.562 133.236 254.651 133.2 252.72C133.2 232.12 133.2 211.51 133.2 190.89V177.18C133.2 176.68 133.2 176.18 133.13 175.55L132.53 163.48L18.14 199.27C18.14 195.27 18.14 191.27 18.14 187.27L127.45 119Z"
              fill="#1E2B3C"/>
    </g>
    <defs>
        <clipPath id="clip0_613_1857">
            <rect width="291.07" height="308.49" fill="white" transform="translate(0.449951 0.820068)"/>
        </clipPath>
    </defs>
</svg>
