<svg width="256" height="299" viewBox="0 0 256 299" fill="none" xmlns="http://www.w3.org/2000/svg">
    <g clip-path="url(#clip0_613_1861)">
        <path d="M255.34 298.54H156.91L156.93 298.64H255.45V0.820068H156.93L156.91 0.920068H255.34V298.54Z"
              fill="#1E2B3C"/>
        <path d="M127.98 29.1101C134.689 29.1122 141.179 26.7204 146.282 22.365C151.386 18.0096 154.768 11.9762 155.82 5.35006L155.27 7.61006C153.787 13.7245 150.288 19.1612 145.337 23.0436C140.386 26.926 134.272 29.0278 127.98 29.0101C121.692 29.0233 115.582 26.9195 110.635 23.0374C105.688 19.1554 102.192 13.7211 100.71 7.61006L100.11 5.19006C101.129 11.8506 104.5 17.9257 109.613 22.314C114.726 26.7023 121.242 29.1134 127.98 29.1101V29.1101Z"
              fill="#1E2B3C"/>
        <path d="M127.98 270.35C121.244 270.348 114.73 272.759 109.618 277.145C104.506 281.531 101.133 287.602 100.11 294.26L100.71 291.84C102.208 285.736 105.71 280.312 110.656 276.433C115.602 272.555 121.705 270.447 127.99 270.447C134.275 270.447 140.378 272.555 145.324 276.433C150.27 280.312 153.772 285.736 155.27 291.84L155.82 294.09C154.761 287.468 151.377 281.441 146.275 277.09C141.172 272.739 134.686 270.349 127.98 270.35V270.35Z"
              fill="#1E2B3C"/>
        <path d="M99.06 298.54H0.62002V0.920068H99.06L99.04 0.820068H0.52002V298.64H99.04L99.06 298.54Z"
              fill="#1E2B3C"/>
        <path d="M127.98 252.72C137.022 252.73 145.86 255.411 153.384 260.426C160.908 265.441 166.782 272.567 170.27 280.91H237.71V18.55H170.27C166.789 26.897 160.916 34.0271 153.391 39.0425C145.865 44.0578 137.024 46.7341 127.98 46.7341C118.936 46.7341 110.095 44.0578 102.569 39.0425C95.0439 34.0271 89.1709 26.897 85.69 18.55H18.25V280.91H85.69C89.1776 272.567 95.0522 265.441 102.576 260.426C110.1 255.411 118.938 252.73 127.98 252.72V252.72ZM18.36 280.82V18.66H85.61C89.0998 27.0151 94.9868 34.1488 102.528 39.1607C110.069 44.1725 118.925 46.8378 127.98 46.82C137.038 46.8368 145.898 44.169 153.441 39.1534C160.984 34.1379 166.872 26.9996 170.36 18.64H237.61V280.82H170.36C166.862 272.467 160.974 265.334 153.434 260.317C145.895 255.3 137.041 252.624 127.985 252.624C118.929 252.624 110.075 255.3 102.536 260.317C94.9963 265.334 89.1078 272.467 85.61 280.82H18.36Z"
              fill="#1E2B3C"/>
        <path d="M0.619995 298.54H99.79C99.7902 297.107 99.8972 295.677 100.11 294.26C101.179 287.228 104.866 280.86 110.433 276.433C115.999 272.005 123.034 269.846 130.126 270.387C137.218 270.929 143.843 274.131 148.673 279.352C153.503 284.573 156.181 291.427 156.17 298.54H255.34V0.920044H156.17C156.171 2.40364 156.054 3.88494 155.82 5.35004C154.768 11.9762 151.386 18.0096 146.282 22.365C141.179 26.7204 134.689 29.1121 127.98 29.11C121.242 29.1134 114.726 26.7023 109.613 22.314C104.5 17.9257 101.129 11.8506 100.11 5.19004C99.8968 3.7767 99.7898 2.34937 99.79 0.920044H0.619995V298.54ZM18.25 18.54H85.69C89.1709 26.8869 95.0439 34.0171 102.569 39.0325C110.095 44.0478 118.936 46.7241 127.98 46.7241C137.024 46.7241 145.865 44.0478 153.391 39.0325C160.916 34.0171 166.789 26.8869 170.27 18.54H237.71V280.91H170.27C166.789 272.563 160.916 265.433 153.391 260.418C145.865 255.402 137.024 252.726 127.98 252.726C118.936 252.726 110.095 255.402 102.569 260.418C95.0439 265.433 89.1709 272.563 85.69 280.91H18.25V18.54Z"
              fill="#1E2B3C"/>
        <path d="M120.66 159.31V165.47C120.66 173.683 120.66 181.89 120.66 190.09C120.671 190.542 120.571 190.989 120.366 191.393C120.162 191.796 119.861 192.142 119.49 192.4L108.9 200.32C108.9 201.64 108.9 203 108.9 204.32V206.39L110.29 205.99L126.9 201.26C127.244 201.157 127.601 201.103 127.96 201.1C128.257 201.102 128.553 201.142 128.84 201.22L140.52 204.58L146.98 206.42V205.71C146.98 203.93 146.98 202.15 146.98 200.36L136.52 192.43C136.138 192.159 135.829 191.799 135.62 191.38C135.411 190.962 135.308 190.498 135.32 190.03V159.4C135.32 159.17 135.32 158.96 135.32 158.69L135.42 156.8L137.24 157.14L182.16 171.19V169.41C182.16 167.03 182.16 164.65 182.16 162.27L165.64 151.96C155.98 145.913 146.313 139.873 136.64 133.84C136.199 133.586 135.836 133.216 135.591 132.77C135.346 132.323 135.228 131.819 135.25 131.31C135.25 123.17 135.25 115.037 135.25 106.91V100.82C135.25 100.26 135.25 99.92 135.25 99.59C135.122 97.7468 134.321 96.015 132.998 94.7243C131.676 93.4335 129.926 92.6739 128.08 92.59C127.116 92.5855 126.161 92.7723 125.27 93.1397C124.38 93.507 123.57 94.0476 122.89 94.7301C121.472 96.1285 120.66 98.0285 120.63 100.02C120.63 110.467 120.63 120.92 120.63 131.38C120.649 131.879 120.53 132.373 120.286 132.809C120.043 133.244 119.685 133.605 119.25 133.85L73.8201 162.25C73.8201 164.77 73.8201 167.25 73.8201 169.81V171.19L120.52 156.56L120.66 159.31Z"
              fill="#1E2B3C"/>
        <path d="M117.72 165.47C117.72 173.68 117.72 181.89 117.72 190.05L107.14 197.96C106.766 198.223 106.464 198.576 106.263 198.987C106.062 199.398 105.968 199.853 105.99 200.31C105.99 201.65 105.99 203 105.99 204.31V208.31L106.28 210.08L108.08 209.68C108.31 209.68 108.49 209.59 108.65 209.54L111.13 208.83C116.67 207.25 122.19 205.67 128.06 204.06L139.74 207.39L149.94 210.3V205.69C149.94 203.92 149.94 202.15 149.94 200.39C149.971 199.906 149.876 199.422 149.664 198.985C149.452 198.549 149.13 198.175 148.73 197.9L138.21 190.02V160.53L185.08 175.2V169.4C185.08 167.04 185.08 164.67 185.08 162.32C185.106 161.818 184.993 161.319 184.753 160.878C184.513 160.437 184.155 160.071 183.72 159.82L167.23 149.51L138.23 131.36C138.23 123.22 138.23 115.087 138.23 106.96V100.59C138.23 100.2 138.23 99.8001 138.23 99.4201C138.048 96.8339 136.922 94.4049 135.065 92.5958C133.208 90.7868 130.75 89.724 128.16 89.6101C125.405 89.6205 122.764 90.7155 120.81 92.6582C118.856 94.6009 117.746 97.2349 117.72 99.9901C117.72 110.437 117.72 120.88 117.72 131.32L72.26 159.76C71.8114 160.006 71.4402 160.372 71.1877 160.817C70.9352 161.262 70.8113 161.769 70.83 162.28C70.83 164.79 70.83 167.28 70.83 169.8V175.19L117.7 160.53L117.72 165.47ZM73.79 169.82C73.79 167.3 73.79 164.82 73.79 162.26L119.3 133.82C119.734 133.575 120.093 133.214 120.336 132.779C120.58 132.343 120.699 131.849 120.68 131.35C120.68 120.897 120.68 110.443 120.68 99.9901C120.71 97.9985 121.522 96.0986 122.94 94.7001C123.62 94.0176 124.429 93.4771 125.32 93.1097C126.211 92.7424 127.166 92.5555 128.13 92.5601C129.976 92.644 131.726 93.4036 133.048 94.6943C134.37 95.9851 135.172 97.7169 135.3 99.5601C135.3 99.8901 135.3 100.23 135.3 100.79V106.89C135.3 115.017 135.3 123.15 135.3 131.29C135.278 131.799 135.396 132.304 135.641 132.75C135.886 133.196 136.249 133.566 136.69 133.82C146.37 139.82 156.037 145.86 165.69 151.94L182.21 162.25C182.21 164.63 182.21 167.01 182.21 169.39V171.17L137.29 157.12L135.47 156.78L135.37 158.67C135.37 158.94 135.37 159.15 135.37 159.38V190.01C135.358 190.478 135.461 190.942 135.67 191.36C135.879 191.779 136.188 192.139 136.57 192.41L147.12 200.34C147.12 202.13 147.12 203.91 147.12 205.69V206.4L140.52 204.58L128.85 201.25C128.563 201.172 128.267 201.132 127.97 201.13C127.611 201.133 127.254 201.187 126.91 201.29L110.3 206.02L108.91 206.42V204.35C108.91 203 108.91 201.64 108.91 200.35L119.52 192.4C119.891 192.142 120.192 191.796 120.396 191.393C120.6 190.989 120.701 190.542 120.69 190.09C120.69 181.89 120.69 173.683 120.69 165.47V159.31L120.58 156.56L73.79 171.19V169.82Z"
              fill="#1E2B3C"/>
    </g>
    <defs>
        <clipPath id="clip0_613_1861">
            <rect width="254.93" height="297.82" fill="white" transform="translate(0.52002 0.820068)"/>
        </clipPath>
    </defs>
</svg>
