<svg width="111" height="73" viewBox="0 0 111 73" fill="none" xmlns="http://www.w3.org/2000/svg">
<g clip-path="url(#clip0_613_1872)">
<path d="M22.5999 35.98C25.2546 35.98 27.8496 35.1927 30.0567 33.7176C32.2639 32.2426 33.9839 30.1461 34.9994 27.6933C36.0148 25.2406 36.28 22.5417 35.7613 19.9382C35.2427 17.3347 33.9636 14.9435 32.0858 13.0671C30.2079 11.1907 27.8158 9.91335 25.2119 9.39666C22.608 8.87998 19.9094 9.14717 17.4574 10.1644C15.0054 11.1817 12.9102 12.9033 11.4368 15.1115C9.96334 17.3198 9.17796 19.9154 9.17994 22.57C9.18523 26.1267 10.6011 29.536 13.117 32.05C15.6329 34.564 19.0433 35.9774 22.5999 35.98V35.98ZM22.5999 14.15C24.2653 14.15 25.8932 14.6438 27.2778 15.569C28.6625 16.4942 29.7417 17.8093 30.379 19.3478C31.0163 20.8864 31.183 22.5794 30.8581 24.2127C30.5333 25.846 29.7313 27.3463 28.5538 28.5239C27.3762 29.7014 25.8759 30.5033 24.2426 30.8282C22.6093 31.1531 20.9163 30.9864 19.3777 30.3491C17.8392 29.7118 16.5242 28.6326 15.599 27.2479C14.6738 25.8633 14.1799 24.2353 14.1799 22.57C14.1826 20.3377 15.0705 18.1976 16.649 16.6191C18.2275 15.0406 20.3676 14.1527 22.5999 14.15V14.15Z" fill="#1E2B3C"/>
<path d="M88.5999 35.98C91.2546 35.98 93.8496 35.1927 96.0567 33.7176C98.2638 32.2426 99.9839 30.1461 100.999 27.6933C102.015 25.2406 102.28 22.5417 101.761 19.9382C101.243 17.3347 99.9636 14.9435 98.0858 13.0671C96.2079 11.1907 93.8158 9.91335 91.2119 9.39666C88.608 8.87998 85.9094 9.14717 83.4574 10.1644C81.0054 11.1817 78.9102 12.9033 77.4367 15.1115C75.9633 17.3198 75.178 19.9154 75.1799 22.57C75.1852 26.1267 76.6011 29.536 79.117 32.05C81.6329 34.564 85.0433 35.9774 88.5999 35.98V35.98ZM88.5999 14.15C90.2653 14.15 91.8932 14.6438 93.2778 15.569C94.6625 16.4942 95.7417 17.8093 96.379 19.3478C97.0163 20.8864 97.183 22.5794 96.8581 24.2127C96.5333 25.846 95.7313 27.3463 94.5538 28.5239C93.3762 29.7014 91.8759 30.5033 90.2426 30.8282C88.6093 31.1531 86.9163 30.9864 85.3777 30.3491C83.8392 29.7118 82.5242 28.6326 81.599 27.2479C80.6738 25.8633 80.1799 24.2353 80.1799 22.57C80.1826 20.3377 81.0705 18.1976 82.649 16.6191C84.2275 15.0406 86.3676 14.1527 88.5999 14.15V14.15Z" fill="#1E2B3C"/>
<path d="M110.76 61.62C110.76 57.1605 109.415 52.8047 106.899 49.1225C104.383 45.4403 100.815 42.6032 96.6601 40.9824C92.5056 39.3617 87.9585 39.0327 83.6139 40.0386C79.2693 41.0444 75.3295 43.3383 72.31 46.62C67.4449 43.1154 61.6009 41.2297 55.6049 41.2297C49.609 41.2297 43.765 43.1154 38.9 46.62C35.8804 43.3383 31.9406 41.0444 27.596 40.0386C23.2514 39.0327 18.7043 39.3617 14.5498 40.9824C10.3952 42.6032 6.82659 45.4403 4.31087 49.1225C1.79516 52.8047 0.449498 57.1605 0.449951 61.62V64.12H27.5C27.1014 66.0378 26.9003 67.9913 26.9 69.95V72.45H84.31V69.95C84.3096 67.9913 84.1085 66.0378 83.71 64.12H110.76V61.62ZM79.18 67.45H32.03C32.6534 61.6325 35.4059 56.2509 39.7579 52.3404C44.1099 48.4299 49.7541 46.2666 55.6049 46.2666C61.4558 46.2666 67.1 48.4299 71.452 52.3404C75.804 56.2509 78.5565 61.6325 79.18 67.45V67.45ZM22.6 44.45C24.9436 44.4492 27.2625 44.9298 29.4127 45.8622C31.5629 46.7945 33.4987 48.1587 35.1 49.87C32.4968 52.5236 30.4351 55.6586 29.03 59.1H5.62995C6.24016 55.0344 8.28807 51.3224 11.4018 48.638C14.5156 45.9536 18.4888 44.4747 22.6 44.47V44.45ZM76.11 49.87C78.3152 47.5185 81.1389 45.8365 84.2568 45.0173C87.3748 44.1981 90.6606 44.2748 93.7369 45.2386C96.8132 46.2025 99.5554 48.0143 101.648 50.4662C103.742 52.9181 105.101 55.9106 105.57 59.1H82.18C80.7687 55.6677 78.7076 52.5404 76.11 49.89V49.87Z" fill="#1E2B3C"/>
<path d="M55.5999 34.9301C58.9766 34.93 62.2773 33.928 65.0841 32.0507C67.8909 30.1735 70.0775 27.5055 71.3669 24.3847C72.6564 21.2639 72.9907 17.8306 72.3276 14.5197C71.6644 11.2088 70.0337 8.16907 67.6418 5.78559C65.2499 3.40212 62.2045 1.78206 58.8912 1.13059C55.578 0.479114 52.1459 0.825531 49.0296 2.12597C45.9134 3.4264 43.2532 5.62236 41.3858 8.43575C39.5185 11.2491 38.528 14.5534 38.5399 17.9301C38.5584 22.4434 40.3636 26.7658 43.5607 29.9516C46.7578 33.1375 51.0865 34.9275 55.5999 34.9301V34.9301ZM55.5999 5.82007C57.9851 5.82007 60.3168 6.52737 62.3001 7.85254C64.2833 9.17771 65.8291 11.0612 66.7419 13.2649C67.6547 15.4686 67.8935 17.8934 67.4282 20.2329C66.9628 22.5723 65.8142 24.7212 64.1276 26.4078C62.441 28.0944 60.2921 29.243 57.9527 29.7083C55.6133 30.1737 53.1884 29.9348 50.9847 29.0221C48.7811 28.1093 46.8975 26.5635 45.5724 24.5802C44.2472 22.597 43.5399 20.2653 43.5399 17.8801C43.5425 14.6824 44.814 11.6164 47.0751 9.35528C49.3362 7.09417 52.4022 5.82271 55.5999 5.82007V5.82007Z" fill="#1E2B3C"/>
</g>
<defs>
<clipPath id="clip0_613_1872">
<rect width="110.31" height="71.63" fill="white" transform="translate(0.449951 0.820068)"/>
</clipPath>
</defs>
</svg>
