<svg width="383" height="372" viewBox="0 0 383 372" fill="none" xmlns="http://www.w3.org/2000/svg">
<g clip-path="url(#clip0_613_1883)">
<path d="M352.64 298.03C360.457 298.022 367.952 294.914 373.48 289.387C379.009 283.861 382.119 276.367 382.13 268.55V30.3001C382.119 22.483 379.009 14.9893 373.48 9.46272C367.952 3.93616 360.457 0.828005 352.64 0.820068H30.24C22.4247 0.830651 14.9325 3.93997 9.40619 9.46625C3.87991 14.9925 0.770592 22.4847 0.76001 30.3001L0.76001 371.01L73.76 298.01L352.64 298.03ZM0.87001 370.76V30.3001C0.870009 22.5097 3.96402 15.0383 9.47168 9.52881C14.9793 4.01927 22.4497 0.92272 30.24 0.920068H352.64C360.432 0.920068 367.905 4.01545 373.415 9.52527C378.925 15.0351 382.02 22.508 382.02 30.3001V268.56C382.02 272.418 381.26 276.238 379.783 279.802C378.307 283.366 376.143 286.604 373.414 289.331C370.686 292.059 367.447 294.222 363.883 295.697C360.318 297.173 356.498 297.931 352.64 297.93H73.7L0.87001 370.76Z" fill="#1E2B3C"/>
<path d="M352.64 280.3C355.755 280.3 358.744 279.064 360.948 276.863C363.153 274.662 364.395 271.676 364.4 268.56V30.3C364.395 27.1836 363.154 24.1966 360.949 21.9939C358.745 19.7912 355.756 18.5527 352.64 18.55H30.24C27.1253 18.5553 24.1397 19.795 21.9373 21.9974C19.7349 24.1998 18.4953 27.1854 18.49 30.3V328.21L61.23 285.47L66.4 280.3H352.64V280.3ZM66.35 280.19L18.6 327.95V30.3C18.6026 27.2137 19.8298 24.2546 22.0122 22.0723C24.1945 19.8899 27.1537 18.6627 30.24 18.66H352.64C355.728 18.66 358.69 19.8861 360.874 22.0687C363.059 24.2514 364.287 27.212 364.29 30.3V268.55C364.287 271.638 363.059 274.599 360.874 276.781C358.69 278.964 355.728 280.19 352.64 280.19H66.35Z" fill="#1E2B3C"/>
<path d="M382.02 268.56V30.3C382.02 22.508 378.925 15.0351 373.415 9.52525C367.905 4.01543 360.432 0.920044 352.64 0.920044H30.2401C22.4498 0.922696 14.9794 4.01925 9.47178 9.52878C3.96413 15.0383 0.870117 22.5097 0.870117 30.3V370.76L73.7001 297.93H352.64C356.498 297.931 360.318 297.173 363.883 295.697C367.447 294.222 370.686 292.059 373.414 289.331C376.143 286.604 378.307 283.366 379.784 279.802C381.26 276.238 382.02 272.418 382.02 268.56V268.56ZM61.2301 285.47L18.4901 328.21V30.3C18.4954 27.1854 19.735 24.1998 21.9375 21.9974C24.1399 19.795 27.1254 18.5553 30.2401 18.55H352.64C355.757 18.5527 358.745 19.7912 360.949 21.9939C363.154 24.1965 364.395 27.1836 364.4 30.3V268.56C364.395 271.676 363.153 274.662 360.949 276.863C358.744 279.064 355.756 280.3 352.64 280.3H66.4001L61.2301 285.47Z" fill="#1E2B3C"/>
<path d="M275.61 191.71H106.68V209.34H275.61V191.71Z" fill="#1E2B3C"/>
<path d="M275.61 139.48H106.68V157.11H275.61V139.48Z" fill="#1E2B3C"/>
<path d="M275.61 87.26H106.68V104.89H275.61V87.26Z" fill="#1E2B3C"/>
</g>
<defs>
<clipPath id="clip0_613_1883">
<rect width="381.37" height="370.19" fill="white" transform="translate(0.76001 0.820068)"/>
</clipPath>
</defs>
</svg>
