<svg width="372" height="380" viewBox="0 0 372 380" fill="none" xmlns="http://www.w3.org/2000/svg">
    <g clip-path="url(#clip0_613_1892)">
        <path d="M342.48 0.820068H29.4799C21.693 0.82802 14.2278 3.92691 8.72448 9.43587C3.22114 14.9448 0.129879 22.4132 0.129883 30.2001L0.129883 282.04C0.129883 285.898 0.889891 289.718 2.3665 293.282C3.8431 296.846 6.00738 300.084 8.73569 302.811C11.464 305.539 14.7029 307.702 18.2674 309.177C21.8319 310.653 25.6521 311.411 29.5099 311.41H131.61V361.82H96.7599V379.45H270.67V361.82H235.91V311.41H342.48C346.338 311.411 350.158 310.653 353.722 309.177C357.287 307.702 360.526 305.539 363.254 302.811C365.982 300.084 368.147 296.846 369.623 293.282C371.1 289.718 371.86 285.898 371.86 282.04V30.2001C371.86 22.408 368.764 14.9351 363.255 9.42527C357.745 3.91545 350.272 0.820068 342.48 0.820068V0.820068ZM218.28 314.44V360.38H149.28V314.44H218.28ZM354.28 282.04C354.281 283.589 353.977 285.123 353.384 286.554C352.791 287.985 351.922 289.285 350.825 290.38C349.729 291.474 348.428 292.341 346.996 292.932C345.563 293.522 344.029 293.824 342.48 293.82H29.4799C26.3635 293.817 23.3753 292.579 21.1708 290.376C18.9662 288.174 17.7252 285.186 17.7199 282.07V30.2001C17.7278 27.0793 18.9738 24.0892 21.1843 21.8862C23.3948 19.6832 26.3891 18.4474 29.5099 18.4501H342.51C345.625 18.4553 348.612 19.6947 350.816 21.8968C353.02 24.0989 354.262 27.0845 354.27 30.2001L354.28 282.04Z"
              fill="#1E2B3C"/>
        <path d="M76.0198 146.23H132.18C135.628 146.23 138.934 144.86 141.372 142.422C143.81 139.984 145.18 136.678 145.18 133.23V77.0701C145.18 73.6223 143.81 70.3157 141.372 67.8777C138.934 65.4397 135.628 64.0701 132.18 64.0701H76.0198C72.572 64.0701 69.2654 65.4397 66.8274 67.8777C64.3894 70.3157 63.0198 73.6223 63.0198 77.0701V133.22C63.0185 134.928 63.3538 136.62 64.0065 138.198C64.6592 139.776 65.6166 141.211 66.8239 142.419C68.0311 143.627 69.4647 144.586 71.0426 145.24C72.6205 145.893 74.3118 146.23 76.0198 146.23ZM84.4198 97.5701L96.6598 109.82L123.79 82.6801L132.19 91.0901L96.6598 126.62L76.0198 105.98L84.4198 97.5701Z"
              fill="#1E2B3C"/>
        <path d="M304.83 189.53H55.6699V207.16H304.83V189.53Z" fill="#1E2B3C"/>
        <path d="M174.08 236.54H55.6699V254.17H174.08V236.54Z" fill="#1E2B3C"/>
    </g>
    <defs>
        <clipPath id="clip0_613_1892">
            <rect width="371.73" height="378.65" fill="white" transform="translate(0.129883 0.820068)"/>
        </clipPath>
    </defs>
</svg>
