<svg width="452" height="323" viewBox="0 0 452 323" fill="none" xmlns="http://www.w3.org/2000/svg">
    <g clip-path="url(#clip0_613_1901)">
        <path d="M343.33 97.9601C334.302 68.3861 315.535 42.7359 290.08 25.1805C264.626 7.62512 233.981 -0.802981 203.129 1.26671C172.277 3.33641 143.033 15.7822 120.151 36.5802C97.2697 57.3782 82.0968 85.3052 77.0999 115.82C52.6451 122.91 31.5712 138.588 17.7524 159.974C3.93363 181.359 -1.70121 207.014 1.88379 232.223C5.46878 257.431 18.0327 280.498 37.2657 297.183C56.4987 313.868 81.1082 323.049 106.57 323.04H342.94V322.93C371.99 321.819 399.484 309.51 419.663 288.582C439.841 267.654 451.138 239.729 451.189 210.657C451.239 181.586 440.039 153.622 419.933 132.624C399.827 111.626 372.376 99.2217 343.33 98.0101V97.9601ZM340.04 304.32H106.57C85.5799 304.376 65.2773 296.841 49.4056 283.106C33.5339 269.37 23.1633 250.359 20.206 229.578C17.2486 208.797 21.9039 187.648 33.3135 170.03C44.7231 152.411 62.1176 139.512 82.2899 133.71L93.6399 130.41L95.5199 118.75C99.796 92.3535 112.889 68.1844 132.664 50.1838C152.439 32.1833 177.729 21.4134 204.41 19.6304C231.091 17.8474 257.589 25.1565 279.583 40.3658C301.577 55.5751 317.77 77.7872 325.52 103.38L329.37 116.06L342.6 116.61C366.808 117.651 389.677 128.01 406.424 145.522C423.171 163.034 432.499 186.343 432.458 210.574C432.417 234.804 423.009 258.081 406.203 275.536C389.396 292.991 366.492 303.272 342.28 304.23L340.04 304.32Z"
              fill="#1E2B3C"/>
    </g>
    <defs>
        <clipPath id="clip0_613_1901">
            <rect width="450.3" height="322.17" fill="white" transform="translate(0.859863 0.820068)"/>
        </clipPath>
    </defs>
</svg>
