<svg width="263" height="314" viewBox="0 0 263 314" fill="none" xmlns="http://www.w3.org/2000/svg">
    <g clip-path="url(#clip0_613_1905)">
        <path d="M131.3 313.93C165.373 313.953 198.119 300.729 222.621 277.052C247.123 253.376 261.461 221.101 262.605 187.047C263.749 152.994 251.609 119.83 228.751 94.5623C205.893 69.2948 174.107 53.9033 140.11 51.64V18.1H174.11V0.469971H88.48V18.1H122.48V51.64C88.4819 53.9033 56.6953 69.2955 33.8371 94.5641C10.979 119.833 -1.16005 152.998 -0.0149149 187.052C1.13022 221.107 15.4698 253.382 39.9738 277.058C64.4778 300.734 97.2266 313.956 131.3 313.93V313.93ZM131.3 68.93C153.783 68.928 175.762 75.5928 194.457 88.0816C213.152 100.57 227.724 118.322 236.331 139.093C244.937 159.863 247.192 182.719 242.809 204.771C238.426 226.822 227.603 247.079 211.708 262.98C195.813 278.88 175.56 289.711 153.51 294.101C131.46 298.492 108.603 296.245 87.8297 287.646C67.0562 279.047 49.2992 264.481 36.8038 245.79C24.3085 227.099 17.6359 205.123 17.63 182.64C17.6618 152.502 29.6476 123.607 50.9577 102.295C72.2677 80.9827 101.162 68.9944 131.3 68.96V68.93Z"
              fill="#1E2B3C"/>
        <path d="M189.14 186.3H140.11V115.8H122.48V203.93H189.14V186.3Z" fill="#1E2B3C"/>
    </g>
    <defs>
        <clipPath id="clip0_613_1905">
            <rect width="262.59" height="313.46" fill="white" transform="translate(0 0.469971)"/>
        </clipPath>
    </defs>
</svg>
