<svg width="501" height="380" viewBox="0 0 501 380" fill="none" xmlns="http://www.w3.org/2000/svg">
<g clip-path="url(#clip0_613_1910)">
<path d="M474.82 111.47H429.99V29.85C429.99 25.9901 429.229 22.168 427.752 18.6021C426.274 15.0363 424.108 11.7966 421.378 9.06811C418.647 6.33966 415.406 4.17596 411.839 2.70065C408.273 1.22535 404.45 0.46735 400.59 0.469978H87.59C79.8049 0.480577 72.3422 3.58064 66.8411 9.08931C61.3399 14.598 58.25 22.0648 58.25 29.85V113.99C63.4324 108.93 69.3826 104.721 75.88 101.52V29.85C75.8879 26.7344 77.1298 23.7488 79.3338 21.5467C81.5378 19.3446 84.5244 18.1053 87.64 18.1H400.59C403.706 18.1053 406.692 19.3446 408.896 21.5467C411.1 23.7488 412.342 26.7344 412.35 29.85V111.47H372.74C369.359 111.47 366.011 112.136 362.887 113.43C359.764 114.724 356.926 116.621 354.536 119.013C352.145 121.404 350.249 124.243 348.956 127.367C347.663 130.491 346.999 133.839 347 137.22V293.47H87.64C84.5236 293.467 81.5354 292.229 79.3309 290.026C77.1263 287.823 75.8853 284.836 75.88 281.72V255.07H58.25V281.69C58.2513 285.548 59.0125 289.368 60.4902 292.932C61.9679 296.496 64.1332 299.735 66.8623 302.462C69.5914 305.189 72.831 307.352 76.396 308.827C79.961 310.303 83.7818 311.061 87.64 311.06H189.73V361.47H154.89V379.1H189.73V379.19H294.03V379.1H328.8V361.47H294.03V311.06H347.03V353.47C347.029 356.851 347.694 360.199 348.986 363.323C350.279 366.447 352.175 369.286 354.566 371.677C356.956 374.069 359.794 375.965 362.917 377.26C366.041 378.554 369.389 379.22 372.77 379.22H474.82C478.204 379.224 481.555 378.561 484.682 377.268C487.809 375.976 490.65 374.08 493.044 371.688C495.437 369.296 497.336 366.456 498.631 363.33C499.926 360.204 500.591 356.854 500.59 353.47V137.18C500.586 133.8 499.916 130.453 498.619 127.332C497.322 124.211 495.423 121.375 493.03 118.988C490.637 116.6 487.797 114.708 484.673 113.418C481.548 112.128 478.2 111.466 474.82 111.47V111.47ZM207.37 361.47V314.11H276.37V361.47H207.37ZM485.07 353.47C485.067 356.189 483.987 358.795 482.066 360.718C480.144 362.642 477.539 363.725 474.82 363.73H372.74C370.021 363.725 367.416 362.642 365.494 360.718C363.573 358.795 362.493 356.189 362.49 353.47V137.18C362.493 134.461 363.573 131.855 365.494 129.932C367.416 128.008 370.021 126.925 372.74 126.92H474.82C477.539 126.925 480.144 128.008 482.066 129.932C483.987 131.855 485.067 134.461 485.07 137.18V353.47Z" fill="#1E2B3C"/>
<path d="M443.15 141.34H404.39V153.31H443.15V141.34Z" fill="#1E2B3C"/>
<path d="M53.26 255.07H171.03C185.504 254.515 199.202 248.381 209.255 237.953C219.308 227.525 224.936 213.611 224.961 199.126C224.985 184.642 219.404 170.709 209.387 160.247C199.369 149.785 185.692 143.604 171.22 143C166.736 128.259 157.396 115.469 144.719 106.712C132.042 97.9541 116.774 93.7447 101.4 94.7682C86.0261 95.7918 71.4511 101.988 60.0467 112.349C48.6423 122.709 41.0799 136.625 38.59 151.83C26.4055 155.36 15.9048 163.17 9.01845 173.824C2.13212 184.477 -0.676951 197.259 1.10769 209.818C2.89234 222.378 9.15073 233.871 18.7323 242.185C28.3138 250.498 40.5744 255.074 53.26 255.07V255.07ZM42.71 166.07L51.71 163.46L53.21 154.17C55.1964 141.646 61.5985 130.246 71.2586 122.031C80.9187 113.816 93.1993 109.329 105.88 109.38C117.313 109.435 128.431 113.135 137.617 119.942C146.804 126.748 153.579 136.308 156.96 147.23L160.02 157.33L170.56 157.77C181.209 158.194 191.28 162.728 198.658 170.419C206.036 178.11 210.147 188.36 210.129 199.017C210.111 209.675 205.965 219.911 198.561 227.577C191.157 235.243 181.071 239.742 170.42 240.13L169.37 240.18H53.26C44.1603 240.173 35.3683 236.885 28.4976 230.918C21.6269 224.952 17.1384 216.708 15.8559 207.699C14.5734 198.69 16.583 189.521 21.5158 181.874C26.4486 174.227 33.9737 168.616 42.71 166.07V166.07Z" fill="#1E2B3C"/>
</g>
<defs>
<clipPath id="clip0_613_1910">
<rect width="499.97" height="378.74" fill="white" transform="translate(0.589996 0.469971)"/>
</clipPath>
</defs>
</svg>
