<svg width="234" height="377" viewBox="0 0 234 377" fill="none" xmlns="http://www.w3.org/2000/svg">
<g clip-path="url(#clip0_613_1919)">
<path d="M30.04 0.469971C22.2247 0.480553 14.7325 3.58987 9.20618 9.11615C3.6799 14.6424 0.57058 22.1346 0.559998 29.95L0.559998 346.72C0.567935 354.537 3.67608 362.032 9.20265 367.56C14.7292 373.089 22.2229 376.199 30.04 376.21H203.82C211.637 376.199 219.131 373.089 224.657 367.56C230.184 362.032 233.292 354.537 233.3 346.72V29.95C233.292 22.1338 230.184 14.6401 224.657 9.11323C219.13 3.58638 211.636 0.477913 203.82 0.469971L30.04 0.469971ZM18.4 29.95C18.4026 26.8637 19.6298 23.9045 21.8122 21.7222C23.9945 19.5398 26.9537 18.3126 30.04 18.31H203.82C206.907 18.3126 209.867 19.5395 212.051 21.7216C214.235 23.9036 215.465 26.8627 215.47 29.95V346.72C215.465 349.808 214.236 352.768 212.052 354.952C209.868 357.136 206.908 358.365 203.82 358.37H30.04C26.9528 358.365 23.9937 357.135 21.8116 354.951C19.6295 352.767 18.4026 349.807 18.4 346.72V29.95Z" fill="#1E2B3C"/>
<path d="M146.28 45.99H87.58V63.83H146.28V45.99Z" fill="#1E2B3C"/>
</g>
<defs>
<clipPath id="clip0_613_1919">
<rect width="232.74" height="375.74" fill="white" transform="translate(0.559998 0.469971)"/>
</clipPath>
</defs>
</svg>
