<svg width="365" height="371" viewBox="0 0 365 371" fill="none" xmlns="http://www.w3.org/2000/svg">
<g clip-path="url(#clip0_613_1924)">
<path d="M254.3 0.469971H29.69C21.8971 0.46997 14.4231 3.56504 8.91172 9.07457C3.40031 14.5841 0.3027 22.057 0.300049 29.85L0.300049 340.93C0.3027 348.723 3.40031 356.196 8.91172 361.705C14.4231 367.215 21.8971 370.31 29.69 370.31H254.3C262.09 370.307 269.561 367.211 275.068 361.701C280.576 356.192 283.67 348.72 283.67 340.93V241.64C286.386 239.93 289 238.063 291.5 236.05L352.22 296.78L364.68 284.32L303.96 223.6C311.233 214.579 316.512 204.119 319.448 192.909C322.384 181.699 322.911 169.994 320.994 158.566C319.077 147.137 314.759 136.245 308.326 126.607C301.892 116.969 293.489 108.804 283.67 102.65V29.85C283.67 22.0596 280.576 14.5882 275.068 9.07871C269.561 3.56918 262.09 0.472622 254.3 0.469971V0.469971ZM240.05 236.59C227.305 236.592 214.846 232.815 204.247 225.735C193.649 218.656 185.388 208.593 180.509 196.819C175.63 185.045 174.352 172.089 176.836 159.588C179.321 147.088 185.456 135.605 194.467 126.591C203.478 117.578 214.959 111.438 227.459 108.95C239.958 106.462 252.915 107.736 264.691 112.611C276.467 117.487 286.532 125.745 293.614 136.341C300.697 146.937 304.478 159.395 304.48 172.14C304.464 189.225 297.672 205.606 285.593 217.688C273.514 229.771 257.135 236.569 240.05 236.59V236.59ZM254.3 352.68H29.69C26.5736 352.677 23.5855 351.439 21.3809 349.236C19.1764 347.033 17.9353 344.046 17.93 340.93V29.85C17.9353 26.7336 19.1764 23.7465 21.3809 21.5438C23.5855 19.3411 26.5736 18.1026 29.69 18.1H254.3C257.416 18.1026 260.403 19.3414 262.606 21.5444C264.809 23.7474 266.047 26.7345 266.05 29.85V94.32C255.724 90.87 244.815 89.5089 233.958 90.3161C223.101 91.1233 212.513 94.0826 202.811 99.0217C193.108 103.961 184.486 110.781 177.445 119.085C170.404 127.389 165.086 137.011 161.8 147.39H58.3V165.01H158.3C158.09 167.37 157.97 169.74 157.97 172.14C157.963 181.499 159.559 190.79 162.69 199.61H58.3V217.24H171.5C181.439 232.365 196.102 243.777 213.205 249.697C230.307 255.617 248.887 255.713 266.05 249.97V340.97C266.037 344.079 264.793 347.055 262.592 349.25C260.39 351.444 257.409 352.677 254.3 352.68V352.68Z" fill="#1E2B3C"/>
<path d="M141.99 95.1699H58.3401V112.8H141.99V95.1699Z" fill="#1E2B3C"/>
<path d="M141.99 251.83H58.3401V269.46H141.99V251.83Z" fill="#1E2B3C"/>
</g>
<defs>
<clipPath id="clip0_613_1924">
<rect width="364.38" height="369.84" fill="white" transform="translate(0.300049 0.469971)"/>
</clipPath>
</defs>
</svg>
