<svg width="350" height="380" viewBox="0 0 350 380" fill="none" xmlns="http://www.w3.org/2000/svg">
<g clip-path="url(#clip0_613_1931)">
<path d="M174.86 0.469971C78.82 0.469971 0.680054 78.61 0.680054 174.65C0.701521 206.021 9.18794 236.805 25.2444 263.756C41.3009 290.707 64.3323 312.826 91.9101 327.78L86.5901 350.63C85.7856 354.078 85.7705 357.663 86.5459 361.117C87.3214 364.572 88.8674 367.806 91.0684 370.579C93.2693 373.352 96.0685 375.592 99.2566 377.132C102.445 378.671 105.94 379.471 109.48 379.47H121.68C126.665 379.512 131.532 377.948 135.56 375.011C139.589 372.074 142.565 367.919 144.05 363.16L149.76 347.02C166.415 349.447 183.335 349.447 199.99 347.02L205.57 362.76C207.006 367.602 209.973 371.847 214.026 374.86C218.079 377.873 223 379.49 228.05 379.47H240.24C243.779 379.47 247.273 378.671 250.46 377.132C253.648 375.593 256.446 373.354 258.647 370.582C260.848 367.811 262.394 364.577 263.17 361.124C263.947 357.671 263.933 354.087 263.13 350.64L257.82 327.79C285.395 312.834 308.424 290.714 324.479 263.764C340.533 236.813 349.018 206.03 349.04 174.66C349.04 78.61 270.91 0.469971 174.86 0.469971ZM245.96 354.63C246.16 355.491 246.164 356.386 245.969 357.249C245.775 358.112 245.389 358.919 244.839 359.611C244.289 360.304 243.59 360.863 242.793 361.247C241.997 361.631 241.124 361.83 240.24 361.83H228.05C226.721 361.813 225.435 361.355 224.394 360.528C223.353 359.7 222.617 358.551 222.3 357.26L190.1 266.33C188.981 263.184 186.916 260.462 184.188 258.537C181.461 256.612 178.204 255.579 174.865 255.579C171.526 255.579 168.27 256.612 165.542 258.537C162.814 260.462 160.749 263.184 159.63 266.33L127.29 357.65C126.934 358.862 126.193 359.926 125.179 360.68C124.165 361.434 122.934 361.838 121.67 361.83H109.48C108.594 361.833 107.719 361.634 106.921 361.25C106.123 360.866 105.422 360.306 104.872 359.612C104.321 358.918 103.935 358.108 103.743 357.244C103.55 356.379 103.556 355.482 103.76 354.62L136.68 213.37C137.826 208.489 137.376 203.369 135.396 198.763C133.416 194.157 130.01 190.307 125.68 187.78L71.6801 155.98C69.0217 154.424 66.9884 151.991 65.9299 149.098C64.8714 146.205 64.8538 143.034 65.8801 140.13C67.5501 135.45 74.1201 136.84 78.0801 138.13C78.0801 138.13 112.19 148.5 115.01 149.37C141.54 157.43 173.51 157.55 174.85 157.55C176.2 157.55 208.17 157.43 234.71 149.36L271.82 138.07C275.59 136.84 282.15 135.44 283.82 140.07C284.846 142.979 284.826 146.155 283.764 149.052C282.702 151.948 280.664 154.384 278 155.94L224 187.73C219.67 190.253 216.265 194.098 214.285 198.702C212.304 203.305 211.854 208.422 213 213.3L245.96 354.63ZM174.86 276.12L193.86 329.83C181.224 331.377 168.446 331.377 155.81 329.83L174.86 276.12ZM230.27 209.36C229.982 208.143 230.092 206.866 230.584 205.716C231.075 204.566 231.922 203.603 233 202.97L286.94 171.2C293.146 167.569 297.89 161.886 300.355 155.132C302.819 148.377 302.849 140.974 300.44 134.2C296.89 124.2 285.82 114.86 266.52 121.26C266.52 121.26 232.36 131.64 229.58 132.5C205.75 139.74 175.52 139.92 174.86 139.92C174.2 139.92 144.03 139.75 120.16 132.5C117.37 131.64 83.4101 121.32 83.4101 121.32C63.8701 114.88 52.8301 124.24 49.2801 134.21C46.8671 140.982 46.8934 148.384 49.3543 155.138C51.8152 161.893 56.5564 167.577 62.7601 171.21L116.76 202.99C117.842 203.623 118.692 204.586 119.187 205.738C119.682 206.89 119.795 208.169 119.51 209.39L96.1201 309.67C72.522 295.905 52.941 276.198 39.3264 252.513C25.7117 228.828 18.5382 201.989 18.5201 174.67C18.5201 88.47 88.68 18.31 174.86 18.31C261.04 18.31 331.2 88.47 331.2 174.65C331.182 201.969 324.008 228.808 310.394 252.493C296.779 276.178 277.198 295.885 253.6 309.65L230.27 209.36Z" fill="#1E2B3C"/>
<path d="M206.51 100.47C206.54 96.3321 205.751 92.2293 204.187 88.3983C202.623 84.5673 200.315 81.084 197.398 78.1497C194.48 75.2154 191.01 72.8881 187.188 71.3022C183.366 69.7163 179.268 68.9033 175.13 68.91L174.89 67.47V68.94C157.12 68.94 143.5 82.27 143.22 99.94C143.077 104.168 143.795 108.381 145.328 112.324C146.862 116.267 149.18 119.858 152.142 122.879C155.103 125.899 158.648 128.287 162.56 129.898C166.472 131.509 170.67 132.309 174.9 132.25H175.29C179.432 132.233 183.53 131.396 187.347 129.786C191.164 128.176 194.624 125.825 197.527 122.87C200.43 119.915 202.719 116.414 204.26 112.569C205.802 108.724 206.567 104.612 206.51 100.47V100.47ZM194.76 100.47C194.831 103.082 194.376 105.682 193.421 108.114C192.466 110.546 191.032 112.762 189.203 114.628C187.374 116.494 185.188 117.973 182.776 118.977C180.363 119.981 177.773 120.488 175.16 120.47C172.466 120.567 169.781 120.104 167.275 119.112C164.768 118.119 162.494 116.619 160.597 114.704C158.699 112.789 157.218 110.502 156.248 107.987C155.278 105.472 154.84 102.783 154.96 100.09C155.14 88.83 163.52 80.66 174.89 80.66H175.04C177.647 80.6247 180.235 81.1137 182.649 82.0979C185.063 83.0821 187.255 84.5414 189.095 86.3893C190.934 88.2371 192.384 90.4357 193.357 92.8545C194.33 95.2734 194.807 97.8631 194.76 100.47V100.47Z" fill="#1E2B3C"/>
<path d="M175.15 65.99H174.89C155.47 65.99 140.59 80.56 140.27 99.88C140.122 104.499 140.912 109.1 142.592 113.405C144.271 117.711 146.805 121.631 150.042 124.93C153.278 128.229 157.149 130.838 161.422 132.6C165.694 134.361 170.279 135.239 174.9 135.18H175.31C184.484 135.159 193.274 131.494 199.745 124.992C206.217 118.49 209.841 109.684 209.82 100.51C209.799 91.3362 206.134 82.5465 199.632 76.0746C193.13 69.6027 184.324 65.9788 175.15 66V65.99ZM152.2 122.93C149.239 119.893 146.916 116.292 145.37 112.342C143.824 108.391 143.086 104.171 143.2 99.93C143.48 82.26 157.1 68.93 174.87 68.93V67.47L175.11 68.94C183.504 68.9188 191.563 72.233 197.513 78.1535C203.464 84.074 206.819 92.1159 206.84 100.51C206.861 108.904 203.547 116.963 197.627 122.913C191.706 128.864 183.664 132.219 175.27 132.24H174.88C170.67 132.281 166.494 131.478 162.598 129.879C158.703 128.28 155.168 125.917 152.2 122.93Z" fill="#1E2B3C"/>
<path d="M175.04 80.6799H174.89C163.52 80.6799 155.14 88.8499 154.96 100.11C154.842 102.801 155.283 105.488 156.255 108.001C157.226 110.514 158.707 112.798 160.604 114.711C162.502 116.623 164.775 118.122 167.28 119.113C169.785 120.104 172.468 120.566 175.16 120.47C180.362 120.339 185.306 118.176 188.934 114.445C192.561 110.713 194.584 105.71 194.568 100.506C194.552 95.3024 192.5 90.3115 188.85 86.6021C185.2 82.8927 180.243 80.7598 175.04 80.6599V80.6799ZM174.89 82.1499L175.03 83.6199C179.34 83.913 183.377 85.8362 186.321 88.9987C189.264 92.1611 190.893 96.3256 190.877 100.646C190.86 104.966 189.199 109.118 186.232 112.258C183.264 115.398 179.212 117.29 174.9 117.55C172.617 117.612 170.346 117.202 168.23 116.345C166.113 115.487 164.197 114.202 162.601 112.569C161.004 110.936 159.763 108.991 158.954 106.856C158.145 104.72 157.786 102.441 157.9 100.16C158.04 90.5699 165.19 83.6199 174.9 83.6199V82.1499H174.89Z" fill="#1E2B3C"/>
</g>
<defs>
<clipPath id="clip0_613_1931">
<rect width="348.36" height="378.99" fill="white" transform="translate(0.680054 0.469971)"/>
</clipPath>
</defs>
</svg>
