<svg width="107" height="101" viewBox="0 0 107 101" fill="none" xmlns="http://www.w3.org/2000/svg">
<g clip-path="url(#clip0_613_1942)">
<path d="M105.94 45.31C105.565 43.9664 104.852 42.741 103.87 41.75C102.372 40.1733 100.334 39.2217 98.1635 39.0863C95.9931 38.9509 93.852 39.6417 92.17 41.02L70.41 57.92C70.1761 57.3087 69.8635 56.7305 69.48 56.2C68.8601 55.3405 68.0418 54.6435 67.0947 54.1682C66.1475 53.6929 65.0996 53.4533 64.04 53.47H32.84C28.593 53.4601 24.5138 55.1277 21.49 58.11L0.0400391 79.11L21.04 100.63L36.19 85.29H71.19C72.515 85.2889 73.8246 85.0057 75.0315 84.4591C76.2385 83.9125 77.3152 83.1151 78.19 82.12C84.19 75.3 102.74 54.36 103.61 53.42C104.697 52.2935 105.496 50.9213 105.94 49.42C106.316 48.0758 106.316 46.6542 105.94 45.31V45.31ZM100.04 50.12C99.04 51.24 80.1 72.57 74.54 78.91C74.3177 79.1588 74.0697 79.3834 73.8 79.58C73.0426 80.1251 72.1332 80.4189 71.2 80.42H34.16L21.04 93.69L6.91004 79.19L23.95 62.47L24.89 61.54C25.14 61.3 25.4 61.06 25.66 60.85C27.6993 59.1834 30.2565 58.2815 32.89 58.3H64.04C64.4578 58.2855 64.8688 58.4084 65.21 58.65C65.5796 59.0364 65.8605 59.4987 66.0331 60.0047C66.2058 60.5107 66.2662 61.0483 66.21 61.58C66.21 64.03 64.83 67.43 62.21 67.43L45.3 67.54V72.47L62.3 72.41C67.04 72.41 70.21 68.21 70.96 63.72C71.1025 63.6522 71.2367 63.5684 71.36 63.47L95.36 44.8C95.9647 44.2505 96.7531 43.9473 97.57 43.95C98.1005 43.9626 98.6235 44.0781 99.11 44.29C99.6207 44.5064 100.083 44.8226 100.47 45.22C101.29 45.98 102.29 47.74 100.04 50.12Z" fill="#1E2B3C"/>
<path d="M73.98 4.98007C72.6659 3.55021 71.0687 2.40937 69.29 1.63007C67.4959 0.85911 65.5627 0.464309 63.61 0.470069C60.6277 0.450226 57.7279 1.44856 55.39 3.30007C54.9785 3.6114 54.5846 3.94525 54.21 4.30007C53.83 3.94007 53.43 3.60007 53.03 3.30007C50.6858 1.45279 47.7845 0.455122 44.8 0.470069C42.8539 0.456421 40.9265 0.850699 39.1422 1.62749C37.3578 2.40428 35.756 3.54635 34.44 4.98007C31.7919 7.94653 30.3631 11.8044 30.44 15.7801C30.44 20.0001 31.96 23.7801 35.24 27.7801C37.92 31.0501 41.7 34.2701 46.04 38.0001L46.86 38.7001C48.11 39.7701 49.47 40.9301 50.86 42.1501C51.7724 42.9517 52.9454 43.3937 54.16 43.3937C55.3745 43.3937 56.5475 42.9517 57.46 42.1501C59.17 40.6501 60.82 39.2501 62.3 38.0001L62.45 37.8701C66.76 34.1901 70.45 31.0001 73.18 27.7601C76.46 23.7601 77.98 19.9901 77.98 15.7601C78.0449 11.7924 76.6173 7.94504 73.98 4.98007V4.98007ZM69.37 24.5701C66.96 27.4801 63.37 30.5701 59.24 34.0701L59.1 34.1901C57.62 35.4401 55.94 36.8701 54.2 38.3901C52.79 37.1501 51.41 35.9801 50.2 34.9001L48.68 33.6001C45.2517 30.8604 42.0481 27.8508 39.1 24.6001C36.57 21.6001 35.45 18.8501 35.45 15.8201C35.3645 13.09 36.3147 10.4286 38.11 8.37007C38.9611 7.44671 39.996 6.71167 41.1481 6.21223C42.3003 5.71278 43.5442 5.45998 44.8 5.47007C46.6762 5.45444 48.501 6.08272 49.97 7.25007C50.8153 7.91529 51.5626 8.6963 52.19 9.57007L54.19 12.3501L56.19 9.57007C56.8146 8.69403 57.5623 7.91265 58.41 7.25007C59.8833 6.06957 61.7223 5.44006 63.61 5.47007C64.8657 5.45998 66.1096 5.71278 67.2618 6.21223C68.414 6.71167 69.4489 7.44671 70.3 8.37007C72.1164 10.4054 73.0953 13.0527 73.04 15.7801C73.04 18.8101 71.89 21.5201 69.37 24.5701Z" fill="#1E2B3C"/>
</g>
<defs>
<clipPath id="clip0_613_1942">
<rect width="106.18" height="100.16" fill="white" transform="translate(0.0400391 0.469971)"/>
</clipPath>
</defs>
</svg>
