<svg width="367" height="305" viewBox="0 0 367 305" fill="none" xmlns="http://www.w3.org/2000/svg">
<g clip-path="url(#clip0_613_1952)">
<path d="M29.6 304.65H337.31C341.168 304.651 344.988 303.893 348.552 302.417C352.117 300.942 355.356 298.779 358.084 296.051C360.812 293.324 362.977 290.086 364.453 286.522C365.93 282.958 366.69 279.138 366.69 275.28V136.62V118.79V80.96C366.69 77.1022 365.93 73.2822 364.453 69.7182C362.977 66.1543 360.812 62.9161 358.084 60.1887C355.356 57.4613 352.117 55.2982 348.552 53.8228C344.988 52.3474 341.168 51.5887 337.31 51.59H275.75V38.66C275.737 28.5354 271.709 18.8293 264.55 11.6702C257.391 4.51103 247.685 0.4832 237.56 0.469971L121.05 0.469971C110.925 0.480559 101.217 4.50754 94.0573 11.6673C86.8975 18.827 82.8706 28.5346 82.86 38.66V51.59H29.6C21.8096 51.59 14.3382 54.684 8.82871 60.1916C3.31918 65.6993 0.222622 73.1696 0.219971 80.96L0.219971 275.28C0.222622 283.07 3.31918 290.541 8.82871 296.048C14.3382 301.556 21.8096 304.65 29.6 304.65ZM29.6 69.21H337.31C340.426 69.2152 343.412 70.4546 345.616 72.6567C347.82 74.8588 349.062 77.8444 349.07 80.96V118.79H17.85V80.96C17.8553 77.8453 19.0949 74.8597 21.2973 72.6573C23.4997 70.4549 26.4853 69.2153 29.6 69.21V69.21ZM337.31 287.03H29.6C26.4845 287.027 23.4974 285.789 21.2944 283.586C19.0914 281.383 17.8526 278.395 17.85 275.28V136.62H349.07V275.28C349.065 278.396 347.824 281.383 345.619 283.586C343.415 285.789 340.426 287.027 337.31 287.03V287.03ZM100.49 38.66C100.495 33.2087 102.663 27.9823 106.518 24.1277C110.372 20.2731 115.599 18.1053 121.05 18.1H237.56C243.01 18.1079 248.235 20.2766 252.089 24.1306C255.943 27.9847 258.112 33.2096 258.12 38.66V51.59H100.49V38.66Z" fill="#1E2B3C"/>
</g>
<defs>
<clipPath id="clip0_613_1952">
<rect width="366.47" height="304.18" fill="white" transform="translate(0.219971 0.469971)"/>
</clipPath>
</defs>
</svg>
