<svg width="451" height="243" viewBox="0 0 451 243" fill="none" xmlns="http://www.w3.org/2000/svg">
<g clip-path="url(#clip0_613_1958)">
<path d="M225.84 242.83C350.18 242.83 450.99 121.66 450.99 121.66C450.99 121.66 350.18 0.469971 225.84 0.469971C101.5 0.469971 0.689941 121.66 0.689941 121.66C0.689941 121.66 101.49 242.83 225.84 242.83ZM225.84 19.14C317.4 19.14 397.36 92.36 425.69 121.67C397.41 151.01 317.69 224.17 225.84 224.17C134.28 224.17 54.3199 150.95 25.9899 121.64C54.2799 92.3 134.02 19.14 225.84 19.14V19.14Z" fill="#1E2B3C"/>
<path d="M225.84 181.6C237.709 181.6 249.311 178.08 259.179 171.485C269.047 164.889 276.738 155.516 281.277 144.549C285.817 133.583 287.002 121.516 284.683 109.876C282.364 98.2358 276.645 87.5449 268.249 79.1558C259.852 70.7666 249.157 65.0561 237.515 62.7467C225.872 60.4372 213.807 61.6325 202.844 66.1815C191.882 70.7304 182.514 78.4285 175.927 88.3021C169.341 98.1756 165.83 109.781 165.84 121.65C165.853 137.554 172.18 152.803 183.431 164.044C194.682 175.285 209.936 181.6 225.84 181.6ZM225.84 79.3299C234.213 79.3279 242.398 81.8091 249.361 86.4596C256.324 91.1101 261.751 97.7211 264.956 105.456C268.161 113.191 269 121.703 267.367 129.916C265.734 138.128 261.702 145.671 255.782 151.592C249.861 157.512 242.318 161.544 234.106 163.177C225.893 164.81 217.381 163.971 209.646 160.766C201.911 157.561 195.3 152.134 190.65 145.171C185.999 138.208 183.518 130.023 183.52 121.65C183.533 110.43 187.996 99.6734 195.93 91.7397C203.863 83.8061 214.62 79.3431 225.84 79.3299V79.3299Z" fill="#1E2B3C"/>
</g>
<defs>
<clipPath id="clip0_613_1958">
<rect width="450.3" height="242.36" fill="white" transform="translate(0.689941 0.469971)"/>
</clipPath>
</defs>
</svg>
