<svg width="32" height="32" viewBox="0 0 32 32" fill="none" xmlns="http://www.w3.org/2000/svg">
    <g id="circle-big-corp">
        <path id="Layer 1"
              d="M16.0049 0.276367C7.47988 0.276367 0.504883 7.25137 0.504883 15.7764C0.504883 24.3014 7.47988 31.2764 16.0049 31.2764C24.5299 31.2764 31.5049 24.3014 31.5049 15.7764C31.5049 7.25137 24.5299 0.276367 16.0049 0.276367ZM11.6993 21.8041H9.11599V20.943H11.6993V21.8041ZM11.6993 18.3597H9.11599V17.4986H11.6993V18.3597ZM17.7271 23.5264H16.866V9.74859H17.7271V23.5264ZM21.1715 23.5264H20.3104V9.74859H21.1715V23.5264ZM24.616 23.5264H23.7549V7.16526H14.2827V23.5264H13.4215V14.0541H6.53266V23.5264H5.67155V13.193H13.4215V6.30414H24.616V23.5264Z"
              fill="#022F51"/>
    </g>
</svg>
