<svg width="30" height="38" viewBox="0 0 30 38" fill="none" xmlns="http://www.w3.org/2000/svg">
    <path d="M25.7629 13.2589C25.7629 7.56961 21.1083 2.94385 15.3881 2.94385C10.0453 2.94385 5.60526 6.92561 5.06876 12.2064C4.96516 13.2184 5.70516 14.12 6.72266 14.223C7.74016 14.3261 8.64666 13.5901 8.75026 12.5781C9.09806 9.18145 11.9508 6.62385 15.3918 6.62385C19.0733 6.62385 22.0666 9.60097 22.0666 13.2589V15.9048H25.7666V13.2589H25.7629Z"
          fill="#0C6536"/>
    <rect x="3" y="17" width="25" height="18" rx="2" fill="#0C6536"/>
    <path fill-rule="evenodd" clip-rule="evenodd"
          d="M21.3033 21.2243C21.7029 21.5625 21.7528 22.1606 21.4146 22.5602L14.4632 30.7755C14.292 30.9779 14.0438 31.0993 13.779 31.1103C13.5141 31.1213 13.2568 31.021 13.0693 30.8335L9.27764 27.0418C8.90745 26.6717 8.90745 26.0715 9.27764 25.7013C9.64782 25.3311 10.248 25.3311 10.6182 25.7013L13.6814 28.7645L19.9674 21.3356C20.3055 20.936 20.9036 20.8861 21.3033 21.2243Z"
          fill="white"/>
</svg>
