<?xml version="1.0" standalone="no"?>
<!DOCTYPE svg PUBLIC "-//W3C//DTD SVG 20010904//EN"
        "http://www.w3.org/TR/2001/REC-SVG-20010904/DTD/svg10.dtd">
<svg version="1.0" xmlns="http://www.w3.org/2000/svg"
     width="1920.000000pt" height="2075.000000pt" viewBox="0 0 1920.000000 2075.000000"
     preserveAspectRatio="xMidYMid meet">

    <g transform="translate(0.000000,2075.000000) scale(0.100000,-0.100000)"
       fill="#000000" stroke="none">
        <path d="M1508 18364 c-64 -20 -158 -107 -189 -176 l-24 -53 0 -8065 0 -8065
24 -52 c31 -70 111 -144 184 -171 l58 -22 4209 0 c4484 0 4264 -2 4745 46 206
20 638 92 875 144 362 81 824 216 1095 322 379 147 478 190 762 329 1090 534
2048 1296 2809 2236 136 167 146 180 258 333 179 246 346 506 550 855 49 85
262 505 311 615 134 303 216 513 320 825 174 523 279 1002 365 1650 57 439 64
1215 14 1745 -44 475 -158 1075 -291 1525 -344 1174 -908 2202 -1722 3145
-245 283 -747 768 -1020 985 -35 28 -77 62 -95 76 -173 141 -577 424 -793 555
-66 39 -250 148 -313 184 -185 106 -620 317 -865 418 -661 274 -1364 462
-2075 556 -309 41 -429 52 -715 66 -134 6 -1698 10 -4320 9 -3561 0 -4116 -2
-4157 -15z m8572 -2374 c531 -43 1059 -155 1512 -321 59 -21 110 -39 114 -39
3 0 32 -11 63 -24 31 -14 117 -50 191 -81 470 -198 1000 -519 1404 -850 823
-673 1455 -1557 1812 -2534 192 -526 299 -1015 350 -1611 22 -265 15 -772 -15
-1040 -31 -278 -39 -328 -82 -545 -153 -768 -438 -1462 -865 -2105 -131 -197
-142 -213 -243 -345 -516 -670 -1175 -1229 -1916 -1622 -747 -396 -1547 -625
-2395 -683 -369 -25 -921 -5 -1240 45 -504 79 -919 190 -1345 360 -927 370
-1755 972 -2383 1735 -140 171 -147 180 -237 305 -729 1017 -1115 2214 -1115
3460 0 1402 484 2724 1395 3810 578 690 1305 1232 2165 1613 365 162 859 311
1299 392 269 49 469 72 836 94 100 6 562 -3 695 -14z"/>
    </g>
</svg>
