<svg width="32" height="42" viewBox="0 0 32 42" fill="none" xmlns="http://www.w3.org/2000/svg">
    <path d="M28.9128 41.1831C30.6149 41.1831 32 39.8418 32 38.1934V0.514788C32 0.230499 31.7692 0 31.4839 0H0.516129C0.230847 0 0 0.230499 0 0.514788V38.1934C0 39.8418 1.38508 41.1831 3.0872 41.1831H28.9128ZM30.5779 1.02958L27.8412 5.73858H4.14516L1.40798 1.02958H30.5779ZM1.03226 38.1934V2.43601L3.40121 6.51152C3.49345 6.67038 3.66381 6.76816 3.84778 6.76816H28.1386C28.3226 6.76816 28.4929 6.67038 28.5852 6.51152L30.9677 2.41194V38.1934C30.9677 39.2742 30.0459 40.1535 28.9128 40.1535H3.0872C1.95413 40.1535 1.03226 39.2742 1.03226 38.1934Z"
          fill="black"/>
    <path d="M13.9429 19.9041C13.9444 19.9041 13.9464 19.9041 13.9464 19.9041L18.0613 19.9003C19.5523 19.8985 20.7635 18.6794 20.7614 17.1828C20.7604 16.4589 20.4787 15.7782 19.9686 15.2665C19.4575 14.7544 18.7791 14.4727 18.0578 14.4727H18.0543L13.9399 14.4764C12.4489 14.4782 11.2372 15.6973 11.2393 17.1939C11.2403 17.9181 11.522 18.5985 12.0321 19.1103C12.5432 19.6223 13.2216 19.9041 13.9429 19.9041ZM13.9409 15.506L18.0553 15.5022H18.0578C18.5024 15.5022 18.9212 15.6764 19.2367 15.9926C19.5538 16.3106 19.7287 16.7337 19.7292 17.1843C19.7302 18.1131 18.9817 18.8695 18.0603 18.8707L13.9454 18.8745H13.9429C13.4983 18.8745 13.0795 18.7003 12.764 18.3841C12.4469 18.0664 12.272 17.6431 12.2715 17.1924C12.2705 16.2636 13.0195 15.5073 13.9409 15.506Z"
          fill="black"/>
    <path d="M13.6894 22.6204C13.6919 22.6204 13.6944 22.6204 13.6964 22.6204L14.2277 22.6196L14.2352 24.9309L13.6707 24.9316C12.9762 24.9329 12.4112 25.4977 12.4122 26.1905L12.4127 27.3809C12.4137 28.0737 12.9792 28.637 13.6738 28.637C13.6743 28.637 13.6748 28.637 13.6753 28.637L14.2398 28.6362L14.2408 29.7404L13.6758 29.7412C13.3391 29.7417 13.0225 29.8729 12.7846 30.1107C12.5467 30.3482 12.4162 30.6642 12.4167 30.9998L12.4172 32.1902C12.4177 32.526 12.5493 32.842 12.7877 33.079C13.0256 33.3161 13.3416 33.4463 13.6778 33.4463C13.6783 33.4463 13.6793 33.4463 13.6798 33.4463L14.2443 33.4455L14.2448 33.682C14.2463 34.6661 15.0447 35.4657 16.0261 35.4657C16.0266 35.4657 16.0271 35.4657 16.0276 35.4657C17.0099 35.4642 17.8078 34.6618 17.8063 33.677L17.7887 22.6148L18.3184 22.6141C21.2983 22.6103 23.7191 20.1721 23.7151 17.1791C23.7131 15.73 23.1501 14.3684 22.1289 13.3446C21.1082 12.3218 19.7534 11.7588 18.3119 11.7588C18.3093 11.7588 18.3068 11.7588 18.3043 11.7588L13.6823 11.7648C10.7025 11.7686 8.28162 14.2068 8.28565 17.1998C8.28767 18.6489 8.85067 20.0105 9.87184 21.0343C10.8925 22.0573 12.2478 22.6204 13.6894 22.6204ZM13.6833 12.7944L18.3053 12.7884C18.3078 12.7884 18.3098 12.7884 18.3119 12.7884C19.4762 12.7884 20.5719 13.2438 21.397 14.0708C22.2247 14.9006 22.6813 16.005 22.6828 17.1807C22.6859 19.6058 20.7277 21.5812 18.3174 21.5845L17.271 21.586C17.1339 21.5863 17.0029 21.6406 16.9061 21.7373C16.8093 21.8341 16.7554 21.9651 16.7554 22.1016L16.7741 33.6785C16.7746 34.0958 16.4394 34.4356 16.0266 34.4361C16.0261 34.4361 16.0261 34.4361 16.0256 34.4361C15.6133 34.4361 15.2776 34.0973 15.2771 33.6805L15.2761 32.9295C15.2756 32.6454 15.0447 32.4154 14.7599 32.4154L13.6783 32.4167C13.5961 32.4167 13.5417 32.375 13.5165 32.3503C13.4918 32.3254 13.4495 32.2711 13.4495 32.1892L13.449 30.9988C13.449 30.9166 13.4908 30.8625 13.5155 30.8376C13.5407 30.8127 13.5946 30.7708 13.6768 30.7708L14.7579 30.7693C15.0432 30.7688 15.2741 30.5383 15.2736 30.254L15.2715 28.1202C15.2715 27.9837 15.2171 27.8527 15.1198 27.7562C15.023 27.6599 14.892 27.6059 14.7554 27.6059L13.6743 27.6074C13.5483 27.6074 13.4449 27.5053 13.4449 27.3799L13.4444 26.1895C13.4444 26.0638 13.5467 25.9615 13.6722 25.9612L14.7534 25.96C14.8905 25.9597 15.022 25.9052 15.1188 25.8084C15.2156 25.7116 15.2695 25.5802 15.269 25.4437L15.2584 22.1026C15.2574 21.8188 15.0266 21.5893 14.7423 21.5893L13.6954 21.5908C13.6934 21.5908 13.6914 21.5908 13.6894 21.5908C12.5246 21.5908 11.4288 21.1353 10.6037 20.3081C9.77607 19.4784 9.31942 18.3739 9.31791 17.1983C9.31488 14.7731 11.273 12.7974 13.6833 12.7944Z"
          fill="black"/>
</svg>
