<svg width="32" height="32" viewBox="0 0 32 32" fill="none" xmlns="http://www.w3.org/2000/svg">
    <path fill-rule="evenodd" clip-rule="evenodd"
          d="M4.0612 5.69544H21.3725V7.07578H4.0612V5.69544ZM14.8559 13.0369H4.0612V11.5381H14.8559V13.0369ZM4.0612 9.96702V8.54316H21.3725V9.96702H4.0612ZM29.2981 13.6742V0H0V21.5051H20.147C20.0564 21.1971 19.9866 20.8803 19.9406 20.5559C19.8984 20.2585 19.8761 19.9548 19.8761 19.6458C19.8761 16.0016 22.8408 13.0369 26.4851 13.0369C27.1331 13.0369 27.7579 13.1333 28.3488 13.3098C28.6763 13.4076 28.9933 13.53 29.2981 13.6742ZM28.3488 12.3246V0.94924H0.94924V20.5559H18.983C18.9462 20.2581 18.9269 19.9545 18.9269 19.6458C18.9269 15.4773 22.3166 12.0876 26.4851 12.0876C27.1298 12.0876 27.7539 12.1709 28.3488 12.3246Z"
          fill="black"/>
    <path fill-rule="evenodd" clip-rule="evenodd"
          d="M26.5019 27.6414L29.174 29.4913V26.3864C28.3375 26.7033 27.431 26.8771 26.4854 26.8771C25.476 26.8771 24.5137 26.6774 23.6338 26.3183V29.5533L26.5019 27.6414ZM22.6338 31.4218V24.6279C22.9479 24.8544 23.2823 25.0544 23.6338 25.2242C24.4972 25.6415 25.4636 25.8771 26.4854 25.8771C27.4423 25.8771 28.3523 25.6725 29.174 25.3051C29.5245 25.1483 29.8589 24.962 30.174 24.7492V31.3999L26.4913 28.8503L22.6338 31.4218Z"
          fill="black"/>
    <circle cx="26.5" cy="19.5" r="5" stroke="black"/>
</svg>
