<svg width="30" height="37" viewBox="0 0 30 37" fill="none" xmlns="http://www.w3.org/2000/svg">
    <path d="M25.7629 13.2589C25.7629 7.56961 21.1083 2.94385 15.3881 2.94385C10.0453 2.94385 5.60526 6.92561 5.06876 12.2064C4.96516 13.2184 5.70516 14.12 6.72266 14.223C7.74016 14.3261 8.64666 13.5901 8.75026 12.5781C9.09806 9.18145 11.9508 6.62385 15.3918 6.62385C19.0733 6.62385 22.0666 9.60097 22.0666 13.2589V15.9048H25.7666V13.2589H25.7629Z"
          fill="#022F51"/>
    <path d="M4.82063 35.0127H26.0993C27.1227 35.0127 27.96 34.1823 27.96 33.1673V18.8581C27.96 17.8431 27.1227 17.0127 26.0993 17.0127H4.82063C3.79726 17.0127 2.95996 17.8431 2.95996 18.8581V33.1673C2.95996 34.1823 3.79726 35.0127 4.82063 35.0127ZM15.46 21.3235C16.9299 21.3235 18.1207 22.5046 18.1207 23.9625C18.1207 24.9073 17.6183 25.734 16.8666 26.1991C16.9225 26.391 16.9597 26.5977 16.9597 26.8118V29.5872C16.9597 30.6022 16.2861 31.4326 15.46 31.4326C14.6338 31.4326 13.9603 30.6022 13.9603 29.5872V26.8118C13.9603 26.5977 13.9975 26.391 14.0533 26.1991C13.3016 25.734 12.7992 24.9073 12.7992 23.9625C12.7992 22.5046 13.99 21.3235 15.46 21.3235Z"
          fill="#022F51"/>
</svg>
